<mxfile host="app.diagrams.net" modified="2023-10-27T06:08:33.021Z" agent="Mozilla/5.0 (Windows NT 10.0; Win64; x64) AppleWebKit/537.36 (KHTML, like Gecko) Chrome/118.0.0.0 Safari/537.36 Edg/118.0.2088.69" etag="yP3MRYq5zTJqCA824biF" version="22.0.8" type="github">
  <diagram name="Página-1" id="dEJGY9LAbtKT8eE1fh9m">
    <mxGraphModel dx="956" dy="535" grid="1" gridSize="10" guides="1" tooltips="1" connect="1" arrows="1" fold="1" page="1" pageScale="1" pageWidth="827" pageHeight="1169" math="0" shadow="0">
      <root>
        <mxCell id="0" />
        <mxCell id="1" parent="0" />
        <mxCell id="2c84H_mFhP0OiNRYd1Ep-6" value="ID" style="ellipse;whiteSpace=wrap;html=1;" parent="1" vertex="1">
          <mxGeometry x="107.37" y="255" width="70" height="40" as="geometry" />
        </mxCell>
        <mxCell id="2c84H_mFhP0OiNRYd1Ep-9" value="DATA PARTIDA" style="ellipse;whiteSpace=wrap;html=1;" parent="1" vertex="1">
          <mxGeometry x="351.12" y="255" width="118.88" height="40" as="geometry" />
        </mxCell>
        <mxCell id="2c84H_mFhP0OiNRYd1Ep-10" value="HORA PARTIDA" style="ellipse;whiteSpace=wrap;html=1;" parent="1" vertex="1">
          <mxGeometry x="351.12" y="305" width="112.5" height="40" as="geometry" />
        </mxCell>
        <mxCell id="2c84H_mFhP0OiNRYd1Ep-11" value="MATRÍCULA" style="ellipse;whiteSpace=wrap;html=1;" parent="1" vertex="1">
          <mxGeometry x="622.24" y="255" width="97.63" height="40" as="geometry" />
        </mxCell>
        <mxCell id="2c84H_mFhP0OiNRYd1Ep-12" value="NOME" style="ellipse;whiteSpace=wrap;html=1;" parent="1" vertex="1">
          <mxGeometry x="614.87" y="305" width="105" height="40" as="geometry" />
        </mxCell>
        <mxCell id="2c84H_mFhP0OiNRYd1Ep-25" value="" style="endArrow=none;html=1;rounded=0;" parent="1" edge="1">
          <mxGeometry width="50" height="50" relative="1" as="geometry">
            <mxPoint x="202.37" y="205" as="sourcePoint" />
            <mxPoint x="342.37" y="205" as="targetPoint" />
          </mxGeometry>
        </mxCell>
        <mxCell id="2c84H_mFhP0OiNRYd1Ep-1" value="PILOTO" style="rounded=0;whiteSpace=wrap;html=1;" parent="1" vertex="1">
          <mxGeometry x="94.87" y="180" width="100" height="50" as="geometry" />
        </mxCell>
        <mxCell id="2c84H_mFhP0OiNRYd1Ep-37" value="1" style="text;html=1;strokeColor=none;fillColor=none;align=center;verticalAlign=middle;whiteSpace=wrap;rounded=0;" parent="1" vertex="1">
          <mxGeometry x="184.37" y="180" width="60" height="30" as="geometry" />
        </mxCell>
        <mxCell id="2c84H_mFhP0OiNRYd1Ep-38" value="1" style="text;html=1;strokeColor=none;fillColor=none;align=center;verticalAlign=middle;whiteSpace=wrap;rounded=0;" parent="1" vertex="1">
          <mxGeometry x="312.37" y="180" width="60" height="30" as="geometry" />
        </mxCell>
        <mxCell id="sN6ll9Y3iF8QySrxCl4U-4" value="LOCAL ORIGEM" style="ellipse;whiteSpace=wrap;html=1;" parent="1" vertex="1">
          <mxGeometry x="350.5" y="355" width="113.75" height="40" as="geometry" />
        </mxCell>
        <mxCell id="sN6ll9Y3iF8QySrxCl4U-6" value="" style="endArrow=none;html=1;rounded=0;entryX=0.19;entryY=0.4;entryDx=0;entryDy=0;entryPerimeter=0;" parent="1" source="2c84H_mFhP0OiNRYd1Ep-1" target="2c84H_mFhP0OiNRYd1Ep-3" edge="1">
          <mxGeometry width="50" height="50" relative="1" as="geometry">
            <mxPoint x="472.37" y="205" as="sourcePoint" />
            <mxPoint x="607.37" y="204.5" as="targetPoint" />
          </mxGeometry>
        </mxCell>
        <mxCell id="sN6ll9Y3iF8QySrxCl4U-5" value="efectua" style="rhombus;whiteSpace=wrap;html=1;" parent="1" vertex="1">
          <mxGeometry x="489.87" y="170" width="100" height="70" as="geometry" />
        </mxCell>
        <mxCell id="sN6ll9Y3iF8QySrxCl4U-9" value="N" style="text;html=1;strokeColor=none;fillColor=none;align=center;verticalAlign=middle;whiteSpace=wrap;rounded=0;" parent="1" vertex="1">
          <mxGeometry x="442.37" y="180" width="60" height="30" as="geometry" />
        </mxCell>
        <mxCell id="sN6ll9Y3iF8QySrxCl4U-10" value="1" style="text;html=1;strokeColor=none;fillColor=none;align=center;verticalAlign=middle;whiteSpace=wrap;rounded=0;" parent="1" vertex="1">
          <mxGeometry x="572.37" y="180" width="60" height="30" as="geometry" />
        </mxCell>
        <mxCell id="2c84H_mFhP0OiNRYd1Ep-3" value="MÚSICA" style="rounded=0;whiteSpace=wrap;html=1;" parent="1" vertex="1">
          <mxGeometry x="622.37" y="185" width="105" height="50" as="geometry" />
        </mxCell>
        <mxCell id="2c84H_mFhP0OiNRYd1Ep-2" value="DISCO" style="rounded=0;whiteSpace=wrap;html=1;" parent="1" vertex="1">
          <mxGeometry x="364.87" y="180" width="85" height="50" as="geometry" />
        </mxCell>
        <mxCell id="2c84H_mFhP0OiNRYd1Ep-26" value="efectua" style="rhombus;whiteSpace=wrap;html=1;" parent="1" vertex="1">
          <mxGeometry x="232.37" y="170" width="100" height="70" as="geometry" />
        </mxCell>
        <mxCell id="2Cuy6g12Aj8nrBfPKS-0-26" value="MARCA" style="ellipse;whiteSpace=wrap;html=1;" parent="1" vertex="1">
          <mxGeometry x="614.87" y="355" width="105" height="40" as="geometry" />
        </mxCell>
        <mxCell id="2Cuy6g12Aj8nrBfPKS-0-27" value="Nª LUGARES" style="ellipse;whiteSpace=wrap;html=1;" parent="1" vertex="1">
          <mxGeometry x="614.87" y="405" width="105" height="40" as="geometry" />
        </mxCell>
        <mxCell id="2Cuy6g12Aj8nrBfPKS-0-28" value="AUTONOMIA" style="ellipse;whiteSpace=wrap;html=1;" parent="1" vertex="1">
          <mxGeometry x="614.87" y="460" width="105" height="40" as="geometry" />
        </mxCell>
        <mxCell id="2Cuy6g12Aj8nrBfPKS-0-29" value="LOCAL DESTINO" style="ellipse;whiteSpace=wrap;html=1;" parent="1" vertex="1">
          <mxGeometry x="353.68" y="405" width="113.75" height="40" as="geometry" />
        </mxCell>
        <mxCell id="1aQ4Kce4PFIx22M5Ka7v-1" value="" style="shape=image;verticalLabelPosition=bottom;labelBackgroundColor=default;verticalAlign=top;aspect=fixed;imageAspect=0;image=data:image/png,iVBORw0KGgoAAAANSUhEUgAABBcAAADMCAYAAAAoCkvOAAAAAXNSR0IArs4c6QAAAARnQU1BAACxjwv8YQUAAAAJcEhZcwAAEnQAABJ0Ad5mH3gAAP+lSURBVHhe7F0FdBtH121MAjMzM9txHGZmZmZm5jTM0DAzMzMzM8eJmZlRuv/blSxLpjhJ26/tv/ecnNOuV7MDD+++mf0NHDhw4MCBAwcOHDhw4MCBAwcOvwCOXODAgQMHDhw4cODAgQMHDhw4/BI4coEDBw4cOHDgwIEDBw4cOHDg8EvgyAUOHDhw4MCBAwcOHDhw4MCBwy+BIxc4cODAgQMHDhw4cODAgQMHDr8EjlzgwIEDBw4cOHDgwIEDBw4cOPwSOHLhX4jI91cxoFdPnL79BWKx9OKPICcFYWFRyJX+71+LPNzbvxK9e/TAgDFrEJSRx17NjP6EEwf2YO+RCwhP+Xt68vdAjHcnl6G8gxVMLb2w5VYIRPJrlBePfQuHw9/DHuYW1vCt1wVvI5Lw8dFF7Nq1CzdeBtGa/syicvgpiDOxb95g9BuzFVE5IulFDn8OchAdHo6UnP+f8pwY8hCjBvTGprOvkKdgBP69SHu0GQP7DcXx9xnI+zuGxOjn/KHoN3YLwjNzybr+CciNx47JQzFk1lZk5fyXfM9fARFSY8IRFZ/y034pO+ErVo3vBj83e1hZO6L+iB2Iycj5c9byH4dc3D2yFoP79Mak+RvwOjyV/H8eDi+fiM0Pk5EtCX/+cQh9eYH0ui8u3v2I3DzOD/4lEMVhx6zhGDTrIKLSsv+j8v9jSLi3GcMHjcCpNwky3RBnJyM8MhbZIk4O/83428kFUcYnzOzRDNVr1MGcvXd+Ljn+E5AccQedG9fDzB33ig+S8r5iZLsG6Pn7SaT/wwLDt5eWQFNNCXPWXf1xh0/B2t6eLlBSEqDfkRjFxPevgDgLy7tWhVK5cvhNpQJuxDBBRS72j21CfaBrv5XD2G0PqR//rDn+WYiy49CuvDGUlPmoP/MsshQmWIT3G7tDqKJE4/4NfKE6NIydcOntVTS2UEM5usbz6oW43H9oBPInQizKRUpyMjKy/8fBvTgOA32FUNZqhddpf1Ly8q+ACOkpyUilIP+vgRiRB/pBW1UF1t32IfX/IXET/Gw7LLTU0HHWUWT/J3Sa1nRzS6jzhBh9KgE5f8eQRPEYWEETqqSfL5KySGp/HeLMr+hkpQehZyekZWRJr3IoDplhz1DBWh/qzs0QnJbxU/bx0tqhEAr48GnaD0uXzEGn0dsQ/R8lF/ICdsLLUB+ufuVhrCOErk0VLF0xBd6mZhhzKRaZ/1Au6/mJ+dDW4GPplsvI+l/75B+BKBupKSnIJP/yj5en3E/o6UG65DIIb+PS/hRb9u+GGF/Xt4KhphYmnghFWjatoDgVm9rZQoOngXFHAiTXOPwr8feSC3lp2D6kFtRUlNlEquaILf+zt7RRH7bCgq+EBsN3Iru4PmTdhp+uMixrzqJk758l4L9ELiAbV35vAVtbD8y/mfTXkzvFkgt5ODGtFZQZcqGcCmYcev3fIBfEGbgwuTrUSb692s1GeEq29A9S5MZhUi1Hdi6UeJ449ugjPn/6gLS0D2jrKES5cr9Br9pwJP4tUfv/FjGvzsHZxgK9Fh9H3v/yTcn/V3Ih5znaeNugfI+tSPqL5C32ylx4O9ihyczLSM/lyIV/Pzhy4f8bsmI+oGMNT3g0GoyotMyfsI9iLO7hDw1tC5x7Ff2fqeApCclk86o27Y+YlHSEfbiJSd0bwN7GHs0GzkdYWtY/1r/8W8mFnOcrUNHZAf22vENq1j/cx3DkQiEURy6k48SERnBz9sXKa6HI+IflXhzKjr+VXIh+dRQO+kLUad4FAmWl/wC5QGkyBY3F/TUv7/uRV15uzk852++TC2Lk5OT+dFVCXm7uL5e8iqgN9vnFkguE7AQ8uXkF1x99RkYxHRWL8pD7vU6IRTR/pZtoMd3DzMX3hyNG7g8kAKJin5uLkGdXce7iXcRkFTOmtFB09jKnufgNqub98C2rQHbigt/i4oVLCIhOKb6v7FhLHwW7bn+SxxKRbJZJfqhfohJuZOa+pPWJfHQY2nxVNJm8q/QyTJLvHMpiytIVBmXRO2q0gNAoA7nAVFn8clBM48j9XhtSWS0rxHmkY99pU0zzX6waZd9DdSMeTBosRdx3anWLl/U/ByLS81+c2TLhV+w0ows/s/7FkQuMjn6vJcb25ZTBFjF9/15bEj3+tRkWkZxJmigLufBjdrR4yOnnd8mFMtp30q38fpWFXGB0vixr8Mu24S+wC7RgxfaJkau/ZiuLJA4qHnmY0sIRmvo+uPstpcTnMzJW5nJ8Zi1LmTPG5hUn84y9/N4j2HihTPJL6/adxso+Jmorp4z+9rsQl2yvGVkroT/fJxckev1niY8o7wdsKq1JSS8gsu9Ng7W2OloseYrkzFLWjW2jLOtaMgrsYMlgbXdJ9qgYcoFps0w6WcocMGvzq2NjwPiKssgr0+dfkVV2Htn/KoZc+A7YeOY7D2ftXBnuyS3DCw/mvu/FWKVBROvyK3NVGsoSS/wv8feRC3kRmFLNAEKnbrh98xA0VP+F5IIoEXtXL8GxZ3HIiXmJSV3rwc7GBrXaj8GLOIlyJwY/waBmlVi2uiZdfxuVyl7PhygnHee3z0fL2hVga20FO1dfdB//B8KSCr3lLgUlkws5uLh5Bmr5OsPaygouPjUwZsVJSh7k7xEj4eVxLFq8Hu/SxAXCKUrBqfUz0biqN9svBzc/9J2xHeGp31dAeWRFvcKMPs3gaGcD90qNsO7SByzqUqUIuZAW9BirF8/D/OXb8DWhwJmlRL7G9H4t4e5gCytbB9RuMxCnX0YrKGhuwhesGt8TPq4OsLFzRaPu4/A4MF5B0fJSvmHp2G7wdbWHlZU13CvUxtjlhxGbXsgIk9F+dnoDWtUsT+O2RoU6rTFt+nTMmDEDs+Ytx/vYFIgyo3Hwj0VYsGwnvial4sySgfB0dEC1npukBl+M+I/XMX1QB3hTn6yoHfeKdTF1wyUkS2UnI+gB5k8bC3cjTTBVO8o6FTBq6gys3nMTGdTG03M7MHv2HBy69V4xMMoKx6oJvVDexR7Wtk5o1nsKXsTKGZXceJxcNwONqviQzJE8ObqjZe/JePDtB6pSKIDftXoZLrxLQnbMC1q/5nC0sYZn5aZYf/ETcuQaEqeHYOfSxTj/JhIhz0+gAcmak1dt7H6TWbBGGaFYMa4bPJ1s2T437zMdHxKlpJI4Czf3rceE/h3AU1GGYw3JfM+ctQTPIwtKZcWkJ2c3zkS9Cu4ky7Qu9Tph1+1A5Mr1JSP0GZYtWo6XYYmI+XwL/ZpUhL2tLSq3GIiHQQnFjv/tpU1o6O8GW+pXo14z8Ck6FAN8BcWSC5lhdzGxZzM42drA1tEbPSavRUzmj20jEGWnYN+SUaji6Qgbsgm12w7EqVexCgFFXmo4ts8eiEqejN7awJP0ZsnBO+Qg5XVPhOsH1mHN4SfIyInHgXmD4OVkB2fS8Vm7HyK9UISSlxWHtZN7wtvRDtZ2zmjRdyZex0vm99ON3Zg9YwCsNVSg4dAIE6bR/M9ZgZfxafR3SiDv78XSDacQlxKFDWPawNXBEfX6bkRMdh4SmDlfuAA33kUqymlOEHYuX4zdt8Nkjl2U9AYblizByddJMtlIfnMay1bvQnRWJk4sGwYP0iP/VrMR+J399NmJ4di0YiEOXX1TKHDIxfldK7Bs5y2k5gcL4mQc27AMex9EIyv2Peb0bwonO1tUbTEYDyIpQaWfp8a8w/jOdeFgZ4+KzQbg/tf4AvllIM6l+V6B9g0qw8HWGrbOXmg3dAE+R9McldZROciTC6nBtzC0TS3YkXyWr98FJ5+GFgmAQl9exNieLeFFum5lbY8qTbrj6INvRe97fgbdG/mTvtuwNn4S2ZkUhUBJhKjnpzGkfV3SB2s4eFTE0AV7EJtWoF9lQsY3zB3QCs52dnD1b4QNZ18gdEPz4smFnEScWTMZtfzcSM7t4Ef6euR+QJG+fw9vLm5E44rusLUj/exN+hkZjAF+RcmF1Mh3WDGpH6r6usKG7K1HpQZYtPcWWx6tiDwEXt+EtrXJvtvao363yXj69TU6WBZPLqSFvcCcwe3h5Ux6Y+OASo264uDtj0WS2ez4L1g6qhN7ny3Z3Fb9Z+FVKLO/XnrDdyDKScPBZeNQ3dsJNtSvWq3748TzKOTINZCXFo7d84aiqrcLrK0Zf9qQxnizSBXMmxuHsXTNIUSnZeLO7t9RxcsJzt7VMX3XA3Y7kjgnBWdXj0VlDyc4elbFkqOPqI3C81QC6Lfntv2B9QcuI1u64CkR77ByyTI8CkhAatAtDGpdE/Z25A9bDsatT3GyNY8Luo8l82ejupMeeAJT9B05GTPnrsDbaDl78O0epvVtBTdHia+o3qIvzjwLUphvcV42Tu9cg93nXyEl5DYGNa8CB2dvrL7wnMaRjffnd2DNrtPIzM7CtR2/05w6w8G9KuaRb81i+ixOx8V141HRwxEuvrUx98hLpCnICcVEH69g6qD2FFM40lyTD2nYFXsfhSG7SOYnxtPTG0me/Fhd9q/bDpuufkambD7FeHV5J/q0rkN20w429i5o1G087n4pmBcZRJl4engZWjNtkb+1d6uAgTM3IS7zB/bjizNwc88qbKW5iQt8hiHNKsLJxQtjdjxFhow0zsQx0s2avi6sblZt2otscoyCrJVGLtw/vhata5VnY12vKk2x9AQzf5K2M7/exqrFS3HmTSLZA8Vei2KfYP2ypTj3VvI3Rg5vHViFLk1qwJHmztbBAx2GL8S3pHSZXjMIenEBi5fvRGBCOj5e3oAW1b3ZuKbN8JX4EpchlZ0cXNuzHLMG1IIOXw0ujQZh0pTpmLtqGxJT5LbvZMfi4NKxrA4xelateV9ceB1apK+lIYNkfGzXRnC0t4Ej2dJh83chPlWxCiU7MRjrp/dHZdI9Rn58a7TAyiP3kJYlN5dy5MLroI/YOLUP/NwcKH6qhsnbbiNR7l5xThLObF2FfecfITnmDUZ1qAtn1/KYdfoz0vNlNzsOR1dMQA0fJp4hf9G4J04//UZjK6NuSxH57gZGd2tCOsjIqzPqdxiKSy+LzlEixeyTejWj2NwODtSXXpM3IiA+fz2+j9ykz5g9qA09xx6uFRtj09lneLeqeSFyQYzYZ0excsU2vKO1zu+CKC8ZO+YNQ0V3iqNsHVmdehiWQvGg5O8MsuK+UNzZCxVIz+0d3dC81yTc+RSjYEtyEz5gOeUO3s4OtE52qFS/M3be+FjUb2SGYeO0fvB2cSA5daP4aSrZd9LhMjr/3JRwbJ7eF/5kc509q2Da9htIiArAhmVLcOnpF5kNj/p8H0sXLcH9D+GK65bzDTvXrMCx+8GF+paDN+c3oFP9ShSX2MLZrw4W77+J9Ky/anvrz+NvIxfubB4JdXVDLL7wETHPjv87yYXsR6hsoAr3zjNRx9kcTv510YKCT12+Mgw8WuHMgdXkSE3hU7MxGtbwBl9JCSaVB+BDilQ4xClY18EWmgZWqNWkLfr174/Wdf3Y+5yaTkdYGfcXFUcuZMR+wphmbuCpCuBUoRZatW6Fat4OUFUqB69mYxGUkS+gItybXgUqyqZY/JoMJPNzSmDHVrWCtpEN6rXoiL79+qBFLV9K/pTg13UeMsv45jIz4j6aeBiz5f3MmQLMPyVVdVgZ6kr+X0YuiPFoTS+osGcuqGDFpXDWQMW/PIRq1hps8p3/e+afS71JSMiW9CH160U0dFN8BvNPy6MnAqT3vLu4Ad5G/CLt/PabEhzr9MOTSKnzFqXiwpz20BcoQ1WgA08fbxhp8wruV9LF7LtkrL9chIGaMv2/AVr37w4tngr7d75+R5bNf3NoIow11Ap+J/unhLpD/mDZ4Pd7xkFNWXLWgvw/c59uCE1Jx+DKWmxFg3WrOciSGplwSt5rWGmw1+V/o2JUHy9ispEW9QGtfc2K/J35p2tXC7eiyhikZD9ABUM+KnaZiApWBrDxqorWrZrC1kgDahqmmHPytSwwyvt2Co4CARoMocDYwQQ+tZuhQc2aWHKLAgS6JfLVadS00YKBrQ96DhqFUYN7wMdGD3yTijhKCZUoOxELezaGo405e+aGhr4JnJyd4ezsgx2PU9g28hI+Y3r78tDQMkWjjn0xfuwINPZ3gpq6Ecbvui9zFkFnF0HA18GA8QPha2MCP9K7xnUqQJPkVtO+Ma58k0sERVm4tGogjAQq0LT0RuOmjVHe3gCmXnXhZaYCJU1FcuHdxdVw1OPD2rMWBo0ci8E928BOXwjjCt3wIJg53Ex6YynIin6FEQ2dwVPThGe1BuycetoaQaDvgrufJORHdvg9dKlqBxU1dfhUr4dWrZrBz8EAyipC1Oi7DOEp+QlhDgbXMoW+S0d0auABE1tvNG/ZDK4WelBW08CY7XdkwaIo8SOG17SClokrugwYibEjB6K+vyvqzHtMwbIIp+e0g4eLDYQq5aBCc+rgRPPvVhU7PkSR88zDhZFu4BtVx4ihDaBn6YmGTRqgRsNpCKXg583ludAl+R+85qrCWw5RzF64ClVh3eswBfSS6znPlpCNVUPV3x8ii7WhIjxf2hRCXXfMmtsJZhYOaNC0KSpVHYI36aWTC3EfbsDOQICa/VbIkhwWolh09BBC3bQbPucnzzkv0dBSCNv2s9HUxw725WuheYNqMFRXgdCyDg7u34D67ubwrFwPjWr7Q6isDEOfzngeJ9UXcRr29XaBrr45qjVshT79+qFdo8oQ0H22dYbja3rZkvR8csGzcl1YaQgoAa6D5o1rwVCDB3UzX+x+lSALnuIuzYalng6c/WuhU88+6N2lDRwMNSAw8sDut/lvfMWIuPkHPI21YFO1FYaNGYuBPdrAydwbhz/mB2K5eLx3Kmx0NeBEAdzwsePRt2MjGKvz4dFiEj7Gl80mJHy+gYaOOmQX9VCxbhM0qOEDPT0ztKvnCFUVgSK5kB2KCW0qQJ30tVmX/hgzcgga+1lCqGOLibseI10+aCoJlGgx+mmirgYt0s9GTRrD196Q9LMePE1VoUz6mU8uiONvopGtHswcfdGyY3f07dMNVZ1NocLXR89Nj5Ehl+jd3z0ZRuo86Fq4oEnzZtSmMUwoWHQUqoHvIU8uiBB+bzPZNAPwNIxRrV5TtGxWn9ZASDpiiv7LLiIpSzrg3BAMru8CTSMXdBs4EqOG9UNdP1uMWntRUTZLQFb0a/LV7hDwNOFehXS+ZVN42ZlAqO+E629IB0mPsyMeoEdNZ6iRXfCuUpfuaY4KjkZQURWiWq/FCE4oSG7Wj6gPbQMX9GlfH2bmzmjUrBk8rQ2gwtPGjK2HMLdPPZjaeaNB44ZwMxVCmW+EiXso+SwDwSCihKAZza1xlV5ITM9kr325vR5m2kK06dEfTgY68K1eH41JjzT5qjDyao2nMRJf8OnWKlTxcYc++UbmDCIrOwc4e1TH3rchZKtyEXB5Bcpb60Jd1wK1GjZDi8Z1SG55UNW0wthNN5EqTY7zshLRpgLFW5U7oYaTERx9q6Npg1qYf+we2ZpE/NHWi+xidSwaUAd29m40zsZwNyfZ1TDD2IP3MLMXjd/ag7X5Lha6UFbVwpxDD8gmSdr/cnUDjLU14eBdHR279Uaf7u3hbqVL8mSMtRdfFxAx2fE4OK0dTDT5MHOpSPa3Bap42UFVTQvLTj2j+7JwZW4bGOsbwa9WE3Tv3Rdd2jSAEd1v5N4ML+VL4XOisWoY2UIe2UxXfzRr2Qp1K7tRXKcKA6+2uM7YYqk9LxW5gRjsqQeL+gPRpbozbMrXRsN6NdF90VU2sU2PfIUh9Zyga2SLFt0GYPTIQahb3h6qQlPMPXCfEhfJHBRHLojSo7BuGPVf1wjVm3fDqNEj0baeH/kzIbrO3oeUzBxkfdwDH7JTWpWmISBRbtuMOBNnhvtBS8MSC+9EIZOM04EpTVmbWrlec/Tq2xcdmlaDAemhvk8PPA5JltnCc0s6s7/r3oPm2tASNRs0QY3y5P9VlOHX+XdEpdJzxHGY07kqPGwNKMZVggbFro7kx9yrt0NotMS3Zsa9Qf/67tAzsUPbnoMwctgA1PEyh4ahCxYcfYaMMuhq5OtT8LfSg61XDQweOQZD+nSCn281nAyIkPpbMeLenka7SjbgUSziW60++flm8LIxhCr9f5Mx2xGaLNVVKbkgMK9B43EgO+SHxs2awMfBCKqkH11+pznNkLxkFCV8RDNXC3jVbY22XiZwKV8NjerXxZBd79ntH9mMj29KNtnIGq26D8So4eTjfSwot3DC7wceU6L+/bExMdHjPTPgZa4NdUM71GrUHM0a1iTdFkDdyBWzj78mHZRIbG74DbQubwlDx6roM3QUhg/ohkrOFlhw5DXSpfeUhtj3l9CE4na+0AD+tRuifnVvGBpZoUVNO/B56nLkQh5uTaOcSsMKK+9Fgzn/XZTyDVObkx0xcUTbXkMwZsRgNKnmhSpTbiCeYjYGaV8vo1NVB/AZf1WrEZo3qQt78pOW1XoiNiGZvSf00UHUdjGFho4JqtZrjJbNyR5a6pCd1EHvefuRnC7xBdmJ3zCkoQcMyWd0HTCc7Ht/NKhcHgO2P0ByGQ5NEad9xeR2FaHO48HVvyYa16tGeYUuatZrRNf46LnsMJKl63x37yToaatjyg7SV7m2RVHb4WOijarDDyI+Jd9H5WDbtM6kj/qo0rgDho8cgS5NKkJPSw8txm5GmLz+/QPwt5ALYgo+mjhrwaH+NMSSAMU+O/EvJhdUUE5ZgOYzjyBL+rttY5pQslsOShR0dZx1DNmM0RFnYHcvR0qgVTDpSLA0GcnF0yPrERCbzv6OBQWyWzpYQlnZAGufMkZTer0UFCUXxLi0rAN4lLy2mLhTVsYjzknAqvZuZHyVUW/+M+lb32LIBVEKTm/chYCEguoJcXYUxlamxFXbF1fTylIOl42jfe2hzCS69DwTj3ro2bUVLCgIkSX5cuTCw8LkgigHGwfWYSscyglcsPXme0QGv8OW3/uhWdcFSGYcfG4kJpdXZ5NpFU0LTNt5DYFf32DDhJYUaLbGC2abQfZXtHFWZ8kHnpEXlhx7iPDgD5jXpzb1jXleOVTqtxVpFPBmfjoHI1Vl/FaOhz6bX7NJ6/vTS1gSoBzPHJ3GzMab6BTk5pML7DjKga/viPbdu6BWh5Vs5cL1uQ3JyDtg4OwteBMYicDXV9GjgiE7F0pGFfGKcfKBdzBt9GA4kyNm5kNJ2wcDRo3Foi1XKPjOxJAqEnLBSkYuZGFGCzt2PpTVrTB+2zWEBL7HqjHtoK3jibuh2YgNuAMPSz1UaNofx++8Rnh4IA4t7gMdPtNXJfjNfKHwdqJEsOSCJACsNWonEqXBVNj1P2BIbak49MCXTIkMsOQCn3SA5qFmv+WF3oBlYU5rewrKLHD8VcFhoZGPD8FAoIbyvVfI2NnStkWcX9IbauSYJx56JguwxBlf0N9DEyp69XA3QZKIMuQCnzm/RVUTg/+4KmXaRbg5vwElzspoP+eC7Hlp0W9QyVoT2g618SZB8mYjJzUCg+o6Q4WROXlyIfsDOjgKwTNvjqfRBUH8y1PzWWKpy/xjZSofPD6vKyUDArRfdFbWD3FmNHb+PgrvQ1Mhzo3H/PqWUFEj57b1ZcHhn6JEjG5MtoOnheUX89/US8gFZZJNu/pj8SVF0tf4Z/thRuvB9x2ESOmbj8ALKyGgpGTQjpty/WTKZaX/yaDEbRESckFNuRwExj64+i1Bto4M/gxyga+iBCVy6OsufyhbAE34cXKBDyWyvfVGbkaqNIk4Mb8zJcbKZKf5aDhqhyRZZINgT+qTKvpt+yiVoTy8PrIab8Pkqn/Inh/t4wg1VT3Mu51MtkJ6vRTkkwvKtL5tl9+Rvi0V4cPuIdCnOeT7TkWolFTJ/nIZp24pzkfizdm0tqqw7Hda8ltxMpa18YbAqga+UiAku5M6mf/fOYGn4anFh0mdqQiRkSBiPNnRl9ZNDYPX3UPOdzsvxp5JDcBTUcGAVedl9zOJui6t8W/l+HLkQh6ezK4OoUAXww9+KnjTK0pCj6oW0LOpipehlFQVDKtYpFISVMlGBzoOdUk/09l+Z6eGkX66Qo38RDkNucqF7G84deSKghyIk+7RmqtD1bw73lMwxvxenPYEzayElEg54kT+fv+cCPzezoslznly5EIuJSL1LfSgpuOGLc9iZesrSnqCxi56EOha4dKrSLaNrLvTYKquji7bviFT7tVZWWOZU4t7gc+n5HzeCVmCw9iFPXPG4HVQIkRkFxY3tQOPdKT7xqcFb9lpTse3cCfbqIVFp5/JbApDLvBUVaBh1wAXv0iStPhnB2FByaJSOSWYeLXAiwhJtUDKt6PwNBbCueYQROYnPaWgZHJBABWBMQZueyY5rJX048iwqlBX46HV+s80rvyW8zCxmQM09cvjbmDBtoic8DuopKcOHl0/8KpgvjMoialmpwcta388D4pj+5xPLqhQXGFaZzoC5PstTmHJBcYPCE0q4eJbyRrlBR9CBSMhlCnxNPTuiIfh6eyzQ25tg766ALatZyNFmkzEfXmK3TcDFciWb9c2QlddiGoUo6ZKq9WCbmyBDv3WpuF4hDEJLnMxLwVnZ7fD2pOPyO7lIODKPtx+HyUjwGmkuDWvNbQEOuhzPIqewVwT4fXGXqRLfFi1WIbAxPzxiHFsQTeok843GL+Nko0yVLOy5IIu6chvsK7eG1EpEt3Jx4kFHaFBsjb30CMZkZAd9RQ1zUjXyvdEcLLk/uLIhRenF0FXU4BOsw9QXyRzwMSFs+pYQqjri6PBScgh+zmrpT34agY49IgSbukC58W/Ql3SJ33/XghPZiriKG69cw5fEuQqHOnqwWnNqH88LD32QvaGliUXBKoQmFXArqdRrE0Rp35DH28zSuAdsflTAsXY7K2lbIvIwZlxlaGtboQ5JwveTGfGfUQjL3PYVOmC0NgStqDK4eKSjtSGNjZfD5b6MOq1nJ6LsxMxtml5CLXMMfP0O5J7yXPEqR8xuLoV2Rkelpx4K3m+lFxg7Jlr09EITpTMffK3O6hoawg142q4FZlEWQJJiJRcYIgTA8+ueBmWLDdvubgytTol4EaYeuQtJeWSZ2anBKGNvzUsy7fGl3CyI98ZXOKXW/CyNoSOYwPcCaXnsveLkfxyC/zMtaFhUBW3A+LougiPFzWjJNgeq9/GIlM694wcl83kibFpTCNoqmtg+LqLMn26sWUCjLQEFKvzSyUXwu7spIRaB12XHpUl5UybsniG8pz5rX2goW6KMSc+IUU6HyJK8jeu24r0dIr3KC8YWskEAoEJFp96LVun1LAnaOBpQbmCLy6FxpM8k54/3QpHEy30WngKyeRD8yEbdqnIw+MVXWCgKYRLzx0IJp/FeOfw22vgb6XL5iA9fpJcyHy2AK5G2qgxZCcikvOJBBGW9K8PXWN7HH/I+N+y9fLvwF9PLlDienCgD9RNKuPMN0lS/W8nF0wrj0RoaoEgBF9YRgZDCd69NiBRrvog8sl8GKqWQ+fZF0jRSx7n173dIFRWxaRj4WVS1iLkQt5X9HAWQkmjCm5FKAYMorjr8DdUoaCtK76lMca3GHKhWIhwa0olKKtYYHXA99/UieIeoZoWk3T+BmOPlvgUxyiEGInf7qOFl5mk0qBUciEbSzpLtk8o6fjj5LsYWd/y9xDGP90PHemXFqoOJOebvy5k/EJCI8nkihG0ry80mHuU1DBp113ZvOcmvEJzY1W2fwYuDRAUn4XAqxtZQqYczxdnE6TJc8gN2POYA0f5GH8qljXQeQEF5IK6qRfOvI5SmLeMxHCExssRRoS3Z8dDm+mHii12UTLMjECcGoK2HpK5ULMcgEDZmQtZRciFvCBK1jQk89li5n7k5FvSvEwEfaCglhyuKCcTX76GkgEu6ExO9CdUttNlnyFssb1sbw2l5IJV9REUbMjJDwWzixobU0Krj81PJCW/+eQC37YlHkQoBjJ5gfvhpilJMBXKtHPCMNxNC3zHVvhKCTDzm5LJhVwMrmMNPdvaeBulyMS+2tIZmipCzD4jKb1nyQVVPupNPlhQEk+I+3YBTnqqqNZzFQVzkoAj5OpUGFJC12LKUVllCIOsmCdoYc9n34xKyAUxgo+MhZaaJrrt+aJAzuREPUN5Qw3YNZsoK2srGTkYVMsc6kYeuPstuVg9S/p0A7a6Qtg2GIWkQqWoX04vhkBVFX5Dd0qTOwm5oG7oi5sBcoGDKAZTKwqholkDN1NzWDn7dp4hF/hoPGM/u+WmWHyXXOCh29LrcuW+Evw55IIa/EccRcIPHMD1M+SCplMvvI8rkNHIuzso+VGFS9u5iKYoP/96ZuBa2Kirou7IQ6W+eU4+Nwh6lKD32/FVFkSXhnxyoc6AlUiX3zOfF4v+lQygomqOK59LKaXPeoh6JgLwq85HNBN4iJOxpLU3+AbuOB6QKkvU5HFleX/wKaBecvWDXIJDfQ95DB8LTVTqOh+Zxe6ploMoGN29tKFC/uQeJWWyZnLTcG1iFZLLgm0RoqR3aGymCYPK/RFVqJz78KxO4GubY+/DrwqkSXEIvDwVxkI1tJp6ROGNYmb0E7R0UofKdw90zMbvTSkY5/vjVrikVDfk2Hjo8PmoNO2mwtdK0iMfoY6pNgRy2yI+XF0DfQ0eGo7ZVOQLNqcWMWSAJobtusOSqVl3psKUksw6k84hsbR93sUiB8Pr20LD0BU3PjJlttLLckimoN+ZqU6pNxxx0gQ4HwHnlkNTwEf5QVuQLiUTGXJBqGWIzVc+FMhlbhjG+GhDVeCG7S/z37LSemUkolNVWxi7N8C36NRS/L8EpZELzcduRppcOW5uwCa4UDJq25vssSxQLp5ceLh3OjSEQnRceAzp8vMtzsWO0c0gEBph+sX3El8oJRe0zH1wSUoeyCAlF4S6rtj+KlLyYodFNiY3Z95k6mPPnSDZvIjT36KlsSaEbl2RlJrBXisOuSG34KKjDoc2c5EkXYODM9tAKBBiyfGnZM/kJZG8RinzmPVoCay0hKg69zlSyOaJMyIxoLozhOYVcT9S8RyKrNC78NXTgLprJ3xOUvSvxUJKLvAEtlh345viNo68QPT2M4LApjtexcgfIJiNK2N8oKXhhE1vE9lEvSi5kIfVffxoHaxx4qXidp2Uq2NhqUX+ccMbNrG9vWMMdNT5GPzHWZlMBtzYDCNKmtrP2kuyUDJJ8vTEbOhpUqy1+ZpM7yTkggAzdt+T29ohwqc/WkBXXRNDj0aQPZX0pyRyQRRzD/UoQTZrMA2hyXLbJEQZWNe3NrTMfHAjMEphm2VxuLC4A7QpKZ5z4IlcXwqQHH4N/ta6cG80GuEJEhIlH69OL4KJjhBNx26UvBWXkgt8k4a4Il+uL87CqZFVaczaGHyUkmwaWz65IKCkd7+CXNMQ4h6jISWqprXHIUhKULAQZ2PbiKbQNnXHufdMdVDpY3u4cxiMSF/7Lz1V6KtRIqwf2RCamjpYdfoZMnNy8GhhU+hpmWDY4bey5L3MEAWhWwUTaJvUwd2v8QVbGZgtVxOqQ1eoUTq5cHsnjHS0UWvEWsSmSmyQPFKCn6Gykwns6vRHZGKK9KoiQi8shrmuFnwH71IkVcU5eLikI9l+TTRe+QKJ9MCgJ1vgQPa36aiNSCzmeaVBnBWN0fW9oGnuj9shDDEj/QM98e7u6TSH6j9HLlAsvq6lPXSMK+FEQCzlrNIbCR+OzoGxrhEG7rhdpsqKvwt/ObkQcmcndCgx677olMwA/9vJBetGS5EoZ8RTHm4FT0kZtaefpaCm4Hrsl62w5Cujw6QjBdfFeYj4+haXTx3A0nmzMHnSRAxu4wM1JRWMPRhUcqAph8LkgijsKNx4SuDVmK/QLwmy0beSPoR6zngcygTfJZELeQj78hqXT+6T9atXTSso0X3L3n+/lDbj1WFJUk/JcJW+mwv2gBd7oGMx5IJYhIcbh0FL2gZPxwLths7G5cefkC6d/xeH51C/mb+rYMje4GLmKhv7+3qwX6FQUtPCyRexcuPLxs62ulBhEnsTT7wKTULso330PGX8pmyGRbcjWEMQdnsrJbDMNX0suid54yZPLvh0WqOQyLKgNY0N/oRbl05izbIFmD5lMgZ0qwmBMo1P2QqbY36cXIg5MhR8dqzlMP/YswL5KYTc9Fi8eXwbh7avxbxZ0zFx5CBY6kuqRXiNNxTta3GQkgtu7f5AUqGg6e7cOpRoqmLaoS+SN0IsuaAK+55bFZJ0BlFHRkJAc2fXcCjGT5iIiROl/yaMRj0bSuB1quCWtDqgRHJBFIb6tpQYGvpgyNjxBW3Qv0GdKrGl6cM2SSoaJOSCEF3X31FIpFIi3sDHjA//9vNke0OfL2lA86mKKcdCCgWnhQ90zMXJCQ2hoqKJegNGYoLc8yeM7g97TTVo+/ehJPQ7Rjz3M+rb8GDo2BPf8isiCuHLrc3kWFXQbNIOCn4V5zL32znYCVShUWOi9FkSckHLrA7exMjrYw42tWZK+8rjTLyEXMiLf4muPmZQVRaiRtcJOH/7OTllRdLxu+SCmjW2vC3Y85iPP4VcUDPCrIdpco73+/gZckHHfwbCpWQWg7RXx6HFU0OlYdsV2shOOg43bTXU6rdN7roYMUEfcP3cEaxaOAdTJk/EmK4VIVRRRc/NHxWD+BJQ3IGOEogpcC8PNRU+DtwtOHshIykKT+9dw471KzBj6hRMHN8X9loq4FWYhQgKGlji69xsOBgw8mqPsUt34fkHCiLl1uGPgXWhJtRBx75DMUFOB8cNGwBzHQGcG4/8/v7MlPOoRPPBqzQbUexz81H0QMe0j5dgSAGqgWstjB2nqK+d6/uSXOph8bU3CvpZHJ4saQx1VTVMPRpYkCAzKOFAx9zMFHx48QBHd23E3JlTMWnieNRy0oaymjeuhzCEiAiXf28BPo+S1PuKyVFxBzpe39gHGmoqmLLzbqFqLODr2aXQ4PNRc9IJZDK6kvMVvSlBV+Opo1Gf6Th/7yUSFeapFOR+QRNHDRjYdcXHEspYA+5sg7EWH40peS9MdOQFXoKzlgCa1cZSQiDpO0MuqOuY4cyzgvNOmIrI5Y10wdeshktx6aTV0stZKehfzxUGzrUQEFk86SmP0siFXguZ+ZDrXwbJDfkekzYb5ZKV4smFAzPbUeKqidXnXhaZ73e7x1KiJUTjJQ/Zkut8csHWvxuC5MhCFvnkgnFF3KLkrkDLRFjSozyEGma4+CaB5kV6mZLxgXba4Nu1RlJKwQuB3LRovHx4HXs2rsSs6VMwYXh3GJN/sm4xS0ou5GF+Jw8IBDo48YxJDCW/Kw5JUYG4f/0cNqxchGkUC4zv24CtGvKb/hAplABnRr1HNWcTWFbrgaRUxZcSzNlk4zxp3dT9cJKpmpReLhFSckHo0A2vKNGU75Yo5jgq6qtDzbY+ho8ZJ6ebEzCogR3ZYV1MuRQDJh8pQi6IYjCwoj75AVt0HzZa0Q8OagB9sus1J11ESkYukj5choO+FhyaT0IcS9iIcWhmc2gIdLHlGrO/PF8mcylO+oib549i1eK5mDp5Mvq0rw0B+ZPRGy/LiAkJuSDEmvMfFUicjJODYaQhRPdtgdJElHFjxZMLSQ92wJium/q1wCiFsY9Hm8r24GnYYceHMIWkvTiEPDkIH7IVAn079JuxHndeMp9HLPjsZeS92bDRFaDJhEMkJ4okStxbmhdTXXi0nc6eA1HcgY75SDxGYyM7WmvGbSTRnOaTC6ZV+yA6SfHctuSnB2Cqqwlj78ZFxta+uiuNzQobnn+l+Ky0sYmwjyE0+EKsuhCITFmlkQTXN4+GtqY2hmy7iFTyF7lBp9HQzRQ8gT46j12CG08/IDVb6m+/h+QzqGamDYPa8xAkrRqVoLgDHYvZFpH4EYNqOkNdTQj/1sNw5PJ9RDCyLjVeYS+PwJnar9NvmWSei0CMy0v7QkfTCGNOPJVtt8pHztOVcDag+ey4DTHkYzJjP6N7bVeyT7qo1XUijl17gmhK8L8jKixy47+ika8tzCt2RFR8kvSqBB8uroeBrtZPkQvitA9oZ2kIvoELBowYpaCPI7o0IF1TR5P555EgV2nxv8ZfTC5kYkYzK6gYN8er+ALF+0eQCx+3wkLAkAs7SiAXbsFPRxmWtX7/LrmQ+qgkcmFbIXJBjA9HJ8LeSAsqqjxYOnnAv2JF+DgZQYkS5p8lF3LfbIGFqjJ0Wm8pKK2WIRcj61qAr2OF+4FMMFMMuSDOxr1VPWGhpwFlSsCsqV8VqV8eFloop1Q2ciH+wU5pMvwb6k08VWC0y0wu0K05qTi5pBclnZJEnvnHBMptmbdZtAZ3d4xnyxx/+00V408WOoCNARNotHZin6XM08WVj/JvZvJwZoANPfM3KBu64HlwAkQ5MVjSyJjdviDUt0KturXZfVpMYm5UcyQipQytPLlQodfWIp/V+3Z9NVzMddlS8vx+y/79FLmQh48burBVFb/RWFaefaMgV/lgDhHqV9cDmoLiznv4M8gFCjpWt6F1VcGE3W/ZwLVkckGMj1t60b3K0LMrz8o1I0Py/+p1m4lIafJWIrmQ+wLVTHngqZvA19+/SBuVqjbCvqeSctkSyYXIt/Ax58O/Qz65IMKNqZUp2VbDgstJBYEmg8LkAsnrzsG1SD94sPHxK2YcldBlypZC1RbFIPs+qhpT8u4zGmFyCa483lxczMp653mHi7Qnir6J8pSsq/mPoGSdcTolkwtb2upREueLM3HZsoAlIz4Iy0c0hRbJrQolQXaVOuBelByZ+P+QXEh/XRK5cKIQuSBGxJW58DDXgyolvGZ2rvDzr4gKFFypllP5E8gFYNuImlBV4WH3DcmBjeLEp+hexZ4Sd2Vo6JvDuzwj+57Qof9X88snFwjiHHy5fxTN3Q3IlilBXdsYzcbvQbx0Ded3r0JJrwCunj6F5Jb+VaqEIQsOFelLYYjCD8BTXQ38xuuRJA34JShKLsS/OAU9dT5rPysUo6/V6rbC9U9RxdqvAohwbUpV0mUeFl6Kg1yRAf2pGHJBnIQV/WtBT4MHNXVduHqVZ59lqcdDOdV8ciEHx8Y1AE/NHCs/U5tyjy+OXDi3sC2EaqqYf/hlEaIv6sZ6CsJ58B95UJbsMwdKLhzQEDp8FajyNWDp2w43v3y/FJmJIWpZqMPYczi+FSb8pHh3ZTkMNNTQfta+IlUmoujbqKwjAM9vCFKlb9SLJxfSsaIxJalaRcmFAX8ZuXCR4iN1mLT+PrmwbWwjCNS1sfMqU22hON+hJ2dBR0i6PusO0shH/iy5sLRn8eTCIHtFciEz7AnalbcFc2aEQMcEnr5+qOjrBnUVJTlyIQdTmtlBIDDH+bcJJZILiU+3oxbNF7NNQ9/MDr4VSCe8rOn/VWTkQmrIC/jb6cOxwRAkpxVKhkQJWFjLAHyeOw6EpSjIbbEohVzI+7wd7rpCqOrawo/pRyHdrFKvKy4FpbJ2uAi5kPcZXTx0yf7pwr18hSJ+sFKVulh8MUiyLSg3FrPJNwl1fHAkKAk5OQHo6W0IgfMgvIst6NPb86vgamUENbKpRjbOKE998nSi/IDinNEbykAunB4KYw0hum379l1yIfzaWrY0XdPEodix12jWBy+jE4v4tyIQ5SL28030a+hN9kkFfA091OoxG5GJkiqFkFMjYabFR/u5FylhVNTVlM+3KC7Uh1PzCUhIJlkrhVzIvj4FVtpCVBhzgfQsp1RyIfL2Nhhra0DD2K7YsVVv3B2PQ5hDo0sbXC7W9fSAOl8HW+5GUSwnvSzFgz3ToaOljT7rz0q3MYgR8+kORrb0pdyD5oHsrlfzSXgVWXwFnTxEYXvhZ6QJo9br2XL+ApSNXGCQnRSOTVO60PrzKZ4Rwsq3GS59JR9Ekxj4eJuk0mDkhhIqDUQ4OqsLtLXMMO/6K4rfFQebF7ADvtQ/7aarEZ3I/F6M9Phv+GNUG2gL1aBK8ZO9fyvc/hTxXZI8O+oDantawaZGT8TES856yMevkAui+Jeoa6FP/k4fPuXJPhVa80rV6uKPS2+QLh8b/Y/x15ILOa/RxLQgUSz2n5IQg/c/+66T+7MRG3ACtppKqNRlMTKLERgxBcuOfCU4tCdHmf/3XyQXsoOvwkdLBVpurXD+VagsEAk62g8alNT/dOVC6BG48JSgVnEmYotoeiq6l9eGBrP3P5oJUIuSCwmfrsFBlw+LSp1w90u81EGL8Oj3GhQAl7Fy4fVh9iA9Zk39u69GWn4/KFlb3KlymcgFCfIQ/fEB1s8djfJmkjfwfBMvBIQn4emBWeyec+Y8gU4rHhej6FnY08eD3dekpKqJY0/kti+IU7GmkTabwAst/fAhMg1Jn6+iCiWASgJTCry9YGFqClsXb7TqPRH3AwqqHkojF8SZH9HDWXLoomWF1jh4/hZevnmH83tHQVuV+vqTlQsRBwbJKhfG7rhVEDTKIMaTrb2gSc9Q0jTHmD/24+6Tl3j78BIq2Ei2RfwZlQsXJ1WCmpIa5p4JY9eo1MqFo6MhpCCq6oI3im8fi0FplQsN7AQwce2Cb9JzBUpC2ckFMZ4vb8RWLow/UOgE+2IqF05NagQVVUP8/kTxqw4/BAok6lvzYGDfBQGpxY/j882NbOVCw7FbiuyDz/p4ghJzVZg0ny9NeH+MXJBATHbuMVZP7gJTdRUKVMYhOFWagP8kufD2ynzoUUI1cNWlv5dc+HiTJReq9Vn2l5MLOZEPUcWAD02HBjj6qGALROr10TCk3/86uSDCsm6eFGQLcfRxNPLyUrGpV2Xw1E0xfMsVxOWflZDzAo0sBeDLKhfkQHb16aV96FXPGWrKAozd/phN0lYPqgs1bQsceR70neCyZIhTLqKSNh887ykIoySxoJXiKhcuU8AngF2L6d+viCgRZMuWNWErFybs/6RoO4qQCyK82zUUunx1+A9cjY9R+QRyLua3tqFE30dKLuTh6pyWEPD0Me56hMIbyuLIhWvre0NDjezDVuZrDIpa9OH4fArCBWix4Dzy962zEIsQ/uE+lozuQMmQKvx7LFTYJlAscj+zlQv6th3wPqGkyoWtbOVC/ZHrkVGovazPZ2BL823S5HfquyRA/TeSC/tntIVAqIHlp5mDEOXnm2z11uHQFGihyxbm0L2fr1woG7kgxgHqi1AgwICFBxEttSF5EffgrasOG7nKhXkd3SHga5PORhabZOSlhqFvNRqrqTc2XnwpOwwv5+Uq2DOJY37lQuQ7VHU2hlnlLpQMFapcyAnGYGdaN8OauBlLiZv0cokohVwQx5xAJVoPfuU5CJHt0S4eRcgFcQwGVjKAGr8SbgYXHLZYPCjxPDeSbJ06ms29iS+nZ1KirI/2mwvmQJz5Dt19jcEz8Mf2629lpMGLMwuhryUoW+XCD5ALSQ93wkRLA269NyMxTaLjvwJxbjre3z2FES0rkKxoo8vGR0ih+C3yzu+w1hGi4Zi9SChUuRD16izsjLXJLsyXbMEpkVwgu7q3N4xIr5ssec6Oo9TKhWcHYa6jBecuqyjxLC6ZLgtE2DuiCs2zAMvOfilSuXBx7VBKxrUxac/1ItuWPj+5hCk960FboIa2k3fIDkIsCeLkc6hupgP9KtMRID1PR4KykwsSiJEQ9AJbZg+Avb4Qel4D8CoiGcEvDsPZVBs1ey9CQgmVC5eW9IGOpgGGHX5SpHIh/e4C2OtpwGkw84Us+TXMQ1zAE/wxqSsrdzYtFyJQfhtKMWAqFxqXt4OJX1tExH2/cuHe/iksuTBp2xXZWRQMilYufEQHa0MIbZvjRVTi9+3CPwB/ceVCHl5eP4FDhw4p/Nu2eDyYQ73cmw3GwcMn8SUuX3lEyEhPQzpNcmkL+GcgI+YzKttoQMetEXsiuwJIgZ7MrQlVJVV03BxQkPj+IrkQduUPdvtDvVnn5O4T48v+XlD/BXKBCVg62VGSrOKByyGKb0OyQ/fARV0ZptV/R6w0wC9MLny8uRraPGV0nE39lAUnebgzvRpUykguiOMeoJKQOavgN+g61sWHiBTk5mQj5t1xeBhLv9xQKrlAiVBUFDnfgmfFXx8PPUqeywkt8elrFKLv74JQWh1hU6kvguMzkJubi4yUeGz8YyfCKBAJ2NIFfKbdcioYvu0GJTCS1rLDbsKHPYjwN1hX7oOotDzc2DKSrYTgeXTHVzIEqalpSEtPR0ZmlkICWhq5IAo8CidaY6ZdJolgf0dz9/z4GMmZCz9JLuR92go7gaRd66aTEZOWSUkIjTUhGOvHTcHnxCzs7e/CzqGuV2tZ+X9G+BtUstP7KXLB3K83vsqdQi7OCcEQTyGUeK44EUiJK/2hNHKBOSfChZJlYbV5iC5MhRdC1OMjLLnQcPz2Qm/tczGothU0TNzx4GvpwW/ZyQVK9K5OZtew8di9cv0WIz3wDKoYqcl9LUKMkEOj2USn8qz77NkWP4ds9K9uCqG+HW58SpQbhxjZGak0ZnKU76/CUkcA01qDkazwhhh4smcqeKo8tF6Ufyjlz5AL+cjDpOaO0NB3w6NgCjKZH2c/RA1jHoxrz2c/MVmA0smFz7fWwkCoirbT98kIEbEoB6+29ISuqjKsvkcuLGnyU+RC8tf7cDbWgHvLSdJKDgZiJL/eAXddNQj/RHIh+sFeSjSp30xVm+w+MRIvDIP+T5ALVXssQKrc+oqzP6OtszpU1P3xIJz0Oi0MXcuTzDs3RkJWQXAjyniEBhaK5EJhfYj+cI4CLR4ajtjM9vXysr7g8bQx7OAT6mPx0vBdiELQzUMTympeuMkm6tLLOQnY1tkRPLmvRYiT36KBkQZ4di3wgQLd789K8fh2eQqMKEFvOm6P3JkLpJ/fTqOqiaDgaxHiTOwYWBM8dTvsCkkokCFRBn5vYS1HLgChzNkptF4eoy8hRU7Gk75ch5ehJvhy5MK7Syugq04yMHSNYjBNfdg1uQ34Qj0soYSR1cVCiyBOC0B7GwNo+XZBvLS9kpGNIXWsoK5njctvYuT8jBg5GaQT1H7Sx+uwN9KEaY3+iCuUGD3fPxMalHi1mMd8elEypn8juXBv52SWsGk5+5AsqWQhysKK3nUg0LLGjueB7HaWv5ZcyMOM1k4Qqlvg4rtE8iOS23JCb8FTgVwA9k5tBgGfjzkH7pMNKngSKQZrC1PDXsHfzgAujYcjRa4iIfPxMthqFZAL4vRw9KpCemTkixtRSQo2NvXjRVhSsmFcdzTiSzkTQoZSyAXkBaOnL/O2swpuBpX+lr64Mxf+6F0eAp46tt8I/L69ywtDKy9DWHi0xahm5aFpVRGPI+Nlz8z7vBMelMAZdtiO2NQCG/f0xBzoa/4CuXB/JmxovhovYE7yl1v92DuoTcmZ0K033lF+oTAvP4JCCiKKPo0qBlowaruBLZVPCr2E8pY6cKk9GKH0nIK7xXiwfzy7Zaz3omOSxDH/zAW9yjj7Nrpgq5YoBRs6u0NDaIZ592MkWwFKIRdE8Q9Rj5J1oXNnvI5O/umx3ds6kPrHR/d5R2RfqWAhzsbCnpWhqW2E/Tc/s+Rf4QrzzNBnqOBgAo9WExCfnCa9WgJEwehS3hiaupVx80vBOQSinDhs7OIGTZ6wjORCPvKwuKc/tHWsce5lNOK+PYG/ozEsqnZHeDzZNOldzBpkZTLxjhhBZ+bBRFsDTj23IDJJjpARZeP0xAbQ0TDAiLPhSGXNluJYIYrD1Lqm0DBsjBvhZCOkl4uDOCsKI+p6Qt24PK6GxBb4J8opz68eCh2SB3ly4emxBdDXUUfvZQWHVYqpT8/Xd4CZFg+V889cECdjdXNraKnbYvWTiBLm5Z+Fv/5Ax2JQ0raIvMC9qO5ij4pNRyE87afNQdmQl4HtQ+tAWZkPr5ZjcO9LDHuZ+b7sxS3TYK2hCn2fThSwyvXjF8mFtJf7oa9CiX7tCQjNkNwXcHc3qttQYvkL2yKo1zizoC31QQnVus1CQKJE8qLfX0MXcsrKQhsseyApJSdNKUIuhD87BmN1FXi0mYpU6cGBn69vho+pRpm3RTDBzKF+ruzJ+0xib+FeEXVqVYGFNnOIIkMifIdcyM3EtFb+sPOpjeFT5mH54jloX9GCPSNBYO6Lr5EpEGcEY3QFSfVBOWU12HlVRv36deBlbww1zaq4np4HUfILNHfUZJNrgZETeo2dhWWLZ6NVVRf6HT1PWQ/jD71nSYcPZ5exp4YzlRBahmawsbWDo5MLPH0qoFmXEbj4XvJJo1IrF1IfoaGh9KBI+8qYuXgFJg/pCDs9Nfbaz5ILzBcDJjW2l/S5HA/WzFgb1IWHnQmUlPVx+Usmbi5qDL5yOZTj66Pl0BlYPG8KGvvbg/n8KNPXHyUXlJR58G01Fo8oEBGLc3BkQU9oqKjAqcsa2RckSiMXmEBvXnuSARUtjFpzDhn5h1CSsQx+fhmnbryU6UfaxyswpGDevOZQSpzykJ0YjcRMyd8uregPNVUBqvdegE9xBQlLSuQH7N19FtHSvvwIuZAW9RyVbbShZemPg88ln1z8dncvGrqbQJVkQP5rEeLUd+hKAZuKlgNWnHouC9iZb9O/vH4Y1559VdDzknB8XjeoqvJQtec86TgouT6/CY0q+eL6ywjkZUZjdkNrMJ9CajVpGyKSSc9o3gPv70N9N2MIdB1x7i1TUs60VnZy4cHxDZi/8woSpGWaWRH30MhJBzp2HfAxUfpbcThauwihYVITj0NTkJWeghR2rkonF5I+34KDoTr0XRrh2rcUiPJScXHDeFjp6dFalPvLyAVR8je0YfZ86jth5dUAZIvy8P7KZlSmYJ5P8igw+fPIhYxP52EmUINRpYH4nCxpM5R8Vn0nPSiXU/5hckGZkv3a/RbhY3QqJZAx2DCiATRVePAbcwFJzJu9nHhMqecCNR1HbHst+TxlVnII5vaswfrJ/G0RotQozJ46BxeekZ9ghSIHd7cPhz71tdeSS2yCk/71PCoZ8qFhVRO7bn2SyW5edjLund2DG5TQygjkEiHC7kmNyDYqo9WELUggO5Wb9BXLhjeDOj2LOd07n1xgkuWHZIe0KUCs1mcJ+236/NYTgl/jyJ7DiP3OZ0YZpEY8RRVbXWhTUnLwGVN+mouvd0g/yV4yX/hg9FNSuZCH63NbU9KjjbbrHrD2TZyTjhNLBrJzXbAtgkQ86RGa22tCRdMB6y6+ZYnowPuH0drflmRV8WsRzGdjG9rogadrj0nbriOJIXNyUnF/3+/wMNGAgWtbvI5gDt8U4cnGMfjjwHV6tkSGYt6chruhJhybTSz18Lp8nFrcm5JUASp3+x3vopm+ivDy4hY0rVIel58EI5dkZH5zJ/D4umg2bhNCmH3KZBeCHhxEE28zCHUccOJ5wVkd/0ZyISP4Fqoaq4Nv4Ia5++9SYkG+OysRVzdPYO2LfY2BCIqTfEr4r65cWDu4Gq2HBpadfCWposiKxIphTaGupgIrOXLhy5X1lPQIYOLbGmdehLPJYULgE8zq2wQLD99BKvmnRh7m0HWqj2dRkvOaUkIfoU9dF/CUC7ZFMHr7hOIffaEAVpSU3v7EfMmEISeeYXyHyuCpqWHC1hsy8qhUlEYu0NhOLOwKDQEPTYetkJ5cz0CEpOCXOHzmNjKlRG1RcgF4dWox9CmZ92g8hGKCAhIkJykEp46cQQglzAXPE+OPoQ2hqaEBLXqeZ7PxiEsuIEfESTdQ31ILfJvWeMASHWJEvzyJthVtwHyd62e3RYjDdsDLQAN2DabiG8lGagqtNbPY4kycnlIXukJNNB+9DhEp0r3+pGvRXx7jxKnLyP8CRsnIwdEV03D8HnPuF9NmLl4fnMIeZllj1g32bIS8rASMaeoLdS1j9Ji7H6HMlz/Idr29tAm1nQzIX1XE6deREiJBSi7wKGazqdgGRx4FUQyVixenl8PJSAumlbpT7C4hKEojF5iqtUuzGsBAXQuNhq0i+5B/kKQYsV+f4cTxC0hO/37MHv/pKspbG0DHpiJWn33JErC5GXE4RrbURk8Am0a/43MsybEoCbtnTsXui09l8vL52kbYm2ij3uCVZTj0UIRNY5pAU12I9lO2ISo1CzkJX7BkWAtK6pmvRQhKJRdeXtmNBdvPIzyRsYPkcaKfoJO/BcVCjVlZys2Kx4L2ftBQ10erKbsQFJ9O15JxZcds1G/ZF/GJZOdSPmBQZXMI1E0wfNVxWjuy05QDPjy6FN4WerDw74RPsRKi5tP51Vh78BqiUyVzmPjpLOrb6UGn4mh8/C5RlYOHK7vBSFMdjs2n4mVIIrJpTg8uGMTaNSaelycXYp8fh4WBDoy82+LS+2jy4Sk4+cdoWOobQI3iUhm5QD1JfrwMHqZasKvWEzc/FFRPZSSE4OKJgwhhiKYyxKV/F/4n5ELci1PQpmSt7pjtJCwFk5H7ajEsBCow8WyLb8mlL+GfAXF6AKa1r8zuey5HiZWhqRl0KOFhkiwL1+rYdz9QUUFznqKasRrsW6xCklxwmfZ4J5uE1f9d8asQcQG7YE1Je+dpJyTXKWHc2r8Ku2fJ2KE86tf0g7m5HTqMGQ9LTVKwoyHfdfYM3l9ZQUGyCuZuvC6bv6zYTxjYwAcaPGUoq2nC1NSQNWJ8XQsMWHKMNeYSFCUXmNOLZzHfKVdVg6l7FdSu7AETU2eMntoDxnxLrPr4fUPFICv+GVr7WbJnGLBkwm/loGnqiuljurCHPSoJq+NOHBNoivFs4yAImKROWR1rr0eybz+3j20NTZ6kMiH/n0DPAn3nn2LPXGCQEXie/ZQQQzrI7qOA36rKIHyRHrTz6swqeFpSwiV/D/WFmYteC47KSmSz4t+hlyvz2cpy0DKyhLWVJcyM9WW/M3Zvha/xmZRQX6N1VKX7lFFt8B4FcoFR+htresOY5Cb/WUqqGvCr0QxW5PSU1Oyxk8bM/EKcFopuflbsgZMaLqMQIgsesjGqtiFreJw6LJQl7WFPj6GSEyW/SgXjYEgVc7c2eBmTQ8H7HTTwMFGYb10rX3SqactWZGi12s5+cvO7kJILJh7N4O9sDDU+BYhM32m8Zp4NcP1LnEwu84LPwo3G6tJ3Z7FvRqPfXUJ9b2s2MdExc4Cvrw9szfWhTDrVaPwOWZWCOCsc0+ras4SYUNcYmnxNLL0uSazE6UGY06kKdAWqFBwbwau8H9wdLNl9q/pOFESRU2e6E3JhGQWA6ui16Z4CuZAa9Q5+lkJU7ryoYA+aOBuXllECosOjcanB0FAPqvRb/zaTMamLN9QMOuCtXBL0+cYW+FHiqkLzbWLvDl8fT3IClKjwNDGCAqHcfOKkFOTGvcbgOq4QMgmiUJtkSxuqqkI4V++MNxGSwFkUcxedqzqwX5vhaxnAzIgSWKYaxdwdk/a/ljtDJQfD6lpCx7IR3sYqkgs7OtGaqVfEeemBjtc2j4GeUBVaJtbw9vKAHiXfmsbOmHrya8HbEmphw8gGFNgpQ13XEAY6FljyPJzmPw9XxnuDL7DHjvdFyQXkJWP38IbQIzutpCKEvrY61A3sMXrHITS0JYc64LiszDnn1QpYC/moPf8pyTTTkBivVrSAkG+K+U9/jFxggo73+8bA1kCIckrK0NfTAZ+CiUYjt2BIE3toWffBF9l2gtdoakN9qzaH/Txn/mMy3p6ifquh2kiSXbltCjlJZ+Cpx0fdwbslpAMlLIdH1aXgXxX61l6oU9MfluY2aDdxJpz01dFv++cykQshz3fBSlsDbfoMhzMlqDx1HZpnAfuJTKfafRAg23IgRuT1ZfCy0IYS3xBVataCu40xvBoNQuuqFlCvOg+RDLmQEoY+ddzAp0TextUb7o4WLHllW6kbHkTkf+JNjDfHZ8PLkvmePwWIbt7w8XaDiTZzjok+pu1n3r5/v+9JX26ivicl9ox+6hhBkxIGQ7uKWHl4Dmw1dDDhbD65QBAnYHq3muz5A3wdU3j6+FLfLCGgJMmqfGt8jGbeHknvLQlMwEz6aalL80P6aWBAiT5Pg9XP8Z1IHg074BVTHkq3iqLvoIOfNekmHx6VaqKSpw1sPOqieyemoqEiboZKvhbB4P7eqbBm2lQRwMiEfCIlkX4tBmB2ExPolO+GdFmlgRgxd1ejOtlb1nbqG8NIV5PWShnm7vWx70Uc6TxzH/nPhc1gRImYprE9vLzcKMhXo/92xIrTLySVDd9BbvxbDG/gxfpqNYEW6TzZBTUhHKu0x4tgyScjRTH30b2WK7t3n6+pB1PWLiiRTXXD+N3PFXzQptGNoaFniXOU8MqTC2uaG0GoVwvX5MmF7FT2G+5GbvUkhP131kWUHIA2buYwr96XkmxJEhFwbzPZUSH6LmWqJ+TIhcyrqG6sAcuOWxXIhaktncm/VsL9oBTZujDzHXxpISraGdK4VKBjZAoDsiVKzJlPvi1w8m28zKbnZSWhfSVL2FfpjWBKHBS6LE7F2k6+0DCrgnsK5IIYK/pUhIaWDS6/o2Q2f7rygjHCVRcaTu1lZy58vb0TnhY64GmaoEqt2nCxMIJ3w/bo4qYB57ZzZOQCLRzZvkYw1eJBWYUPY1NjloBQN7TDH+dfkO3IwI0VA2GtL4TA0Ak1alSBrakJGg4cjSpWWqg25wn7tQgWonisGNyItTHKPPK3ZsYQqDJrbYy6AzcgpAyfCWVB4xle3gCarr3xtgi5QDFOzHsMbVKB/IEaBNompJs+cLUzhyr5UquGYyA5gFHy2Ukm0Vu+/ZqMXBBnxWDzcIpj9IRQ5WvD2cMHni527Ji1Levjamyqwlvcz6cXw0yHWUMBhm6QEEYFEOHovC7sCwUjWw/UqVERpua2aNm+K3TVBRi3+arsPJMLK7pDW10T6y9+UiAXMi+MhJm2FvrsKjjQkbE9wxu7gaeqCj1DI+hYV0RQmGRLa1ZSAIa1rgIdiiOE+pbw9PaBi60Z+Go8eDYZjojCslQEOVjdtyK0+BQX27rAy80e6nweLEk+74YWnGmQ+OY4WlV0ZKuxBVqkq4Y6UCW/qm/th2UXP8o+e8gc5trHxxjuXaejXXU3CHl88mNakrNzjJ2w7PgT2bYrhtRr42EJy5r9EVOYXCDkpIVgXMca0GXWlWJkT29vuNpT8kxjc63bD4Ex39dtJiZ6vG0cvK2ZOEeZ5s8Yelp89lPNLjW740G4dDsM5S2re9RmP+FqaOMCTzcHitMZf1AJ++4GSl8clI7495fQyMeGnSN1XQNo0JwaOVTBwu1TYE+2dvrpMDBfyWDk5N6sGhRX2GH1w2gwXNyDQ7PZWFrTiMZJ8YwhyammgR1G7H7Jbk1hkBNyFV2qubAvC4Xa+jDU02Bltlav2UiQ6nnY4/2o78N8HlSZ7KIJDHWZM+YovnOsjI2X39PcS9bp5e6RpMPq0DG0hA/FfQbaQjaPWXz2ddnONMgOxNR2ldgDggVauuzvtYwd0KZdW/D5ipULjE3ZMqA2TDQlZzswX07RpmeN33eMfJERao89inhZpY8Yu2f3hZ0RMzYdOLh7wcvdkXJWHrSty+Pai0KHIf+P8T8hF0TZGQgODEQUOQMFiDIQHhyEsKgyHIz0JyE3Kw3hX55i28q5GDl0CMZOnYfj158jptg9ajmIDAlEWIx8+ROjo2nseKLly20Iotw0hAYFknEoYHBF2Sl4deMwZk4YjYmz1+BJAMNWZSCUxs18BqUsyMlMRhA9Lyk1PzCSIC8zCe8eXMCCaWMxZOgILFi7F5+CowsFwiLcmVaJJReWvitIUpjfPr18AJNHj8D0xdvwJpSCqexkhASFIkXeg5QKMdISwnBh13KMHD4CCzccQlBUAnKpv8z8BDJ9kT4wJy2BHUNgUAg5ColS52Yk49Oza1g2ewpGDB+Feat24vW3KEqw2D9LwTwjErePb8GEUcMwZvLv2HfxKaKSJAaEBSVIyTFhuHpkM41nOIYMG41lW44iIDxGQfmOzO7AvuVXs26C20HRiIuLQ0x0GM6Nq0DJXjl2O8aBdxEQ52aRXAbiGyOzDHsq/X0+RPT30Le3sPz3iRgxegpO3HqJpLQMRIYG0/jCkJ7ff+pXXEQoAqmdkEgKIqWXmTElRIXi27dvCI+T/5SOCOk01utHN9NYh2PMpFk4eOkRyVkBC58aF4azu1Zi1LDhWLjpGIKik9jfsM+QO0ypVEjJBbe2KxEWHYTjmxaw8vPH3gsIj1f8vBLD9kbQXBS5LoMYmcmxeHzpIGZNGInB1M6sJRtw+1UAEgox3DmpMTi9QyIr8zedRLSc/OeRTgW9voXV86dhyODBmDBjPg5feoDQGHJ4+fcwchUUVKR0WJyXg4jQIERImWgZRFkIfnsHi0g/xk6cjeP3PyElM4fmMAKBIbGKh2cxMhQbiStHt2AiydnQEWOweN0evPgShBRZ4Px95KYnsHo1Y/xIVlaP33hOAZ3i282MlDi8uHIAsyaOoueMxYqdZxEQmVDEBsaTjASFypVTSpEWR9eDIpEhC8bJHr2/izULpmPkCNKjNXvxNqToZ++y02JxY/8qjB05ArP/2IvoNIk9yEyIoPbynX1RiHPS8OrmMUwbMxxT5m/C88AY5OblIjosGGHxkrcLLHJSyP4FIYqpyJBdiqG2Q5Ccbwh+BOIchJBMLJo2BmMnz8fFZ9/YT40mkq4HhTGfuJI9BdG0/sGFSo7FFPyHUH8iE/L36UsgFmWyfieKkWnpdWaP7bu7pzBn0hhMmLUC9z6Ekx3NRERIMK1fAWFRGvIokQsNDiZbkInEyADsWD4Lw0eOw8bjd0iHCwe2eYj99gqbFk3DqHFTsefSc/bk50SyR8GR+XueyfYlxuDemT2YNn4URo2fjt3nHiKm0HYEsYiZkyCc3bMaY4YPwbBRE7Fyy2G8DWBsbdl8DPMs5usVZ3evwuiRo7Boy0l8iyGblZuKsOAQ8lUFJ6YzYL7e8O3VLayaOwVDhw7F+OkLcOzqI4Qz+lpWZ54n0c/F00k/J5Gu3PsI5tNaKfEkj6x+FrSTFh+MM9uWYfyYcZQQnaOkMxXpSSRbwZFSIksCcV42ogMeYc28yRg5fiaO336FBLIXqbGhCAlnkhDFvqXEheDqwXWYSH5jBK3DznMPisiLiNb1C/mpFYyfGjkaizcdQkAYQz6UcZyE3IxEPL/C2MjRZBdm4ej1p4hlyBO5JjJT4/Hy+iHMJhlk7MLy7WfwOYIpNVd8TmpCFI07tCCJYSFGakwIXWf8p9z95DPio8IQEhbFbs36LkS5iAkLIX/FVD5K7s/NSmX1KJb5xJ98E2LSD9K7UOZtp9wfEqPDERwSWZSQo3uSyN+c2/MHxo8cilETZmL/ZcaXF25XhJjwUIRSH4rKEo0zNpzkg9a90N9SYklugsNkSYMEeUiICEZwmFwFjziXrn3C7j/mYszYSaR7TxFHCUki3RfOyLxcZ8RkA74+v4rBdW3A07DHqBV78Dk0pmBs9PdAslFLZozH+KnzceFZANKyssg2hiAyieygXBdzs9IR+v4O1syfjmFDh2Pm4s14+D6EbFqZvLYUeYiPCEFwOHMQquL485GXlYJPT65g+ZzJGDpkGCbNWoITN14gjGKN/LFlU+zF+NJkslUKc086GfGZ4uMVczBy2BCKQWZix/Hrxco7U0EUHhLExnTs9g/p9XzkZacj4PE5LJwxgWzqMtx/G4S0dIqRyUYysUH+c5n4ITgoGMznTOXbEGclIITujUujtuX+kBbzBQfWzMWokWOwet8VhYqE7PQkfHx0CUtmTaQ5HobJvy/F6dsvECE39tKQlUq++epBzJ82nmK7idh87AbCmbii0G8zkqLx8NxuzJo0GsNIV9ftv4gg8uGK8pqLuPAQip3SyefH4P6JjZgwehR+X7ED7wILxemiHJL5EIRGkd6VsK45tGafn13F8tmTWfmZNGsxTt58ysY9ZT9vh/Qh7COObV6O8SOYeHouxa+viuh2TloiXt8+TWs3EaNGT8DavecQyPrXsj6HiWXDcXrnKowbMxaLt55hY5xcihEYf8JUgeQ3lU1+J5j0lvnkJXMpj/x22JfH2Lx8DuuL5qzcgWdfGHuiqCcZSRG4fXQjpo4bhcmzl+Ha849gvuAh6yLZkRSKjW8c347JY0ZgxJjJ2HLsOoJjmIqqgnHkkRyHvLmNdYtnsnnIgnX78S4kqsjzSkN2WhwenNxCfRmDmUs242VABF6dXwv9QmcuMGAq5J5fYXLCMZi2aCueBTBfN8pBFK0/k2/Iyxrz+fmIwDfYtXYhRg8fRjHANGw7fBkBodS/QgdV/q/xPyEXOPwvkYVDfV2grOaA3VFlC5L/m8jF+AbmYLYiWLeYg3SZ4cjBs0X12HMbVHTtcVnuYMf/LPLJhWK+FsGBAwcOHDhwKEDgnQ2wMTDCnKMFhxNy4MCBQ0ko7kDH/zI4cuH/DcSI/PwWN89uh4e+EDyHZghRYPT//2HNwCpQUmLONODDr3k/zF2wAMO61AePvaYM10bjEJP+z2ID/xJw5AIHDhw4cOBQOsQ5SElOQvCry/C01EXbyXvZA8g5cODAoTRw5AKH/ybEmVjRVfJJSGV1C0zfdfsHSpr+m0gOf41Fw9rARl9dcvgi+08JWuZuGDJ3K77EFrc15j+I7EeoYKQG9w6rkcyRCxw4cODAgUMR5CadQ3U7YwiZQ2SNfbD1RsGnajlw4MChJHy6tAGGulrotewIRy5w+G8hLz0enz58QrzcJ3s4EJi91IGf8fr1G3wLiy3bOQX/KYgRGvARoSV8d50DBw4cOHDgwJwJEIPPnz4jUXYgKwcOHDiUDuasns/v3yMupeDA4f8yOHKBAwcOHDhw4MCBAwcOHDhw4PBL4MgFDhw4cODAgQMHDhw4cODAgcMvgSMXOHDgwIEDBw4cOHDgwIEDBw6/BI5c4MCBAwcOHDhw4MCBAwcOHDj8EjhygQMHDhw4cODAgQMHDhw4cODwS+DIBQ4cOHDgwIEDBw4cOHDgwIHDL4EjFzhw4MCBAwcOHDhw4MCBAwcOvwSOXODAgQMHDhw4cODAgQMHDhw4/BI4coEDBw4cOHDgwIEDBw4cOHDg8EvgyAUOHDhw4MCBAwcOHDhw4MCBwy+BIxc4cODAgQMHDhw4cODAgQMHDr8EjlzgwIEDBw4cOHDgwIEDBw4cOPwSOHKBAwcOHDhw4MCBAwcOHDhw4PBL4MgFDhw4cODAgQMHDhw4cODAgcMvgSMXOHDgwIEDBw4cOHDgwIEDBw6/BI5c4MCBAwcOHDhw4MCBAwcOHDj8EjhygQMHDhw4cODAgQMHDhw4cODwS+DIBQ4cOHDgwIEDBw4cOHDgwIHDL4EjFzhw4MCBAwcOHDhw4MCBAwcOvwSOXPgHIfLTTSyctxjPApMhll77t+DtzUOYt3gdQhKzpVf+HGSkJiMl489tk8M/F9kBl7Fs8So8jMiF+C9UgrzYj1i7aCGOPw6GKP9BolwkJyYiO08k+X8O/0ikfTiHpYvX4FlUzl8qI/9aiEVIS05EWmaO9AKHl1cOYNHKzQhNyPxXy0xefADWL12Eo/e+IPevtFN52bi4fwPW7TqLlMxc6cVfRS4eHFuLpRvPISaL7Lv06n8RGSGX0aF2BXSdcRQJGWXQQ3EWHhzdipVbjyIrO/9+MbLTU5CSxsjs3zxbomykJKcgtwzPDX9/E0sWLcPzgDjkif43qyoW5SA5KYV8t/zzxUgKeY7Fo7vCz9MVftVbYPvDKGTlSMaWI/r7/Ty7niQP/x/8Vl5qEBb0aQj/xuPwMjoNCkvz08jFh8t7sGLdHqSlZ0qv/dcgwrer27By7T4EpWbS//07wZEL/yDc2TkIfGUlLDry5q8zPrlJODJvDLp164IuXbqga7du6Dt4NFbsOo/YjJ8X4/XDakNN3RAXX8X+aX3PSfuKVhUd4NOgNyKT/6wAh8M/F2JEbW4FvooQo86kUKAivfwXIOX+FqirqqHW1HPIkT7o1dEFsLW2RodFl/7awJ3DL0CMgD8aQqCqjumXkpDLLVMRJAbdQ21vB1TrNAWZWRzBwGB5/1rQMLDDtTdREP2PEqA/A2nP9kFXKECVMQeQTgn6XwVRZiI6VbGFuU8zBMak/zk+XZyECTV0wdNqiPvx6ciTXv6vQZwZgnGVzWDo0RYPw5LKllTlxGBsLTdoONRFYnKq5FJCEHrUrwCnap0QkpL2N5Ixubi5rA9c7J0wYN83pOeU/uTrW4ZAW8jD8kNPKHH/X6yqGK+29oOHox2GrbuBNKleiLMSMKa5HwQa+mjaezgGdmuD0Xs/4eKywXB1cEKf7W+Rlv33ORBx4n10qegGO8+eeByZ+icl2/9U5OHSsn4wMrbHiouvkJHzJ82zOAVrO1eAlmkFRMfESy/+M5AU9BR/zB6Pfv0GYe6GI4jLyPo5nRVnYHsHS2hr+eBgUByy/qVywpEL/yDIyIXDfx25IIp7h6pmmlAW6MDNwwMeHm6wNTeAUrlyMHatg50PIn7K6P0KufDkyAK4e5bH/gffFH6bnfoOjT3M4VKzO8KT/n8Fybmf9qKOtxf67g6mBOpfal1+GAy50BJ8FcFfTi4kS8mFmnLkwtP9s2BubIyWs8/IrnEoQOCZhSjvXQV/PGJsxP9KJsUIWCUlFy5y5EJxiP92DVWdzeHXejwloGW3m9c3TYR3xTq4+C68oJrnP4Ll/Wv+J8iF1KdScmH030Eu2PzJ5EIiJlT/75MLD/dMg46uDVafe4nsshqonBiMKUQuZMV9RaeaHrDya42vSX8nuZCNSwu6UVxojR7bPiD1Owl4Prmw7C8nF3Iwu09D1GoxDl/i0slGSS/TzDxc0w32luYYuOIyUqWVNmnRb1Dd0QBeTcchKpFkmL2ai2vL+8POwhpd1z9HStaf39+o20tR278ilp79ikw5YkYUcwNtfOxh7tIJ98OT//3kQu4nDGtWFXUHb0dkqmIinRX1AI287NFm4g5EJ0v+lp38GF3qV0bPuSeQkP6T1cj/SHJBjMh761HF0QhGtp6oVbMKLPU1YOzTHjfeRf54/C4jF7w5cuH/D8Q/5GTLcq98uVtZyIVfLY8Txb1FFTNNaPl2RUZ+AiXKwK0VnaGtWg5a1q3wKakkg0vjl/5XYXyPXCit35fXDYaymhArzr/5a4JaavNHWi3+3rK28CPPKlmesh8vgpGaCirNfY2c7xinn5eJH5Pnwvjuc8s677J2ykAulLXNYlHw2+LIhe+hLPNchlvK1M7P4E9pt8T5FeP11sHgq+pizMVvpTtMpo0f6EqZ7pXdVDZy4Vfmomy//bExFkUpP6aGy9aDn0NJ4zsysyMlfmbY/fhrqeXNPzK3P9PHsvzmR9e3OHKhLE0wzylbf6T/UQp+tM8FKOhDWciFn39OwTjKQi6U9Tmy+8pELpRVr8q2LkXBtP9zv5Tg+7/99OgSTj8NL1SiXzxkfSmGXPgufmAcvzbmopBvryzkwo88v+R7s9GvljVMHFriVUSKHLlQPBKCL8HHQgu1+69BfFqW9GrZ8L3eljae4ONDYKaljuHbXiMtq2yxxY/iz15PBkybP9RqzmM0cdCDUa3f8S0hn7yRIDvqBU5ffoTk7BzZ9cz4i6hoqYMqfdYjOiXzx56VjzKRC7+q4yWhBNuU9Q0D3IygZdcUd0MTkUv3PDk0B/raGui1/BiSy7itW9bnMpILf80Y/zz8vyQXAp5cw679xxCRVHjPjgiBjy5j7+FzSJEzkjkJAdi9YiZ6dGqP9p16YOqynQhV+K0Y0S8vYv+p+0jLy8aHK7swqm83urcnFu68ipRinExmQiA2zx+Prh3ao8fAcTj3IhS3dw4sgVzIxt3jGzG0T1e0bdcBgyfMw52vST+lnMWSCwzEyehT0QBqmqa4+j5Roe3c1BAa/wz07NwB7Tp2w4wVexGRqfj04siFnOQInNm1CiMH9kK7tm3Rte9wbDn1QEYgiDMTcPrgHozvUQdKyjx0GTMXW7duw46DN5FEnoPZR3f73GGcvPYC2fT/iSFvsHvnHjwLomewLRQgLeQV9u85iDexEiMnFufi6eUDmD5mEDq1a4MOXftg1qr9CE+SV3Rq8/1lHDh5m9YoG++v7sbIvl3RvktfbDn/XPp2VowXF7ajf7cO6NxrCLade4GsYrxaTtxHbF86Dd1IRjp07oVZqw8gKk3xWaFPz2P/mSdIz8vEm3NbMLxPF3To0gfL9t9GKmORWOThzeX92DqrA7SVVeDQdh620Jzs3H8c8aly7eUm4/aR9dRGN7QjmRg4Zg7ufooqJDfFI+jldSyfNQ49mPXs0BUjpy/Hi5CEMv2WFg0vzm3DqAE90KF9JwwcPROXXwTTb6U/zk3Ds4sHMHPsEHRu35bG1xtz1h5CfHFBR1YEdi2ZwupAd9KBkw8CEL6pRTHkAiW2N4/h9/FD0blDO1qfXpi6dAcC48vooGiubu5djgE9OqFj9wFYeeAewm9vhrAQuZAV+wWH9u7Dk8A4ubnIxedb+zB+UC+0p3nuN2Iazj/7VogEE+HxuR0Y2a872tOcDB43B5coiZF/uy/OSWHXayTNW9vWbdCj30hsPnG37G+2CiE1JgAH9x9EQEwmUkMeYfHk4ejYoSMGjp2HhwHy/adnp33FiYPH8DExB59u7seQnl3QY9A0vI7Klt2XHPEW6+eNR/eOJL+0Zgs2nUZ0pkgyv6Ik3DywE/P71oWaigYaj1vMyuSuvScQm54nW4O06E/YRjrQq0sHtCcdmLFiH4IS6BnSvzNI+3YPB49eRGJeHkKeX8S04X3QvkNnTF2+D3HFyEheajC2LJiALiQjPQdNwoVngfi8okHx5EIu9fPQOgwjnWjfriMGj5+P+1+iy0xYpkS8wsoZo0jG2qNzzwFYtf866aXi+uQmh+Dw+vno270jawvHzdmAT1EpCvNdFGIkf7iKgydvIjEzGRe2zEWPLp0xZPYRxGUXjDnu61OsoOd3o+d36tEPS3ddRjwFp4pNi/Di0i4MJzvVgZ4/ce4qdi22bduOnSeeII36K6JnXDp5EBfvf5B7Sy9CzPtrmD9hCDqQLe45YBS2nnqE9By6PzUKh/fswrBWlaAq0MHAGYvYNnccvodk6fgzoj9i37oFGNCL7E3b9ug9dBKO3g9QIJlEWSm4cvIQbr4MQVbkY8wZ3Redeg7DlU+RJaxBDj7fPIoT154hJycDD09txtDeZBM798Hqo3eKnH0izk7C3VM7MHnkAHRs3w4du/XFku3nkFiGt6UF5EI4Xl7eSXazKzp27onZ644iJrUgAGYgzs3Ewwv7MG3MYPIdbclm9MXcdYcRKX0Dlw9xXhbuHNvIrkU70vsRU5bgbkChMvi8NDw+vRVjyAe2b98e/UfNxJUXQaWSNzLkpuLuwdUY3KsLOtFYl+65gdB7u6FTHLkgptjl6SXMo/XtSH3u0X8k+drH333rzIJ+G3D/JKZIdXHioh0IiY9Bx2LIhcy4rzi6ZSmG9utBfqcdxS5jsO/am2LPqQl/fQnTR/ZDx46dMfL3dfgcGYpx1XSKJRfykgOxd/XvrO1oR7o7dPxcXH0TWXSesqJwbMM89KT7OnTpgWnLtiOESWy+M525GfE4s2MFhtC6t2nTDn2HTcKBq2Uv1xalheHg2jls/zp27YVpS7fja1wqybX0BkJmQhB2rZyFPl07oE1bGsPEebj8Moz8S+HOiRDL6uJg8qEdMGL6SrwMDsLIGoXIBZKvp1dO4file8jJLVhrUQrN1apZbDzard8IrFi/GVu3bcP2HXvxOCJDTv7y8PbGIUwcRutKOt+l50As3XEe0WnfP+8iI/Q5DpPP+JCQpTDGDFr/LQsnUuzQEb0GTcDZ50G4tHFwCeRCNu6c2IKR/Rm/SPZ4wnzc+hKvYDNSoj6THzuEL5EpSAp+TH5sGDqRvAyf/gfehiXJ7EZs4DPs27MNtZz1oW3iizkr1pHN24XbASlse+kxb3D04GG8DmXiBjHe3D2P9SvGwVJXANfaPbFm/SYcOH+f+peLzLBXOHroGN6SXMsvTU5aLE6SbA8ifevQqTvGz1mDp4EJMhnMzYrH5YMbMW5oX/IvbdGt7zCsOXADCen585mLO+cOYsXIetAR8FC/3xxs2LQVe07dlJyjQbHTk0tHcfjqa6TRPGUlfsLxgwdwl3m7XUhGGP9+9OA+PP0cJfubOCcND05tw/ghfdh4ujvF0+sPXS9z8loSAp9fxtyJQ9GJ4rWOFCfPXLEHAdFpCuteGOGvr2Hv9t/haawOLZe2WLxmA7btOogPsYz9EyOHxnby0GH2/DhmfT48uIBt6yfATl8Ihxo9sWrdRmzffRzB6SRfNHtfH53HgaPX2Zi54LGUV729gcNHzyGCxshqainkQlZiCA6tm4+BPTtTntQRA0bPwJkHHynG+r5/KA5h7+/jwJHLiErJxNf7x0mPeqNTl56YueYYwhMLzu7JCbwBRyNd+PZchtjkDPZa5qfLsDHUhX/flYiXXisJWZHP8MesMejSkfo8bh5uv/+GTW3NiycXyCc8JBkYO7g3azsYf3L1ZdBPx5F/Jf5fkgsn5naGEgXJY488VXBKooxo9KhoDU2HegiVJobJQffR1MMEmnoWqFitJqpW9IGRhirMqvXH86h8giEPxwY6QNWoAZYsH0pCYQAHF1fYmGpDqZwyWkzej0w545Ed9xoDa1iwCbWlgzOc7MzB17RG0/Z1oVpOkVzISQ3Dsm7lIVTXgbtfFdSsXgUO5npQFtpg/dXP33WqhVEiuYB0DKxmTI7fAjc+FhwoGffxChrb0/2GVqhQtQaqVfKFkbYAhj7d8CIiVXZfEXJBnIghtSwh0DGGi6cvKvr7wdFcF8rKmmi//C49W0wO7AWquFpDR0OA334rBw1tPRgaGsLQsjWepOQiNzMeTdx0YFu5D6IpiQm8uh5CFWX49t+IbPnDeMR52DmqEVTULbD1ZQQZxUwcH+4NTQ1t2Dp7wL9iRXg4WUJVqRy8Oy+gRDf/t3m4PsYFavrVsWLDOBgbmMDRxQUWegKUUzXE+L2PcGxhV5jpG8LV3Q3G2kIoq5ti2dUvMqfHIPbDZdSy04O2oTUqMTLi7wlDDVrbOiPxhpI/yZ252NbTDmomzTHv914QaBrA0dkVVkZaJCMq6Db/pMTpimMxrb4VjPU0oPTbb1DVkMyJsX15vAyIkcxtbiIW9KwBnlAbbuUroUb1yjS3WhAY+WDTnRCWOS0J8efHwVRTA6Y2jvD1r4jyns7QUlWCrntrPI5RTASLgOZ156Q2lGCqwsjCDu7urrA00oaatgcOBjJBiBgHpjYDT6AFGyd3dt49na0hUFGBeaPfEUxrmt9+etQr9PQxgIqqUKIDtmakY7YY36MCVJXlyYUsXJ5cDdrq1KajGypQm14utuApK8Gl2QREf6+skfq8aXQzqFKfDc1t4epsBy2eKho1rAM1JRUFciH4wjLwVQXovPqGzKHf2zEROnw+bN3Ko0bNGvB1s4d9w5HIpCCFQV5mHPZOaAgtNR7JrT3caE4sjHWgrGqM/Y+YxJYJTMOxbEAt8Gge2HnzcIeVCd2jIkCNYZsQkfrjh5u9v7qCAhg+JdBT4aInhJmNA1ydbGiulaHn2gR3w9IKbMjTBTAT6KLv6u3wsDCitXGBnZUdjrxiSkvFiHi8H9WttaBr7kDyWx1VKnhQAqMGj+YTEJKcCVHiMzSn9THQJL0gPRXqSGTSzMYT9wKYAJuS529X0dLLFBqGNvCvUp10wAt6QlU41h2EgKT85E2E50uaQKjriQ3HF8PV0oTti6OVEemmMuyaz6PnFchgaugjdHTThYqaOqwdXOBkYwpNQxeM6epDMihUIBdEWbGY07Wq1E5WRvVqpBNmpBPGfth6J/i71T+p366gib0OzYEjqlSvQf33hqmBI9a+LAhAc+Lfo0cNB2jomKJ85eqoVrk8zLTUYOTbAbeDS3uTloe7kzwhMKyGBcw+VEMzODk7wcqhHz6mM4d75SH41iZUsNCGvpUL+/xKPq7QVFNFtR7zkZAtTSzyMnBpSXfoq2vCwdsf1UnvHUwZ+/Eb1LV0Yew0CJ+pvdTw1/Cz1oZPm6nIlB4OF/36GLzNtWFk7YoatWqhoq87LO288YiC/eT3l+FsZUEJAh/lyP9oStfX0KoTXidmITn8KarZG0DHyAKevn7w9/OBlaE6lNWMMPvYa9kb2vSoD6hkr4vqbQajobUmTK3s4ezogUU33igkFDKIYjGzkiEM/Dthx4x2MDM2JfvrDEsKQJVUtNBlxU2kymy1GIv7VIe6ph7sXT1Rwb8C3B3NwFdWgV/P1RSUKhIEhcGQC+o6JhjcoQ70tfXh6MpsB9QnH6yGmkPWIkqWIKRjz+Dy0CFfZMf4DrKR7o4WUFNWRYXeKxHNHMbG3CZOx6XFHaCvpQNnn4qoVaMaPBwsYFtvHgXC0nvykrFuVHMIhVpw8vInO10VLlZ6EOi5YtnFzwoxQRGIs7BransI1NSgb2YDFyd7aAvUUKduHbJ9KorkgigTLw5Op8BdE+YOHqjG2ClXG/DUhOg27wgSS90+kYsvFxfDidZTqG0MZ1cXmOprwcizFVxt9GHqXUAuZKcHoWV5C+iQ/Lp5l4d/BV/YkfypqOpj1HYJUcVCLMKHs0vhRH6UT20ya2plqAnLym3R0IkHVU1FciHm/VU0cjMBn+bJxtEFbq6OMNTmQ4lngll778oSViYWmtjEHdp6JvAjG1OjakU4WFlhwN6XpZIEGVGvMbaZGwQ8AcysHeBBvtyM5kqZr4teS04jLrN0+5sa9hxdK5FtFWrC1smVfIg99DT4MKgxGd+kb2Cj35xFCw8j1idbkz9zd3Ni7SVP2woLjz9DhlzwH0r21tdSFwLy7U4kh1aUmBja+6GSpSEE9gXkgpj8RvdKDmRfWiMuJY29lhX3CX1qONIcmKFClRqo7OdG/kkF5ZT50DUwR7/DkewZCXlZidgztS30Sad1Ta3h4uYGe0sjsptK8Gk5HkGybQLFQYx3m/tQXGaE0Zciqe+SO7NjX2FwPQeSKwEs7JzgaGMOgZYt6jetDp6qqgK5kJ0SguU9KkJPxwBuvhVRg7HHFuTv1W2x7sJrZEnn49XZxaRDGhg+bjzKU1xrxbRra04xgBIc6g9DAMkJc+fdXePgYE1xMsUqTNysp29ANsoEbde8RmqWCN9OjqK4Rh3Dtj5DenYeFvStB3NjPahQzKfG14SBgQGsag1EFM3th13DoK9piKEnAmTnSWRTMjylPcXZPCHMbZ0kMqglgGn5tgiOSiJ1/4KRla2gp2cEJ3dvsgsV4EjzycQv3RafRDJzeK4oBL1rOcNEV8BuMxaQrTIwID/p3wXxSbSmuZ/Q00Mf6i6D8DYuDQlBx+BDNtm72WREKKyHGJdXdoWeugZm7X+MDBqPKD0Sa0c1Jb9Mckf2wI1k2MaMxkfxSuX+K/AlVn6bSNkgzs3A7a1j4KCvDg198kkki2wuoqoM68qd8SgoQZEolUGMkzNbwI7kVU2lHJTIP+vR/BoaO2LhrQ+srCfcmAIbXQ10/+MBOzcrBteDFdNf5XJQpfXQZ+439cW2gHhKnunvHeygLvTG8Y+xFNvnPyYHR0dUhZaWE7bnJ9nFkgtiihXuoXdtZ/D56rCwdaT1c2LzFFVNC4zZfh8JGT8eYx2a3R46uvYYP6o36agJ7Mk22ZjqQ5lilaZjNyE2VZL/5Xy9AXvS4fK9liNOSiRkfbkKW0NdVOq/qlRyIfLVGVS20iXbpw07at+W5sjA3h9dfYUQahQiF8if/DG8OXTJPzt7VUA10ikXsiPqhp5Yfu4t0spIlP5d+H9JLqQ+3w1DMrImzRYiPT8CJyQEXYGznioqd1uKTDYriMbMWmRAtLyx91k4axBzs9Px7upymKuroOHwHdK32BJyQZkxela+OPgoAAnJyYj6+hR1nPTAt6iCjwlSAWOChuH1yegJ0Wj+eUTFJyEpPgIHp7eFQEmJTbLlyYW7WwaxCfXgledYhlKUl4OYD9fgR8GAUdV+SPnBE2+LJxdy8XbvSBjzlWDoPx7hmfnX8zC9tQt45ECOPAykhCoPedkZeLJvFiVKamg++5TszVjRyoU07Nm4AR9CIpGcloGsrEwkRr1BG3dtCAwqSk56F+UiNjoKhxb0hBIZyd/3X0d4eDgioxOpR/T0QuSCOP0D2puoQsWwLu6lFLwxFWWnoIOfCYzcmrBvSslV4Nbaibjw6APiElORlZ2N1MQQrGhuQkmfGdY8z5AaYgm5oEpj0TVzxs5b75CQlIzIgAvwMeaBR4mKQN8L2259QlJyCr5eXg5TMrwaVaYiSpbVhGNcVUqOdCrg6KsIlkHMzUrDo6O/w0Cgig4zDkuZbwm5oKLKg759VZx+E0pBRDLC3l5HeQstCB0aIpJ9i0mGMj6KEt1pMFBVge+k6wgJY+YkRprwivH+j6bQ5Gmg59q7SEyXyERi5Fs0dNWlYLAtvsVLg9tikHpvLXadvoeouERkZGUhIy0JL9e3gSYl3y2XPC41CUu7MwPmlDDa1RuPd2GxSElJRmxkMFZNHIPDgdQP+umdIxtx7U2gdN6zkJYUg2W9K5C887DlehCbiDI4Nb8dOSZltJm8je1LUnw0ji7sAwHN72/l+BgpIxdy8GDjFJy88waxiSkkR0ybEdjUyYGSTiPMf6D49qEwMh8vgKWGKkz8+uJFUAySkhLw9eY6eBhSIvWbEmqUSi5kY0ANcxg4tMFL5gAmUR4yUhIQFpkv48DbC0ugS8GdT/tpCI6MQyrNSUzoB6wa0gYnn0STfuTg5PTWNC4+/IfvxLcouic1FXERFMw0dyRny8PEHXdlb0fKCgm5oApVNW00mnIYQdHxSKG5vjynKdRVVODQbh3ipW/FWXKBpwahpiY6zjlANicR8bGxyKSgMTc9Hp0rWcLAqS4efmbkNw85mSm4uqQHBHwt9Nn9nuYiBwnRkbixoicFkToYuP+hRCajKBCgeRKnhaCfvzXUrWrg6pdI1k4wOvDx2BiyKQJUmnQF6ay+SMgFPiVMmpo6mLXrBmISkpAYG4oxTZygwtPG9htfZHOxc2JTqJK+9Fx4WCojUdg1vRPUWBkRyJELIrxY0RRa1N/+G0gn0kgWc7MRH/IUdZ0pYKXgLiShtMOVRDg6tR14urY48OAzGyDnZqUjOiyMEjMaH3OLOAGrmlmBr+WMdXcC2UPD8nIyEP5yJ1z0+CjfYSniS0ziJOQCX40HTX1LrL30AvGJiYiJof6TIGVEv0ddVyOY+3fEp/A45NCgstMTcXpqEwgE+hhxnq7ROJODH7O2wrf1JHYPcR6tS/CzU3AxUkedfksQHJHI6kJaEXIhF3sHuVMA443D72NYHWdOLY8KD2XXSpyXjZioKGwZ2wpqmiZYc/4BQlk7LOlfWlwA/th+Al/CopGanoWszHQE0nPdTNTh3mwsUqWn4eeTCzweH3pVJuBFcCySEuMpgC9hXqTkAo9HNtG8Ao7f/0D2NwmxobdR204TOpYV8VyOtDm+ayvufgimYI1sC9mB1MQojKakUahvz77llid8C4MhFxh7o6LjjjUX3yAuKQXx4c8xoLwe6ZAmph0LkL5hzsL1jb/j+rOPdI/Ed6QkBGF+U0vw+JbY9Ix5E0crGnIFPrpCuHdfhchE8ifky1ITYxEcFs++uWPs9JftPWGgoYlWiy4jOimD1isXyTEf0bmiKXRtauJZsOKbb3lkPlsBRx2aR/cuePApguYxAd/ubEEFcw02cZEnF2KfHKBAntai0xx8Jd+ZR/YsPTkcG7u6UIBqidX3JPJTHHLDbqOKiSZU9P2w68FXdv4jPtxAR3eaF6XfYOzVVEYu5GbEYNP2Q/gYEoEUxqdnZiD6611UpzW3qdQNwfEZrK4w97WvaAl1Ixfsu/uWfEESokPesYkXk9yWU5cjF/LCML42za2qNqbtukV6noSU5ER8un8YnuY6ULepi2dJkgQz8NFWWOkJ0WPuUdbv5eVmITEmEtGpBRVYRUDrsqJ/fQgFOui14jRCoshOppLsf7mNLt4GlHjqYtm5ALJ7JTWQhe2DKkCDZHrQirOIYPpHPiTgxWX0GfoHgtOyaO0zMaSRK4Q6Flh64j4b06WmJCHgzlZ4G6iTXamEM19IbphH5HzD8IomNF5DzD78mHwa+dCwV5jWwgUCmhs12zqlkgtPN/eCASWdY7cySVsucjKScXZuc+homGD+iVeIy5DERZ/PzoSljhBezUbhY2A4klNSkRD1DYu7VYGQL0Sd+feRkinxD0VRDLkgzsDOYQ1oHjTRaN5ZBEUlIDEuHAemtYOuQI2NW+XJhRubhkBXnY+hK08ihpIrxlZFv78MfxMdmFYfhIgUSTItIReE4AkM0XnhKXyLjKd2A7G0pQMl+poYvF9yoGQ2+aSoqBB0rWwOQ9uGuPbiC8IiIpHIJI3UkCK5IEJaYhw+Pt0LdxMNVO++AB8CghBNaydiiK/C5ALF5HvGNoeWUAdtFp1BICMjtH7hn+9h9uTpiI5PoVtCsGXeSjx+9w0J1PesbIpnQ+6gtYMOhBYtcD+G4hUaUWJcNJ5t6wVjTQH6rriGgKAw1nextqkQucBU0/Sp7Qodm8p4FhQttRsEURhGVDWFwLABbgYzPi4XFxYytkQdvv3X4k1wFPUvFfFRnzGnkw/USTaHr7nww18HCnm6Hy5mOrCo1BEPP34juUtBUlwEzs5uTTLGh12L5QhOKr46NDs1EVEhF1DXVgcGVcbj0ceviIiMZm09c78iuZCH9KR4BH/YD18zbfh1XojXnwMRQfFDJtkqMcV4v0IuiNMjMKahN9Q1zDB27z2ExCSy6xfx4QKauRuBT9cP3f1aio4XD4Zc0FYXgm/ogaWnniCS9Do24Daa2OhTHEB53uc4ZFOT4rQP6GBjAG2HlngQLvHBL44thKG2JoasPl3K1+6ysai7HzT4FANuOIfwmATExwRjyaB60KTYrhzPS45cEOPzli6w1NVFx0XnEJog8f/JMfRs5uBdj6Z4/i2u1Fj478b/S3IBeVGYWlUXSgI3HPuaH3SK8Wh1CwiUNTHjVBBrsBIebYceBeo1Jx0tUHxCXloU2vmawaxCBySRcWOCRwm5oIOpR94XLDAZre0Dq0OZb43doZJtDLmpkWjhZQwdp/oITJbbByZOxcbh1RUrF0TRGO6vTcl0M7xQOAchG6eHekKF74g9YT/GyOWTC6o6lmjWvDlaNG+K6n6u4PPU4d9iMO6GFhgTUeh+uGqqwLXPQaTKSS2T5LczVYW632BES6L7Mh/ouKpfRfa+y++TZfeVdOZCYXKBeoTHi+rQGgkweNcH2ZqkB+yCHfWz9vB9SC9Fu+KO9YIGJdFD9oVKgzoJuaCiooVhO18VJNaUEI5u4gYVDVOsvRZQ0CdxNEb5CaEsrIG7iZJ5j725AnqUANWff13h7Vxu3GfUcTCATZ1BlJwxfZeSCyp6WHTuk1ybqVjTgdZS6IyTcm+wSzpzQZzyAS2M1aBdvg8i5EqqGWwb1QRqlCCdexdR6hoUQcZ5eGirwqvXDrasulhQcrWsjgFUBA7Y8r70krnCuLdvAngUOM3c90iSONI89vfTJv3zwPVASeDKQJwdj5293NnKhQJyoXhkXBoGHVVVdN4cqDA/ChCnY2cnG0oeTLHgviIL/2j7ePBJFkqvXMhEVz89GDi2xbs4SeCsiDys6+1B/dXC5tthCrKbj9yUCLT0NoGOY118ooBa/o7QB3thqKEGjw6/U0KpuJbfg4RcUEH1PktozeR+m/sNrV21oGHoj2fhpMv0QAm5oAJ9zy54F604joQXK2FJfWj9+0XW0edDnHwfDYx50KozD7FS0qukMxfCnh2BuTYPzSfsUBwHyUxvfwNoWrXHxySmIkFKLqhqoOWSOwpbDm5vGws1NQHG7rtDc0/XRRHo4sWQe5XxKLSgCkOcGYN1HR1pzgsqF8TJr9HClA9d/0EIowBL1jNxLtYPrk/BgTOufpZUkRSPPGwn3eHr2mDfw+BiiZ7kt2dgKuChQv81yJAG0CzIVgxv5AIDhxr4GFHQT0VIyQWStzrDdyGxUFD/8cJMGAp5GLz2lkwWGYiTrqK6EY2ryXrEZTHbSLbAQlONDVoZAoKBKDmY5MsCdnUGIEN6eGNRciEHGzpYkN31xpEPJQcgZT1zgYEoJQxtylvB1L8DJXoSP5ZPLmhYVMS1kJITZxnyyQVNJ6y9H66gx8v61QBfzxrXX5JeldLQ0dldKdAzwa67nxRksjAYcoGpFlt08qXCHAffnAtzDVXUGrAeqaW84Q/Y1R3afD4mHg5kCbXcz6dgoyGAe5cVBdUMchCnB6GPJ+m9e1t8TVUM0I/N7w6hliF23PwotTOFQInc/r5eEPBNMONmlKwyhMHz/TOhScGoPLlwcHYntr3tN2gO5O5N+rwDTroCNJ18HKn51S+F8PLIXGgIhGj++xFKygruyQi7i5qOTOVCAblQHMQ56ZRYu8PAuSY+hkt8esq7tXDQEaBSj9WITy9IeNKDb6CJvQZU5CoXoq4shgkF8M49tyJW7l6m4uzM+LpsMttt91fSOQqu76yEmbYA3eceJ1kvea3kkZvxnn3BY+XXBV+iUxXG8eH8PJhp8dBw+HpKzIpPAEQRF1HFUANaPkPZF0QFklOArE/r4aIvhE+HxYhMkScxRbi8sAXZaTUM+uMG+wY64e4GmFMS7NBlHWKk1bEMMmJeUVxoCWGplQu52NHHBeqaVXEhTEpWEEJfbIGdvjr6LL8skQnSq1n1zSFQd8D2x5EK8pMXdQW1rbSgatwazyJL0tGi5ALz5Yrm5a1h4N4EX+PkPpVO8cv6kfUowZWrXKC4dUQNcwhNmuNBGPlx2c1ZFLd6U7Loiu2fEtgkUkIuCNBo1DokSe0Ig6wXC0mGhKg46iSSZXJR8pkLhckFBgnB5+BtroU6A9chQXbmgrgIuZCdHIZWFWxg7NkEnyIZIkB663eRQ3rqBE2hG/Z+iJclxSWeuVCIXBBR8nxuTmdoU19GHnsje/Oc8GA1HHS14T/uJOJo7Lnpcehe0wn65GMeB8qREISI50fhaKoD15YTkJCcLr1aFohweGJdaAs18PuBp2y1hwx54ehf3QaaOo64+DKy5PiqlDMXCpMLDEo+c+HXyIXIN6fhbqEH37aTEZskIeHycWktxYkkF31WnPjhT9qz5IKGBiZtvUb2Id/e5OHxnJrQ19DFhJOhZFeZTuXi45HJ8LDQhpGtD+rWrQFrQ8pbqvfEvS+xJfolcfQ51LYmf+kxDK8jSZ6l17MTPlN8bAyBsIBcEKd9QXcXIxh4d8bbmCQFO7R/ehfoGdth/933soqgfwL+f5ILhC9HB0FTWQldl9wgJafVyw3CACc1qFl3wHtWYIAHW0ZDWYmHBkOnYcPGjdiY/2/9StRzNobQrjbiyZkwAseSC6q22PtZPtAQ48bcFlBWNsGKz5JzDNJi3sPHRBVujcYjVVqSlY/CBzqKEs7Bl68MFbeOWL1hQ8Hz6d+Crt7UrhYm3sh/C1825JMLymoasLa2grGBLviUxKoY+uHos0g55ytG9O7u4Ckpo2L/ldiwQW78G1eghZ0qlPUb4LF0X3ax5IJYhMz0VAS9e4Rj+3dh8+ZN6FbHGapCA1x4U7DHv+zkAjmdhOvw0KP5azgFCawVysPVMZSQqplj/ctMhbnIycpAXPgXXDx+AFu3bMaqcfUhVFZBv+1fpAGrlFxQtcTGt3J7CykpWdy1CtSMXPE0mPopvcwYwaUtDKGk6oUL4UyyJMb1pT2goqyOVhPnKc7R2sWoaqkLTfdWyGUTLim5oOaIE1/l37SIcGFiVeqDFTbF5BYYmBLIhfR3Z6ChqgyLKp2wfr2iTIxuWwXKPEOsfiBHiBSDvJxsJMdH4u7lk9i5bQs2rZ8Maw1leHTagJQSjJM4+Q3qUiCm6tIRkSUEqhJQIELzHhv6GRdOHMA2mvdpg1qyZY6Td92TJC3pl1GJAnq18tMRJZ+o0W9LOtAxNzsTCVGBuHLqMNvm+inN2WqL1mvel+L8gtDDUhuqlg3xgYIu+buKO9CxuG0R60c0hJqKCuxq9iTZDqMAUW7sonD09hBAmV8LjwqdLZCP5Mh78DTiwbPZZCQXIoNE0S9R3kQL6uQwskt6u1sC8smFgasuSpJxGUSY0daVEi5TXCFdZKYmv3Kh1tzHCoEmM99vl1HyTfPYdMQKrFfQ8SWoZUnrbdoF7yjAYWS9JHLh6ZEx0FZTRoMek4rIZFNvIwh03HA/hCE68isXjDDrYZosOGbw4dRy8FT56Lf5imQ90k7DlxJpvZoL2G/iF6DogY5pr46xW10sq3fH2nXrFZ4/omUFqAjMsPFFMDIi3mPutKmYNGmS7N/qfVfZN71BZ+bCgJIAJW0nzN1zA0mpinb1zakl1G9VVO0yAusUxrgBbSrZg2/igRdfFc+6KICUXOBZYPULxXEz47k0rQZbCdZpXOE1WAx/Ux7ULPvjS1oOwl7vg7UOH13mnpbtscyJ/YRazkZwaTxCtgWiKLlA8nJ0DAyFqmzV1Nbrn9gquMJdLY1cYKrMMlIT8OnJNRzcvQOb1i5FJVtDGPi0kR2Wlk8ueDafIKtmKBVScoFvVg9PUpm9twXYM6UNeNpmuPz4mxy5wLzBTEdM4BucPbqftekj2lWDqroBNt368F1yobivRaSEP4WvuTr5k1E0jvzgU2LDYkI/4vyx/di2dRMWDq0DDTUeRu/5JHkDlheBaTVMwFNWRvnWE/AqJFb21pZBZtB92Btrw4SS89Vr1smt6UZM6tUQqjwtzDrJ6KP8qKXIDcNgdzPwzGvjZbJiQlv0QEcRZnXwglBDH2Nnr1SQn9UrplKAz0PFzssQX8J6HF/Ug4JYbSw7+0yBdCnxQEemeistGQEv7uDIPvLpG9eigbcVdO2r4X2oJDEL294BOnweBmx5i0z5kokiBzqS71vQBUKBPsafp8C40Fxk3Z0Dcw0+rHsdosQgF6khT1HZwYj02RCdpm3Hl6hkhT4Xh4yPK2CvxUeVQTuRWOjNbuLXB/Ag/+DSZBRS0or/Zn70pcXQUxei0oRzSJElGPJgPo3bGNo03n7bP7MkiDyCnqynNRCg4dB1SCOde7xlFCWjuui355EiSVnMgY5FyYU8HBpeHhrqXjjyKRH5j/pyfS4stIUYvO4OS2CI42+gloEG+N5D8Y3kR7FH2ZjazJpsmQFOvIgn3ym9rICi5EJS6HNUsNGFT8tJSEhRLPMufKCjKP4sqhpogu/aCUv/WKsg+wu6eUOdr4eJF6Kp3QJyYdja8zKyjEXGCfgbacCjx3YkyfTyryEXksPv0ti04dt8MqKSinuJIAUpAWN/wj49x4lDe7B1M/mX+lYQ8B2w7RUlgdK5LDO5wFz6fADehprQqbsAIcyzxdnYN64FtAwcsed1MCXaYqTHPUM1SuLd641CaILiV0NEse9R19kcmh5tEJuQLL1aBpDtHVvDGHxBBZwLSJDJUj42UNyjqaWHPZffyHxNEfxDyIXXpyfBXEeAnvNPILnQVyhCbu+Eka4WKg5YR7la8TpeElhyQVMb266QbZJTlOQjfWCmrY6BOwOQIikrYBHz6R4WTxuN3v0GYemuC0gvgbDMR/rVWbDU00T5ybcRmyon+8Uc6Jjx6QqsjXRhWqEVlq1craBT47qSb9I0xvzzT0ieFWPM/yX+35ILaRHPUN5CCKf6w9hDj2LuboIuBXiNZp+RMYOXV/Zjz0wwsLSDq6trkX/V25FTkq9cKIZcuDW/FUsuLP8oIRcYQ+aqrwK/NvOKvGUvTC7kfdkDO2aPmaYJXIp5vnv5Bjj89ecqF/K3RTBvHl5d2gJ7CloNvdrjY4ZMsynxaAw1JSXoWDgXeTbzz7/lNIRKDU9RckGMC+vGw9PWCDwesw/KgR2Dia6QgoOfJxfEuWkYXNcR6pYVWAeTl/AC9Q1UYFRzLOJkBkCM6Efb0dTfCeqUVBmY28DZxRXO1npQ/k0ZfctCLnQrgVxoaSQhF8Ik5MKxGW2hrETPt7Evdo7q9JjBJi+lkQuXJlVnyYWNUd8nF2KfHGb31fN1TIuVCc8K9XDhc7Rc+4oQJ77AkJZV2DMhNPRN4eDsAlcXGwiUy8G9FHJBFPkIHpTsafoPQGopb9kDbu9GPT9HaPD50DOzZufdhv3U6W8yckEUcQjufBXwG1HApfC84smFpFcH0LaaOzRpLfVMLdk2XWwNoEK6WRq5IE79iGZGmlBzaY/4Qsl7WcmFzLhv2D6nP2z1hVDla8G9ShNsJYfLyk/uG7S25kNFvwPeyvZsK4LZV+morYpKnZYgtZDhFyd9RGMLHag5t0K2NAksK0omF4DFPf3BI2dz4Tlz/gglSiWSCyJcn+DLnl9hYOVcjDy5oXLXVex2ndLIhXubetFckp00tSlWJivUH4ovCYxdLJlc+HhGSi5skpALotAdcKFk2KDd9kLzVpRciL6/mxI/VQgYnSDZKPx8z0qNcTUwFvGvz6Gil6fC35oOXiIhdkTpeHxqPRp5mUNFWQ1Gdt4YNP8AkqTPfrh/GtRUVaBjYlXsMyo26I6v0d+pXCiWXBBh/yAPqFGSamJT/BpU7b2NrR7JSfqGDj4W0LetjBX7zuPOzYuYO7ARtGht+624LKtmKI5cyMtKxqUdc1DVkewX2Str9yqYuI4SJrngtyRyIS8jAWvHd4Ujs2eWdMDa3hGuzo7QFqhC37v1X0Iu7Jvatgi58OzEKtT0soVQjXyVhS2caX4sjHSgRMnpz5ILaTGfUcVOC461ByCO+sDIV9CtTWhMvkNDwDzHBk603g6WumRvVAvIBUJ61BssGtkOphqqUBXqo2LjnjjxJpadu6QP12CtTwmelgHZK7KxhdbV3bsy9j9UPBAzH+L0b+joQIG/YwtEpitWPRQlF3IxprE91NTU2P3qhZ/j6uqOgYvPIa0QsZmPvdPbQKChg+1X332XXGAOutw9dyDcrQ3ZfeyWdo6kC87Q0+RDy66qlFwgO7G4HtlqPiYcj0SWvLAXIRdysX9CKwiEZlj2KIBNpOSR92kjXLT5MGi9GSnM22vyy6HPz2NYq8pkh1SgaWSDpr2n4WN0coHvLoSUG+NhRr6uPtn5wpUp6aEv4GerD9s6A9ltHsXhy5Hp0BFqoMniO5QoFjeHebg9yReafA1MPB2NwvxD+JsjcDRUR80+y0gnsnBtRX+SK0NMvviS7pWT+DKRC0DQnfWwM9RAxVbDcfraHVw8sh7NvEzBN6mBsx8TWHuY+/UkPHTVoVV3FmKk+8ILkIelXb3Ifgpw8GE0rbn0sgKKkgtxX6/By0ITVbrMQ2IhIqYwuZAXsAueeupQ0TCBIxNfFJJJ9/KNsP9dEptElkwunIa/sQY8um/7y8mFhKAT8DTTorEtQmxJCag4C3e3TUJVN0t2W4mZtT2r15Z6fIoH7X+aXGAOUl/QzgXq6nY4+JTmOiUa3ao7wrZiJ3xlznqgMaZEnKNcRRt+rWYhshBZJE4JQCcPKwgcmiA2/gfIBepLLw8DiiMb404k+VHp5Xzsmd4WWto62Hn2mQJpqoB/CLnweFt/GGvxSYauyz5Dmo/4p0dhpqcNj27Lv3uwYmGUSC4c6wdzbXUM2PlZSi6IKZ/8hFcvnuHp06eyf8+evUAccwiw/MTIIEbkkTEw0dZAw5VfkJAhd1Mx5EL8y9Ow0Nchf2IEJ+ei+ZiHX20cefqlCEH7v8T/W3KBIjVMbeIBVUMfPIjJwMGZ7VljeOBJiEzob28YRoGYEMMOPi4xWZOg7ORCatQLeBmrwr3xxO9XLkQchwdPCWrVyKAXIiJ+FoXJBQmycHFSDfCUeGi29Bmy2cFSkLW5PV1TQZvNTMm35M6SUJhcyP6yA86aTCl2B9z6TNek920YWgNqQsOfJheYYPz6ku5QpSRn3LlP+HR+FdRUKLhed0UWNObFPUcDQ1XwjX2x9uJbWdCSdHkYdFRUy1a5UEZygXnzwmyHmXzls0Lfi+LPIReSX52CuooynClZ/d5bmyLIoyShmQklyYbot/wMkvKDpew78NVXK7VyQURzWllTDTy3LogpydlkB6GXty6UNezwx9mXsgTl8dGZlDgqy8gFceI5+KmrQK3iLEQrtFWUXMijBLyNjSb4+m5YfPK5ZP8nIfveZBhSQF0quZD1DZ0oaFC1bozP5HTk7yoruZCPrNhP2DCjH2x01CCwqoOHTKVC7ld0ceRDWUjJkezQQkUkhl2GK82tT/PpRSoX8mJeoqKpFrT9evyJlQtiTG/jCj4lZtfexrEyXVrlwpN5NdjKhfHHIkpNzph7SyIXHu8bAi01ZQzfcLMI0aGIspML4v9j7yzAo7jaPX6JbHbj7oa7u7u7u7dQoNACpbi7u7sVJ8EtQkKMCIEQIe7urrv/+87sJtmNAaXtV5nffXju183s7Mw573nlP+ecSbuLFlS0affeg2SZpL6yuJDudYvd/LDJtMPsHgLfhCgfb24fRL8WJlCUE2DWSU8K2CJ439tO18fD5P0Py4r4L6fmmQsPl3dkZy7soUS+pj7ICHdAO3NtWNRvAmMDXUq6NGFk1gBjfjmPBMlaa4aqxIVSinOS8Pj0RnSi4lVR1Qin34SUjdPqxIXAJ+ugr6yI9mNWIjRNnBSKcuIwuUNt6LX+c2YuVBIXCgIxpJEmNEzb47pTcFk7Pdo9G3w1/d8/c4F9yEBFzKBlVIAUojjJFf2MVaBs1AGnXlLskPR1+L350OHzZcSFUtIiPLF9wUgYaypBs+4wKnyykR38hopAddQZ/Eu1U+6rpTAKcxoZQcm0Nz5+wcyF1SObQEXLBDY03mscflVwZ9tkCFQ0cODJu8+KCynu+1Bbk4/G/RbAO5pZv04HFudh6bCW0KnfrUxcCDs5gn2SP+9CwGdmLpTAev04CCgerX4VUCkxznfZDnM1Phr88EC2aKD4HPnWGvNHdIQqjckW319CSjX2luuxBRZUeHRddA0ZVcxcaEHFTtPhvyA7t+qiMvrRNvbtHF1WP69UuIgh37C9O9QFfMy7ElZ55oL7aVhqK2PwT2dZO3ChnFJVWQvzmI36pNvmC2cuOJ2aA0PD2mjcgMYeFU0a2nqo36oXTtkwu+KLzyeMfYEOjLDVdgkiK81cKMC64XXIFxnjoQ/z5gbJxzJUFhfSI93QhnxK65GrPj9zIe4uOjAzJyhvjZYpIivzdxAX0qNeobWZOhXv65BYqb3EJL+9gtpaajBsNwGPvaMlcbQEDxa3grpK/d8vLhAeN1dRcSzAgoNPEO1zBc2NNDDs11tIkzyFz05yREdLTTTvvwwxFYr4khR/DGhkAs1W45GSliX59AsQRmFBB/K9go54Hl555sKpnwZCXUMH1239/5KZCwcn1oOKcnPc8/96ccH7BvW9BsXq3cz+BrJjPPrNZRhoqdP4P4W0SkJbzXyxuCDKxtlJDel3VKGiolL+T1Ud++66yS45kSLz2RqYaKqi3VpnJOdI+7fK4kKW33OY62mh3sj1SEyXXfrxd+W/Ky6QaYddWwQleQFGnvXHnK5G0K03FiGZ5YYQ/WI/eHLy6Ljsjsw6p8p8ubhQmB6FXvU1oNt8KBmU9EAQ4saqCm+LKA7GhNqKkFPvC8+M8uTxW6haXKDPs13RzVABaqZ98TFZXIgVfdwDYyoK60y+gpzPiBuy4oII/oeGgSevjLn30mSCQFXiwqvjC6jtlLH3yQc2OSmlanGBrivKCs2psNIZtA+Hlw6AokAHD96XT0lOdLkMZXl5dPrxokzC+ceLC5Q83F1LNsRD9422NSa3Xy0ueOyGAU8BbTeKX8NZijDJHa35ClBuNh1xX1lIiVK80EFNEWpt5yJN+rtfIC6gOBaLG6hQId0Ud2KLyq5TmpKg86jL9MvYSzLr6SuKCygJwbi6VJQLuuBtktR4EeXiwbzmZDfl4kKqz2PoqlBxPm0PBbnya/4ScYFJZnf10oM8rzZOBUn1L/Hx1nq2qP5ScYFFWATvXQOpEFTHipfMBo8F2DTEmMa3Bq57pMqcv5T81DB0r6cBvRZD2FfZSRPneRcGajy0mb7zd++5MPzXS7LFrjAcwxuoQt2wO94niNf/Vi8u0FixXQ5dsrMhax/JPkmrhAi+5xew4sKSJ6Eyth7y5hT0VBQxaOmZz9zHl4sLKPmEIbX5UNYbgA/JUuuYKbn4bXp9SL8toiTRGa3JRlRazkFMQdUiz9fBvNrMFe2M+Wg2dBtSKOlNdLsOFR6zL8nvETBqEheA99e/hyb1wXcHy/dSqIr3l+ZQEl8Hl70SERcbi6ioaCQkp8sUhQw1iQulRD7aAVWeAEP3OJQlj3c3ToSSmjEuuZULDkyf3aMEmtnI84hjeTHyV4sLxR93w4L6uN1iK2RLJWtfIy4I1I1wtcLrM2OctsOEztt3wTl2X4I422Ps3grdV95lp5iXUpO4wEKJ8NFF/dnZMw/cI1CU5o+BFjpQrj8CYRX2XPgsZOOHhtWBEt8Ch3yzyL9JPicCHuyqtOfC6Z8Hgq+qjXN21AafidMVeXNhBZQFyph66KmMXRdk+qNvY10Yl+25IITjuk5QVdLAhqdS+0BUEheosHBZD1NVHnosvCxT0AvTPDCynrrU2yKo0Lu2HBoCAdoue1hhZkERbNb1pd/TxLwH8ezmsxUpzgvH/HYaUNIfCXcqbmRHgZjCdBsax6qo23keItJkC8dA+70wpaJk+C/nkVvNZniF/r+hvoYy1LuuQVQ1/Zht/wtMVJXQfs65CiKHCG8OiDc8XHLGjbWnmCc72WUWLRbeQIbUsYXpoRjT2qLmPReKwzCvuQ7qTjiE6Lh4xMVEIzomji32ZR5sFAVjblMtKAla4l5QhkzhKMp0wABzdSiZTocP84YByeeyVBYXCpKC0aupEfv2hIS08reEMf7h6qpBUOVL7blAeeuUZtpQ0uwL5+jMavd4YfhaceE7VlwYivexsrNVvkVcyE8JQZ+mhjBpOwoRieV7gUnz+vQyqKtpY9l1Bzp/6XVWIy5YLWLFhQVnvb9IXMgKcURzc100GbkCd5a0gZZ6Q5x9l4CyZz+ZMRjW2hT6TfoiIFo2z0ig/KihsRZajlvHbjT55RTi2PSmUFFSxv7HgbIioDAdC3pbQl2nKWz8ksp8fiWKPDCEERe6bUDoF4kLL9DRXBOdZhxFYqb0WCrG2TktoCYwwjmX+LL7FuUnYs2Q5lCm9q1JXAhzO4u6BuroOmN7pX0nbM/8DE11VSw68QTZ1Yzx6viqmQspFI8jIxARIfUvMpJdplGVPTGUhF5GG7pu1U4bEUT2UHqYKDcSP7Y3hLLUngvCVG/0MdGBWqNx8E0iPys59u/Mf1hcoE7M9sQQMyXw67aFgUAR/Tc7Sp7aixFl+mJKQ1XIa7XA8Zd+5U8FRCWIDfSE2/twSSd/ubjAvKd067g2kOPrYuEZO2SR0RbnJeLmjtnQV5Kv8LYIIe6uG0zFlgKmbf6NCsLSM1PymxwOZ7cPZaJHov8rDOnREeOWH5d5MlOR6sQF5pwH5nahQkwNe54wv0/nECZgTmcjSjjr4uQLXwpSkvNSkRUX+A4eQfFl91pRXIj7bTZU5BXRfbUtFZrMuQrxye4cOltQclFhWcTbq6upjXiYtOchOTIhslOrfltEGVSEHhxPhbqSBSxMVaDZdjliypZzkLP2uQdtBXlYDlqDBMmbL5KDHTGnoyE7lf6PWxZBh6Z7YWx9shGdtjhv/6ksyIuojaL838LTP1pyn18nLggjr6AhXwEavbYhPk+8gz/7VFiUA6uFLagw1sCkHVaUzJQH5KzEMDg7uiKnogwtQZTzCSP0laBo1gdOceJgkJ8ajiM/dIWqQs3LIpjr/HR2LDQUFdBqwnYEJzPrA0uQEuKKlVNHYo9rLorjH6KNuiL4LRchlN3AT4S0UGd837cB5GvVKhcXqN1PLegEBXl5zNtjjVy6r5KcRNzas4ASex5qSb0tIjfYDmZqSjDpsQAxZAPMt9Oj3PFjbwvqS4WaxQU6OuK3WdDmyaPxqC0Io4RWWJSLd89OojMVQfJycjWLC8VBuH3jIaLZe2FMOAPX57UBj5L+o77i94m/Ob+Iik4F9Ji1FWHsGwlESAh0wqpxnXHuOdlZYTb2TKN7VdLClJ23EJMhPiY1whMrRreAooI6dtyncSy5h+RP9hjcoxNmb7le4yyAUnFBTtUUiw4/YHdML85Lxq21Q6GmwEP7hXeQKQmINYkLBRn+6NdQBzp1u8PKI7J8jJfkI/zjW3hJbaYY92A93asSOi6zRiYlcIWZqez5CpL8MLABs3FjR1xxDJSaCl2C6AAP2PskS/zUV4gL9N3dM9pCUUmApSdesMtnSrLjcGXLTCo4GBuReluEKBu35reEMhXA03ZbyyT4mQmhcHFypySy+rZk/Pmz+3fgHFC6qaAQCV5n0ECbiri5F5BFRYEoJxQLWulAUaMhdt6XXtsoQmKYD968DZIRAWWpWVxID3vNvgXCpNUI2PlTMlfWB3kI8naDdyL5Bfoo+MU2SqD5aNlnIn5dsw7bduzGgUNHceG6FT5SEsL6bKKSuFCSgPtnLsEnkklMxcc4n14CZSV1zL/qUWb/toe+B5+vge/OOVCCV4zMFGbnayHstvRllyIsveBF/U3HlmTj9eUNsNQWQKfVX7MsQhhzGU00lVB38CbEMVNN6egUinljO1pCQfnLlkUwbxlhXtN61c6XvQ/mvfo/dDGGIt8Y+2zI9smWMz0uw0CZj7ojtiEmWxzLEwJsMaMjHSdXviwi2d8Z5++/pnEnEb6K0rB2fFuo6taFjW8iSmj8PF/dF+rUxkNXXyMfUl7Y5qZEwdnOUbzTveQzWUSIursAhio81KUY5s9s9lWUhw8vz6NXI312/xppcSHw6QHoKQvQZPgyeISXvq2C8VdZeO/siJA0sf1URcbH+6hHxbNGo2F48iGWbcNYXzss6FuHfXtB+dsiRPA9Opx9Le/0A47iZRZkn15W+9gp5RplyyKYYugj+jTUhU7tzrD2jKYxVUJxwBWLh7aGEvlK6bdFCJOcMby+JnjqjXHA2kMscAoL4Gd3Ce1MqXBpPhr+krdFRLpZ4YmTL7uMlSE72gHD6qpDrdViBMkUK+Uwr9v7eSgVKBpGWHX6KZLYV5aKEPPxFWZ0MoWSOhWGb6LYvq+SknhsGFib4oIulp16KfYFRTnwenIeA/svxnvq1+LCEIxoZQx1w6Y48dhL8vrUEvjanEMXU1Wo1RsJh8hsNl4IU95ieF26X8opT9v6sXaYGuGFjTO7U+xTqPltEcIU7BrdEKpatTFuzmKs3bAZO3fvxZHjZ3D/hQuSGHtlb0MI+/3joUP203PmdgRRrGb6JS8pGPvm9ISqii5mXHhPfSg94qSpLC6ICtOxZVx7CFQNsfC0Dbv5ZlFOAm7t+g5m6sybl6TfFiHEzfUjoSpQwoxNVxDPvM1Dcl4mb3XxYGYEif3n14kLQiwd1hSaBo3whJk9wLyBjPI+5p6/RVwQFWVj25SuUFYzwPcHrRFL/kVI+arfmzv4buZsxCSkwfP6Bmiq0Vje+BtSJRsDfrK/hO6WGpS71ZERFxJdtqGOljL6Lz6PFPrdnBzx+KlOXEBRCrYPaww1fVM00VaE+aC1iCKbF7cZQb7k2IIBUFXVxtj1FxCSRN+l86VHvccGyi1U+epYe8Wp7Al5iPNFDO7VHWvPvqA2rd4P+1hvgam2CloMWQjXYEZEoFieFYc7O6ZQW6qh44KriMsq7bsqEEZiUht9aJj0x5uQJBQU5JGtiHO0qsSFwqwP6E25Rr2u3yEoIRMFubnsW/mY/3tzYgb0KLaNXnEWyeRT89MicG7dFJjoqkGOV7dGcaEg+RNGt7WEqkET7L3rhDSyTWFJIULf3seI1iZQ1m2Nx+/ID0nGuNeDg+jVowf2WbtKCUWV+XJx4XdCvuXnfvUpDutj+01n5FBf5SZ8wsGfRkNDlcYUX+ptEaI8PP21B/RUNTFqzWVEMrms5KezkyPh5uSGDLrvb7iaP5z/tLjAcPXnrlT4/B8l6S3xKEW8OaE0Sd4X0UCXef+3Aowbt0evXj3QxJJ51ykVJnOOk0NhvlGC+/PrQ56czPVgWXHBcccoyCsY4UCpuEDkB/yGZlpKrJCgZWDCPvVT4Otg9Pc/UeIsj913SsUFGjgJHzCgHrO+vBa7e3bXnr3RoXk9KMnXglrrqciVvIqSeT0mMzVZq/0sKlTKB0JFhCl+6MIkA22mVhAXKHl9sh98KvjqTDgguS8moT0CfWUlun95GNVvjT59eqChmR67F0WfVffLhIwTPzLigj6eUyHBXjvzdLqpFuSY94P3HYHhvVpDRUUd3bp3hWKFmQs5ftYwpkKpVi0eDM3NoaTcCy6ZJShmxAU6R+3Oc5AkLS4Qfk83QZMRY+SUMeNWhZ3ghak4OJiZ1lwLRo27Y8Ko/jDRVEHTsfNhrq6E7y5R0Se+SNgvawJFnjlO+8mKC3umdWHFBa8K4sK+kQaQ57XEc4m4wBD2+gjMNMlG5HgwbdqRbKQbGpprszYyfMVlSX8U4/zMulRkNoB1BXHh5arurLhwWkpcYBLv7zvqsK8d0zU2ha5hHXgGSDbcFMZjQntT9h3OKvp10a1nL3RqSU6Kkmf9hv2o8K8uIIgQeGIENKjdVPQbYOyE0WhqpgXNxuPQoo4mmk8+VYO4wJCHBf3rs78rL9CCmZkR/W85KGm3xp0I5lWUJTgyhwpCsk2zFt0xcfQA6GmoonWnPmyiuvqKS1kRneTzELU1ldn7U9M3Y98brqhijKWnV8NcSQU/S8QFZk3imfEN2LdN6NbrjHGjB8KcAmKj0fNQn4q/MccCahAXGHKwqF9d6ota4GkYwMRAE/Jkk31nz0AHSuZ6rZUVF5i1qJOPMtP76Zx5T9CGfkNRoI12XXugZT0jdr1649FrKQkW22NJejAmNTciW/s/6lt1WJgZsOvnecrGuOmRxNqUMPENhtSj36VjlNR1ULe2KSWrcpBTVEG3Xx/ItHmI4zloKSugxaStNc4CKBUXGjdpxvY7X1MfhtQucuRTdJqPQQAVd6WtUuS1E8Z8JfTa5lFJXGDsz+viz9BVIX9EY7p20w7o06srauurUzvxMe40ta/kO6I0R/QzZPpMDnrGJtBUN4L9J2Z6KhVbr7ejHvt+b3mYNW6D3pTcNDLRoHPIo+GCB5R0MPcoxLu9QyBQMsCmtxXFhQNUeEht6EjEuV2FsZr4neEalHgxu64rqplj2fEVMOKrYcML8WsBGYrzIijBYMaEHNl2PfKTvdChZV3qT/JbLYcjIqWGJIkSkcWDm0JRkY96LTugS/smrH9V0m6Jm5+oCJJ8sTD6ETqYU7vI0Tir2xI9e/Ukm2CKPXk0paI3WebJqzRCOK9qSYW7GY6+zyk7XzlFcD4wDTrKPOoDBTRo2YmSn04w01Gh9lPBzDvM7AQ6S248Fvesz77qUVVVPAVTmYpKptjkG7bBsxhxwsGIC+2YKcxjyE6Z5KnwA8aYqEJBQRkN23RGtzb12HbRrtsd7yIpLkmuJ9PjIkxpHMrVUoKRKRXTgv7wTC1AcshztDBWYzfiHTB2Mnq2rA11AwsMamEK/TZjUJq4M+JCp7paaPEV4sLGTnrgm/SFZ0VxYe1YKGlK77lQjBUjmlEfKaJ+pwEYPag71JRV2HbiK+vjrMOnmsWF73tCx6gVepBN8OgcuqbmUKPxLyenhG5LL1OhJek7uqadgyxYf2XevAfFjj4w1lJDi+HTYEi2uOy6WFwIuL8T6ip8CCgmd+rWDQ30lal9eWg19TSSSpdgCZOoSKf+onMJdCzQpUdPdG7TEGpKClAzbAm3sJreqJGLFcObkC+RA48KIVNDLcojeOgxeQo6k510X3qz/I0JohzcWtyF9QcKAnW07twT3Tu3gT7lFfKKWthll0bjXnxoZQphu7EPtBihkqcMC3ND8k0K0K7TEyM6NoFJq+FlyyLy0z3Rq74OeAIN9Bw2Fn3bN4KKhj76tGkArfrd4R8jFheY+Gm9aTK7J0ctal8jE0N2BqhW45FYPqU1BFqDy8QFBv8nu2BJtl6L/Iq6kSVM9Mhv0P9W5Otjt3X5hnKOeynp5itCz6wxevbsAgNNAbu548r7vjXukp7icQktDJhz/h9UtAxRh3w00ycKAh0suOAqu7FiFcR/uI3mpoz/Jt+iZ0Z+Vo3GpQIMe69FODu9WwSvq6thpKHMFtmaBqYwN1BnfZFAuy7OvAkSi3IS3t9cSsUJjTN5AczqWEKFz4OWRVssGtgAavX7yogL0zvVpzE2umzPhQS/B2hmogmBQAWq7PRrZQjItzM+stXo1WVTvwvTIzG9WyPwFeRRS1EN5uamUKX8kMnH2o9f/5kp4iL4nZ0DLVV9LH0pFhcY8gOuowPj0+m3tPWN2BmFPMpbR06fA2UBH/tvl4oLdGycFwY1MmLtl7H9zmT77Zm8lfyOeruZSMwU38+HJ3vE4sLxZ7LiQj75WgM1NJfZ0BG4uWkK1CgO8NT1YWygjT67val4FSL8wc+suPDjeWlx4Sla0vX2mS8rLny6/CMrLiyyDmXFBYbCsAfoXUcHinRvKlr6MDfSovGsALMO4xGVmIGSZHeMbKBP96OEpt2GYETfNtDRMMbQKf2pEGyMiz6pZdP5c1M+ok8TiguKSjCxtCS7H4YUZrNFZp+D5jpQaTwfvqlS4gKR9nS5JIcUYMlFOyo0ZWOJMNkN41uZiOOSqhbqWJpCmUdjVkGAjouvIaFMwAHe/vYT9NWpUF91AZlSb+CoCDMzYNOoNlAnf1SL7svUwpzyMEWyEXlY9pyDcJkZKlUhxKH5PdlZK6q6RjDSMcU6Gz/2tdNpr9egNo2T6VLiAiPKLR7WCgK6bk1jc+hqNcCxwBQwz/8ywp3RuaGReIzpmkJDRQA14xZUaJNv0qL2jSwXF45Pbg8No/Zl4gLTp/G2O9HMSEOcK+iZUP9RXzJ5GOULa5+EyixBf7B3JvWZMr4/9hBZNcxmuL15PDRZcSFARlzIuv8dTDVVMe9bxQXC5+E+mOiq03VTTDIxY32BqnFrHF3RAzq67XGrVFxgECbi+/6U79E4Vta1pLjTA51aN4Q6tT/zcMgjhNnvR3Ls34D/vLiQFuWDe7duwsrGo9K6IxYqmKJ8XXBmzzpMGz8aI0ePxZxFv+Dk1fvwZRIz8UGIf/8Kd+4+R0yubO+mBb3FnTsPESqzBIJRzl9j168/YPzY8Zj/y3a88ApHRkoErO7eQVCs7NqpgpQQPLh8GAtmTcbIkSMxeeZ8bDt0AQ7eoWXJSUFGHB7fv4NXb/2lCtcqKMrCm8f3YW3rUfaEoxRRXhJe3r+Nu6/eSc3gKEacnzNO71qL6RPHYsSosZj74684ce0BPsWJX6/JEPbBAXfuPaKgUX6fiSEeOLb5Z0waNxbfL9uMFx5hiA17T8c9REKWVHuIChHkeBvL503D6LGTsPLgI6QxarmwCE4vrPHE3rtSUVSYlYCn1ndw+/4LxEne7iFNSXY07p7egdmTx2PSrMW4+MgV2QUpeGF9D95RpU+RREj1s6XreYbIHOl+EyHEwx53H7yQmbrIfB7q9gS379khSdqp0HVGfHiD4ztWY8o4xkbG4fvFK3HmBrUR83ou9iARorxe0G+9QoLULAvm85QAR7KdJ4hiVHTJpwzx/g7Y/NMcjB07DovWHaG2LQ8UWfHBsCabWMjaxChMmjEP24+QTXiFVFFASiHKg9OD81gydwrGTZqJXWetEEN94WbzEC89IirZREVyEkNx/9xezJ0yHmMnzsDqPefg9imWbE78vby0KNw/s4P+PgGTZv+Iiw+ckJAQDas7t+EblSplmyWUKDli39rFGDdmHOav2EH2EYgSKhKf3rfCx8Typ3qivAQ8urQfc6dSX85YgFP3HJBZkAa7R/fxNry6TfTKyYoPxLXDG2j8jsW0eUtx5bEzUrOS4GB9F45+jGAjPkF+Ugju37kLj3CJQEa27/PmAbb/uhATx46hcfcDDl1+hPDk8ilsDEVpYbh3dg/mTBlLbToda/ecgWug7CujMuICcPvUTnw/YyJGjhqDecs24a6tZ6Un6m5Xl7GbEy4+ycyeqD5SlO25sO8+3tncwi/fT8OYcVOweu8F+LBPsSUHEqLMYDy+dxdOwdVtfFaEUE8bHNq4DFNZH0c+aek6nL/9DBHp0k8ERYjweIxVC2Zg7LiJWLrtPOLLXp9K9u3rhFM7V7J+ghkDjJ84ddUafvHMLBf2IGSFuuLe3ccIyhQ/4SglJyEEd2/fwbvwpLL+YNo/5r0ddq5ciHHkJ39YtQe25PMKs0PofqwRkES/LXUSpp+tLh1i/eQoGhOMn9xx5CIc39F3aig8mWtPDH6Hy4c2Y/bUCRgzfiqWbzkGJ/+YCuOB/HyQFy4fpuMmj8Mo6scZ837CkQu34MUEdpljpREhw98Od+8+RXi27H2XQT4wwPUp9q5ZjMljR2PU2IlY+MsmXL5vgzh2xo4Qrw9OgqaKPtZcdUF6egbSUlMQHxMOl7sbUIeSQp1hJ9lXVpbkZ8KGfLyNq7+kMC9BjK8Djm+nvpk0DmMmTMPGg5ck78WWuhpRPnxeXcNPc6diLLXB2uMvkc7Yp7AYoV4vsWPlAoylfl26+ShcacyHeNjikY1rWfFXUpAFu6fWeOXsS4V+9bZbThH5/Ye49+QNMisUhzH+rrhjRfGEmW4rucSs+CBcP7oZMyaNx/QfVuDWK08kRFGf33+IiGTZ1wxWJMTrNR48c0ZyQjisz+/F9AmjMZF8ydGbr8pnH0gozIjA7ZPbMZt82OQ5S3DliRvSMuPw/AH5JYmAI8xLhfPTG1jz0zxMIN8w9bufcPaubbmwICGXYvqzGyfx0/fTyV5GYeK077Bp/2m8cvFnk/CayEkMwa3jWzCT7pc5/0VrByRlJOHNg3tw8IkuE2oZhMU58Hh1B5uXz8e40SPJN0/D0nW7cfupC1Ioua+haSh8ZcHh3hn8OHsyxk2eiR2nbiOYfFyAmy0e27iUPRFl3v4U9dEBB9Yvpnseh8Vr9+L1hyiEf3DCw2evId7cWoyoMAMujy7hpzlTMZ7izKZjNyhfSEeMz2vce+TCLssru6aSQuofOxzesgKTyPYZ+1y98yTe+MbICMf56VF4eu0YllBbjqY8bD7lFFavvcuvr1pESArxxMUDG6lPadySf1uydg+eufjKLH2pFlEx3bcTjmz5he57NKbOWYyj158gklmKUXp5NH5DvWxwcNNyTBk/BqPIF6/ZfRpOPlEywgIDMwvF6+UNrFwwk/XZ6/edh3d4CqLfv4b1c0cUle6/U1IAT7unkjFWDGG6N2a0NYFB+1l47ReN9LR0pCQlIiLwHTZPaAeBqiUO+6aVPUEvSAnHk+sn8OOcKdReozFrwS+4bGWPOOZ1mTUZBJET6Q1rGld+yfnkIyQfUjsyeeueVRQPx0/ADyu245lHKFLiQ2F97z7lrellD5sYClJC8fDqEfr9qRhNts/4460Hz+O1d0iZgJyZQHkMxab3YRQvpb7LCHO2FN9t2CfO5e1XmBaJW8c2kQ8Yhylzl+KxH/PGCxGYzVUfUt7wISqz7DxFTD77yAqO3uEy58iN9mHvzSehXDhm7i05zBNnd6+i+DWO8ozvse/cHVYwKz1fBrXJmV2rMW3iBMxavAEPnP0orn/AowevEJXJPFxhD2MGIwKdrbB20WyMHTMBq4/cEb85QJQLT5sHVGt8kFnaxVKUhNdPrCi3fIDIZLFgX5GshCBYnd+HhbOnsLHnu5/W4cZzV2TQucuPFuLu+kEUJ3Sx9+FH2eUOVSDKT4bjwytYwVwr2ciUOT/i2DWqVxKqvoaKZMT64fT2XzBlwjjM+nEDPKPFMaUoLQBPrK3gGZYuJfpSG4e8xcENSyifGot5K/ZRHiDZU4bGWCz5ln3rFlNNNAE/bzwEJxr/GeGeeEh5eHQetS97jmKEU9yxemyLgoJy0Yk5d5SvM05S/jFj0liK4ZPxy9YjsPMKqvCQRohjC3tBXd0El14zsyyrb5/YADfcu/8AEUmyInBxwns8srbG++icsocbv5viPPg7P8Smpd9jPF3z8m0n4EpjOzvcDQ8f2yG27L7F5CSF4SnFk59ZH0gxbPp32Lz/DF5RrM+V2Zvqf89/Xlzg4ODg+Dsgyo/EDx31YNT5Zwq6NU9xq35DR45/JaIUrOioBiWTMXhfYaqqMPM1ehoKoNJlOxIqFLccHBz/DlLsD0NXTR2j9tlD9s0VxXizcyzUVU2w2T0FkgfFHP9BCqOfo29tA3T64aJYRJJ8ziEmP+w2uloaoc9Ka5nZHhx/PJy4wMHBwfE/RwSfiwuha9oaNqFVbw4pDScu/NfIx7Fx5uApqeO7PffL3jySk+CHVWPaQsDTwjwr5ikply5xcPwbKfC7gXoaKtBoMAQ3nQPFT+NFhRQLzqFzXV1oNx6I4LQsrmD6r0K2cGPlGNRpMwzvIpgZBJLPOcSUZOL4jK5o2mc2wpJKZxRz/Flw4gIHBwfH/5wSfHJ6isevP1DS+PmwF2BzUCwuHH7BiQv/EVIDbTB7SEfoqipBXkkFmhrq4CkowqBuK/y46zpya9ijg4OD4x+OKA9251ajW1Nz8BUUoKKuAXUVAbsHRsueY3HJxq9siRLHfxBhEd7aPIS9dyRnB1XAbNxp9/A+XP1jZZbJcPw5cOICBwcHxz+M4rwMeL51R4LkTRYc/x2K8zPh7+0OV1cPhMRlfHaWCwcHx7+LrKRIeLq5wN07AGmf2VODg4OD46+GExc4ODg4ODg4ODg4ODg4ODi+CU5c4ODg4ODg4ODg4ODg4ODg+CY4cYGDg4ODg4ODg4ODg4ODg+Ob4MQFDg4ODg4ODg4ODg4ODg6Ob4ITFzg4ODg4ODg4ODg4ODg4OL4JTlzg4ODg4ODg4ODg4ODg4OD4JjhxgYODg4ODg4ODg4ODg4OD45vgxAUODg4ODg4ODg4ODg4ODo5vghMXODg4ODg4ODg4ODg4ODg4vglOXODg4ODg4ODg4ODg4ODg4PgmOHGBg4ODg4ODg4ODg4ODg4Pjm+DEBQ4ODg4ODg4ODg4ODg4Ojm+CExc4ODg4ODg4ODg4ODg4ODi+CU5c4ODg4ODg4ODg4ODg4ODg+CY4cYGDg4ODg4ODg4ODg4ODg+Ob4MQFDg4ODg4ODg4ODg4ODg6Ob4ITFzg4ODg4ODg4ODg4ODg4OL4JTlzg4ODg4ODg4ODg4ODg4OD4JjhxgYODg4ODg4PjSynOwBur32Dt6I+iEqHkQw4ODg4ODg5OXPgaRAXY88MwdBu6EOEZ35BQiIQoEf7HExJRDjyeW+F1QDJEIslnhFBYIvPf1VGcm4rnVnfhHZqCLzj8D6QYzoe/R5dRi1Hyj00qRYh+9xLWdj4okGpsEdmkUPg7WrM4HU6P7sI5MOmL+u6fjsP5tejcdwI+xOT8CfdbhGDnJ3jm5PP7+uIvRpQdgxfW1vBPyv1P9P0fgbC4AH6uL/HYwQ9Z+cXsZznh7rBx9v1H9DkHkOV5FQbKAnRd9htyC6kPKaYL/+sxneN/RAkivezx1M4dRcUlks/+HRSkh+Gx9WMEJ+Xjq12jMB/3dy1E9wFT4B2XipJ/oWv90nyZ4+sRFafhys+j0XPoIninZNEo+wqoU0pKqG8k//lfhBMXvpgiuB8ZDy11c2yw/oSi35tHkMO7uW0RBg6bhlexVJxIPv6vIUp/gfZK8lAfcrisSM/2tcKEIYMweesj5H8mksR4W8FQTQHDVlxGyV+YkOfFf0R3S010nrn7nysuiDKxtqsy5NX6wjWnmLVBUW4g1k0aiiET1yMw9+ucYkn4AzTgK6LujHP/iad4SS7noC9QxZwT9ij+gzMWUX44JlnqQNBsPAqYouVvTvqLbVBR5GPIYR/q+79uHP5jKUzHvundoKWhAXWePOq2H46TVi+xZWxLNBu2jPq8SHIgx9+Ze9unQVlND6ftAlCcn4RjP07G0NEL4ZJWAE5i+N+QE/gCh/fswNYtW7Bl61bs2nsAF289QWRq9tcXpv8kipLxS59mUK3bG6kZWZIP/x2EWi2BkZoKFp9/h9zCrxtZyd6X0cJUFyNWXERaToHk038POX4PMGvsCEzebIWU3ELJpxx/FN73d8JQWxPzD1gjM+/r2vfD81MYPXwYDtxzQW7B3z+P+zPgxIUvJD3oFRppqGDkqiso+RapsCgTq0a0hYqGJQ68T/3vigtpz9FOSR5qUuJC9JOt0FdXhcGA7UgtrjmQxHjfl4gLl/5SceGj9UpoKilji1UgJSz/0N4TZWBtF2XIq5aLC8J4W3Q31ISafi/YJhV9tbhQnxEXpp/924sLmWGuGNanG1ade/X7Zw+VxGNlB2qrFnMRKmm/P4pycWHc14sLomzc+GUs+kxYjjj67l9hnWkvtrLiwuBDnLjwJRQnB6F3Mwssv+COnChHzBzQGtrqKtDQNcXyk3bcFPt/AqIczOtlAZ06/fEhLhclWaGY0tIC6trNcTEkB8W/Yxi8sz6EXn0G45F3xF8az/5MfB/uQr9eA3HPKwnFf/o9leDl0uZQ4SlAVVsf+gYG0NFUh4JcLaiatceRxx+Q+7ufCFVDSQTWTB6Iob/cRkr+/1AULErG8t7NoPIHiwvO1zeid+9BeOnzV/Rf1YTeLxUXvL5KXCjJDsWyHmZoMngFPqXl/isFv5inO1DPSAeG/TYjIj3vy+K9MBXnFg7HoFnbEJmZ+5fkCP9EhFmBmNOjPpqP3oHA5Jyvtp9nR+bDUE8bU3feQkbuv0/Y+hI4ceELifWzw+7DtxCb/a1BRISs5DiEhUcj7z+cjFclLogKsxEVHoaYlFz2v2vifyIuUPG2Y7AhFHUHwT3jryne/hSqEBcgKkJSdATCo5NR9JU39k8SFxI9raCjwsOA5edR/A3XGnBpKtSVNLH9RTzZn+TDP4BvEheEKVjX2RSKpr3gm/d1AtHvhRMXvg5RSRFioyKQniPun8KcDERFhCMyJhH5v6cq5fjLKQk4jvoafHT+5RmyCkuYTkV6XBTCI+NQ8Dtj0bOD8yBQ1caRFx/+NQKTw+GJ5CP52PMoFIV/um2X4MUSKrD5Wlhx2w8R0XGIjgqH291taKivDBWTNngdyPjqP/A6Cj0w2EIdqh03IDKr4H+XD/xJ4sLdTSOhyhfgvO1f0X9V83vFhbyY9zh66AQ+Rqb+a8S6ijD5cnRkBOXLzMycL7zHkigsbqEHlXpj4Z2cyc2yqobCcEecPnsdUYww9TvMpyAnHeHh4UjJyvvnPoT8Rv7b4oKoAP7Oz3Dm6AHs3nsA569bIzBe1jkLi/Pg7fAYp4/sx9ZtO3Ds7FU4vo9AYQV7SQ9/ByevYPq8CFHvX+PSyUPYufsgbj51QbqMUxQhJewjHF28kC31dF5UlIn3Ti9w8dQx7N65AweOnsFzlwBKViQHlFKcBU+b+zh2cA927zuEq/dfIj4zX/LHqiiCn/sbuLwLQ0XfzCS6vh7O8PCNLC+QKFEK9nbA5dNHsGP7Lpy8cAueYWky642KsxLg7PgGsTTw8jNi8Oi3c9i3ew9OX7FCRJXCQAnC3tni7NH92LPvCO6+9EBmwtMqxIU0vHN6A5+oDJlALSqiPrB/gOMH92IPBYzn7sGIeFeVuCBEWqQfnty5iqMHdlP778OFGw8RlirbPsz53r9+hFNH9mHH7gO4fOsJHfP55EAY8xitVBVhMfU8cqUSwMKcZLi+cUJ0WgGK00Nx//Ip7Nm9H9cfOiNN0oEZ0X64ee4Ydu05iFvP3GT2OqArQsRHNzi6BlYQnMhWgt/ijetHZJfdYwlifZzh7hcBYUkhPrk+x8nD+7H7wAm88Aiu0pFlRPvgxoXjdE17ce7GE8SmJ2JNFeJCuLcznN+HoUjqHAUZsbB/fIfa6gC2bduJk+dvwD0oSWb9YlXiQhF9z/mNCxKy8pGdGII7F09gL42x3x69QWa+2JryE/xw+wK1CfXBzWdvkVGFqlGUnQSHJ7dYe9+x9xCuWdshLkta2BEhOfQDXDx9USwUIsbfGRdOHKSxcQT3bL1QWNZPJYj86IH7p7dCQ6CA9hNW4JWNDezsnRCbLSw7n0hYjCBPe1w6Jbb/UxdvwTs8rVKASYt4jIbaPPT/6Qryfv8aKfIbnrhJbbBz115cuvsKscnBmGSpXUlcKEiNoH64jRPUDzt27qbruol3Eell6y2FGdFwsnuAGc30oKDXChefvYStnR28/KLLZloV5yTC6bkVTh87RPe2E8fPXoOzX7xMf9dISTbe2Vrh2P5d2H/kDF66hyLh2ZaqxQVRMWJ8XfDbhRPYvWM7jp6+Amff6C9+AibMTYCd9XUc3LMTh05exJNXtrCj+7Gzf4OwTPGynezkEDg5eSEtLw+fHO/j8P79uHjXBtkSR5dHbfnS+gaOHdqP7Tv34MzVe/gYV75PRlEKfd/RCcGpVOhXuCxhVhQ7pkNTC9m/leRnwPvNM1w6c5z1zweP0f27+leZuApz4vHq/jUc2r+H/PgpPHGkglHquELqK8dn93Dy6EHspL48fu463gYzY6ryuXJSIvDk9mW2HRhfdfHWYwQnZFW63ppIJZ94/9pZ7N21EwePn8Vz1yDkfXGxIERyiCduXTrF3vfeg8dw77kr0qiNv+wMQiQF0/dp/O/ctQfnf7sHW1txXzq+ZQpp8gVM7HNxQlBCJjLjA3Ht1CEcOHIO7+IKWX8W5e8ORzd/5MjMZhMhLdQLTm4fkCU1xuP83CiehaOkuBDBHrY4f/wgdu07jHs2nnTPlccpE98/vHmKs3Tctu07cPTMFdh7hyG/OqFMlIObc1pAoNUU14JKZymUICHAA87uvsgvnQ1Vko8Adyf4hMTSteTDy86afNheHDh2Dk6+UWV2wxQIHs6O2L1oOHgCdSzZcw4vbWxh7+wvkx/kpkXhxb2rOLRvN/YcPIr7rzyQId0HIiEi/bzg4ROCosIMvLa6jD0Ua556hLNjLj/hE1w9fJBbXIKkUG/yOSexi/E5dyh/qDD7KjsxgsaVG1Kz8xHm8QLH9lFsv20jtZ5fhOwYPzy8cRH7d+8gX3Aaz5w+Ir9I/HdRSQHev3XE4cW9ocxTwvzt1/GSxu8b7xCZpYQFaWF4dvcKDtI97aO4/sD+HcU/6UzjaygVF7Sx2TYVBWWXWoKLy4ZDoKSB7655iX01tdWn92/hHRiPgsxIPLpGtn3gGFwC48r6RViYRXnfE9Yudu7ah3PXHyIonooxycDLiKIczuYMOhoqQ9BkJm4+fgFbiiXRGbLFSFb8Jzxg2mnvbuw/fApPXfzItqTtUISgD+5494n8cHEOm+cc27eLxul5OH6Mpvgl3TMMImTF+OL+1TPkO/ZQPH+E8KQYLO1VtbhQSPHzzdM7OEG2t4uJn1a2iM2gXKfiaaUoLiCbdHXE5lndIKD+W7Ff3H9OPhFlgnxxbgo8HJ7iwmmK3zvpek+cgx3lv7LCmAihFHM9A2JRVESxw84KR6gdjp+7gQ/RmWxbM37V+ckN8t17cZxyzU9xGTI5TLm44ImksPe4e4X6inLN85THRKQyhZvkwDKEyIr+SG1+AfvJZx4gP/3C1Q8FEttkEZFv8HaFN+W1RblpcH12G4f37cWJi3cQnCTuv5LCTDg+vkHjTfx5UIXrqo7EcD+4uPshOy8THi9u4QDlPHds36Gw9Pcpz4rxc8XNi5Qj7twpjosfo6TyFDHF1C6uL61w4tA+7Dt8ElaPn5PfpPhHfjMgkmIFXSSTL793dYYP5QHScTU14j1uk7/eu2cPnf8S3nyMZPulJC0ULq9vY2xdDQhMeuKs1WPY0Pk+hjGim/j389Ki8frJXZymmmj7jt2U/9+AR1CCTGwXFaXjvZsrQpJykErj4BrVCgePXcCH2Fw6j+SgKshLDoXtI0kOQ77n9JW7+EC5fsWcoCAlGI9uMv23m857lvrPHwWf20uE+vTTOzc6XyabjzsxfbeX+Q0rhKWJ9+soyk2GrdU18jf76PP7CEvMkupTGldRH+Ds4o2UfFl/mJMUDhdnNxo3OVLHl1B+44SrZ46xeTXTTu9CE8rGR24ak/86ITJJbOdlCPPg9ZrqSYr9e/cfxpW7zxDJLKWTHMLUgT7Or3CZ8ow9u3aR/Z7FM6oDswtllyoXZ8bC7uFvdI+Uix0+gfsv3ZCe8z8UOKvgPysuiEpycX3pACjIyUGBx4OSkhIU5OWgaNAXb1LEHSkqSsaJWa3Ak6sFBUXxMYp0TC1FNSy95CKVDJbg3rx6ULKcgGuXVkGdCi0eHctTVECt/6uFXvNPlReNogKc+64bFDQa4gWTJLIfZeDnQU0gLy9Pv8GHQCCAEvPdWoqYsd++LPkXleTh9PzedJ0K4AuUoawsAI/Hx/gDr2pwfBmY3FIdyjrN4BEja3zZcbZorK2AtqN3UCJDfyHH53ZyGrSUFMDjC+j8yux1KKiY4IpreFlAirY9DiUFZay9eB7TWuvTvVLb8BTpXv8P+l1+RKSkeBQjhPv5xVCXrwU5BUW6Px7dpyKG/DgXLXm1oColLhQHXoMlTx4Nf7hXnoxTkfJk9zgoK8hBnu0D5vuqGDDnF+goy8uIC+Eup2GsxmP7ik9tyOcrQZ76TsliFNyTqEhgjyrBy/2TqCBSgBK1oYrkHttNOymTzFVF2O3V4CuoYNolHxmHEeF+FgbKPCzeeQbdDfnUJ+V9P2r1NeQmuKB3Ax3J5/L4v1pK6LHVSSqBLcDCLhpQEHTDO6bQkXwKUS6O91eGgnJbPM+WODxhPFY25UO35xLYnPwe2ip0TtYua6GWvC5WWIdSwlt+banvb6KZpiLk5KhPmeOoHS36zMHcttQ20uJCcRhm16Nz1Z2JYIkjKwh9inZ6fChQv/HJHgQC+t9k/0radfHgY3yZQ6xKXAh/uI2O18Wee1cwsqk2O3bYe5dTwqjdzxD78Qla6DD2K/6caavR6+7IBFlhQSSW9qtDv8+jc5G9M79P/Vm/zwIk50pmEIloTMzsBLX6ffDh4UbU1eKLxyndZy05FYw65iF+mkiBeEmfJvQ5XQPZaS0a98x4k1fgY+szJlgz5yqCw5HJ0GLGL90vYxvMtfE0auOmR6TMGCukZL9PI23U7TEX6aXX8pXEvbuLOpp8yNF4FvsfedTtMhh9ddUgaFouLqQG0jjVUy3vBz7TD9TfSpa44ZXI9kPMvZVQ4/MgV+v/6P5qie+N/rUYvAbpBcUojHJEF0qEmXMoSfqS8WXy1EeXnEJlA2BVCAtwYckg+o682BfSeJdXVMGPc4ZDSZ5XQVwQwvvuRuiqUj+QP2P9CI/8iKopDtmHfVZgKM6IwNxOZtRX1O/0XQGNY/a+atF9kd+ZeSud3fPG5dQ0qCqZYN2OjWwSzNi3YbN+CEvOR4zrNRirlPsC5hyM7SiqN4XNp1S2zTJfrIIO9bX5zFvIlk4+yUe4b+gAPk8Na54m0/XmYu2oxnQ9jP8S+2fWZuU1MPPqJypkyu8nN9YTQy1V2bZnrodpJzk5Prqst2WL46wYL3Stqw1FxfK+ZGMKzxSn31AhWtY2IhRE2WBQQy2pczH9WwsadfvALZkSa8mR1SNC7qcbaG2iBkVqH6Yf+OQ/a/2fHL478BiFn/F3zPe9b2+CgYD6mr13amPqx1p0DXV6/4SwlHyx76iBJL97aGaoSr9PdqAi9rXi8ScPQe0eiM7MRXHEYzRRU8XwbZcxv6sJtQvjQ5Wx6G4a+YNCrOqnT3bUAY5xUsUEjfvzY42hpNIC91PyqMcIYQo2dzGESc8f8PzQTOir0XmYa2bGPPncfqsfUkFe3s+iohScmdeBYoHEpulYcXxXxeIzr5FfRfsUxXuhrbEmLAcuRVa+ZB2uMBXbe5lBYNgDbpnifhGm+aG3uQ7aT1+HKz91h5Yy9R8Tu8gG5TWb4oovUxBQ4hryBvWNmD6uxbaLnGTcKgh6wjFRXOgURDtgZGMmfkjGg4AZD3LoNG0PUrLF1yCi4m3JoOao03E0js5oB1U6hrmfzj/9htyCQrzbMxjqJl3w0P4Umptosn8Tx+xaMOryM4KpUCttWvszP0NVQx+HdvwEC1XKRehY5cbDkZWTx/499j3Tpxo0BsQ2JaD7klNQxbh9L5FFVX1+hie61NZkY5L0PfFbzqZziIX+VL+n6GCkSufgic/BjHGKDe1+uIbEnNJY/TVUIy4Q784vgRqN2b7b3iCH/iCkthrf0QQtBizB3J71oMy0BY3r7048Rh7jc4X5OP5jP/a+SvMsxi50mgzB++Rs6l8h7i/rAnUBM5YYvySJJYra+PXJ+zK7SXC/jFYGKmyME98jtRP5guHrrZCWJxGOKR+c2tUcTfstxZYZ3aGmLI5fbN6iVRe3PcJkhMn0cEd0q6/PxgrWXsm2DRr3xID6ZH91esmIC0z8/GVwExrzSuDT7zPxkzlvg34LEJ9R/ZT4pJBnaGGmxcYY6f4TtP8JaVmMDeRg4cDGrC9RorHKxBIeE28VdPHzTX+p5SeF+K53bdTruhibZ/WGugpjS2IfplWnH94GR+LYj/2hrsrEB/KT5ONVm0yDR2J22cOLUnFh9MK1MNNSZ9uStVs6tn6f+YhOzZa5jwjy+w31NWT8nZyiOiYfdURGaV5aHIApTXVgOfUCNs3pCzXGL0l8K7/+NLquAOye2AIaTF+wY+T/YN7rB8RQcfk5uzyxeCD0zdpg+8JR0GTOS7/fdDTF4CzmoZsQnrc2wViLbEIqLiqqWWD/q8By8ZPizbnFvaBOv8/nS/Iesr/SuD5q9QVk5RagOOgGWuiqo+H3v5X5gTTvq2hros7ac6nN8cyGwy0pAyHnZ8BAQyCx2fIcof+PR5BB47Ig0ArdLLRpTErlGZQnCYxa4qlfdJkdFgffRkt9PYw/eAcTO1mSr2H8tQpW3o9BTsWnrhJi3/6G+nrqFPek4jHdE0+jKR6/o3NLOjwnwhE9LSlfpP4rjf08vbZ4FZ+GGudxFvlgTBN9NJx7DUvHdpWyKYqXLebBK+gD1o8W9ymPtZ9aqDtsJaLSS/u0BA8XNKQ+q4vj7xORX2rC9Nc3xxZCS8MYG168Qw6bJ4jge3cLzLVUy9qZsTPj/ssRn5bNfsvj7lZoa6pi2ZnnyJYsmRLmx+PQhOZQp/qKsU9xPKA2MBsHt0jKabLjsWRwK/JhUuOKyTNq8fDd/qfIzBOfpygzGvP6NoMytU1pXsxTMcARm/fIk8lj/rf8Z8WFsOcbqSBUQPPBi+H0/hPCw4Lg8uIWZgwdh0eR4oLr7pbJFFSU0GfeDjh7+yMyMgxuzy+jv4UA8iqWOPEmUVJwi8UFBb46dA0sseKENXwCQ+Hv/gIjWppQcW6Bk+/TxEZchbggzEvD5pWrcOmBPQIj45GWmozAt0/Qo542tJoMQnyW2HFkxdmiqS4lDDP2kaPLR2FeBgK9nOAamCA+dzVcXjUM8pQo73nmS9dbeqQIXgcGQkCF+q/3Ilhn7v94L3TI6Psu2Au/qFQUF+Uh+O1d9DJUhE7LmQjIE484VlyggkhXWwMdx6+Bw7sABPt7YO8UKt7keJh+2K2swM1PcUVnMzVoWXbCDRsPBJPjfnljN5oYqUGOnNznxIWol3tgLJCHdusZeOTqg9BgX9zYPR8GfHGRKC0uhLlexKrdZ/HGyw8JqelIignB1a2MkCCHOfueszuxl0Q9Rmt1HhpOOoiQpCyUFOUg1McZNi5BMkV5ZUSwWj8WCkoGOOwZUZ7kEmJxQRHq2ibo9sNBuPoEwt/tMQV8XfC1jdGO7n/s0sPw9AuGr9sjDGmkSUWdBWwCMyX28/XigpK6NszMmuPQzVf4FBwE95cn0IRsQ7/pCISmlCZnhVjUvx54aoZYf+4xAoKD4eVojRFtzdkko5ZKzeJCju8jzF28BU8cPBEVn4T0lHjYn/8V2lQgNPn+MiVw4n6rTlzgU/JpoKOOft/tgAfdu5/7I4xqoEJFpgUaN6yNEavOwN03CB/fUFCrow2V2j0RWDq9tCgT+2d0gbJOPey774RESmryMxPw8vh86Cqpotdme7E4IxEXeMqq0Fc1wPLDt+AXFIr3b35Dn9oqkOPXw/NASgiFJYj09YT12e3imQsTV7JP9l87uJTNXPC5vx165KwHLjnM2n9RYR6CXG+hpxEfuq2/xyepJ3yi/BTM7lYX6vV7ITr9d6xdLIrE4q7GFGB1sOr0YwSGhODtq2sY2cqQLYKVpMSFxIDXWLB6H545eSEmMQWpiTF4dm4dtMnm+iw6zj5RLMmIhsvrR5jJzlxojcsvbWD/+jXe+cewImhusD1mzt8Aa9u3iIhj+jIBTr9tpbZURP3JBz4blFJc98NSQwmWnafipbsvggK8cXPPPBirK1GyoiAjLiS7nkFjbWU0GbcR7kFxKCoqRJTva8zqaAC+QRe8DJV9ulcRl7PfQ52Sm0WHnyI1txAZCUHYPb0NlAQm2HjhJUIlMxdcWHFBGdr6Fph9wBq+gYH46MM85RAhzPkOvl9zDK9cPyA2KQUpCZG4vecHKFGRPGb7fWozstOiCExsQYWWVnu4RZdfkyjTD6NMBFBtPAmB2cyshgwcXbccvz0h/xwRh9Q08s8eDzGwIRVY2l3gHle6k3kh9sxsTwkUH4v2/EbXE4pgPy9c2D4fRu3WIIYKivRoLyxbsxOPX3sgKoH6MikWDjf3wExTCR0mby3r84K0UEzqYA6BTn1svfqcjSdhQR9x/9B8GKsoQqPpHPiVjfOqyQ57g07GKjDrPAWvvEOQW1iIpIj32DzEEgKtRjjzLrMsia+K4oi7aEeJqjYVLVceOyE4LByBPm+xcXovStCUMWzzAyqkarAbat+l1OcCi/647xmKgqIChLnfQBd9AQy7zcczZ2+yGbJdVlwQQE9fG/W7ToGdlz/8P75HeDr1s+jrxQVlNVVoaVlg/en7+BhIPpdi6dBWRuBrWOCmR3hZvLDaMRMqZD+95m7Gaw9fRESE4e3LqxhSn4oT8lGHbKOkBDMxvk/3soLu/ANPy5+G1iAuqGtqQq9ub5x74IjAoE+wvbAEZqo8mHZZgQiK68KCbHi6OGHPj+KZCz/tuwAbO3s4uAawYlQJ5QaLBjWFjmV7XH3lhXQqArKTI3Bu6TCoqBlgpXUQ+3S7VFxQU1OHQLMJ9t1+jaAgfwREpVCblbDigpqKKnQ11DDp1yNw+xCIIF93/DK2PSW5zJPh12X3w4gLKpSEa6lqY+Sv5/DhUxA+kP9m3oYhTHbDuOYG0GgyBvdcAlibSo3yw+65Xek7Bjj0LBCF5Dc/uDvj6JI+UKGibcHOG7CxtYfze0bEpNYRxuLHfvWhatABl156s2uSMxLDcHjJcEqUNbHDyvMLhK+KVD9z4bdVY6hI0cSCW95s4V8qLjACimbD4bhOeUlQwAdEJKbTPRbAZtck6GkYYtYBKwQnZKAgNx3vnx9Ba0NVWPTfjvDMAqRH+cLJ/qxk5sIs3H72Cq8dXRCTKfYjoqJwTOxoAaMmg2Hl7I+svHykxX7ChindoaZTFxfdQsW2JREXVNX1YNBiOM4+dKRxFoyHB3+EDvWB+ei9SMiWxMTieGwZ2gDKPC3M232T4lwIvBzuYmY3S/AVakHRsme5uFCYjgOzekDDoBH23HFAHBVRuRkJeHViAYzVNNFrow0V21WXa8UFWfByc8LW2eKZC78evMn2n8vHKPGTWVEq9m7eiFtPHRBM+WpqciIC3O6ie31tGDUdDd845okwcyaxuMDcm1HLETj/+A2CQ/xxbOkoshUVNG1ijgbtR+KujTs+BbzHqSW9oUFF1bTdTEEmvjaxuMCHorIuhi8/CkfKw4P93mLVmHZUWGlg3FE3VtBiECY5YUwLI2g1m4D7Lv7IyS9AcqQvNs/oDBVVY5x69YliA12/RFxQ0zNCwy5jcdvmLQI/+eDwzzRGBDzUsbSEeYcp9Dldl58ndoxvQXalge+vfaLiuWa7ZMQFdRV1qGrXx8ozlHMFBsA/JJrNcZm42NpEG03GbsAbvyjkF+Yjyu815nQzh4pRFyrgU9i8N+jeWphq0v1uvI7gxEzkpcfiwvIR0NQyxbJTN+ETnsj6sEriQnEutk7pBv267XHfifxHfj5SY0Oo79yQWlCEotRQuDnexbi6muzMhfMPn8KOcgS/sAR2XGa/v4tlq3ezsSmScgQmNtmeXkoxXgXNF94Q/wbBigt6mjAw0kGLgd/D1v0j/D54U6FeVO6fKxDuch8/bjyOZ2/eISYhmeJxFO4dWAxNVRWM3HiDfID43Pe2T4UW3fvuG07sk/ispCg4O1D+R9dfY8uz4oIe1A1M0KTPTNyjPCeIbGrb3L5QpXFU38IEjfvMhfVrT/j7uGL90PpQEWjhlzvMrADmzF8uLojIR/wwqBnMmg7FS+9w5BXkISHcD/auH8mHiu22KnHhJZ1HW12AfnM3wZFqlNCQANhZncGoXuPhHJqK/Iw4bFq7CRfvU04fEYuUlCT4O1uhZ2MTGLYZg5iUdPY8QY/Xw1JXE3P3PEQC+aKc9ES8c7FHaFJ6WWz7O/DfFBdEVMz3UIecUh1c86umMBAmYGQjVaibdcOHeNlp9ZGv1lERLocec09I1liKxQV5OT5m7H0ppTSLEHx9MQRycmiw8Il4BkIV4kKVUPK0b2IHyOs1h2eSWJ1NDT0PM74CDcbHMmr254i2OwFVeQW0mX++/Hv5oZhDxSTfcgx88pjiSoQdU1qBr1kbDkFU9IqPIkTwPTyYgpc6ttiIp4ez4oKcPGoPXoM4qSnh2XHWaKAuj3YT9iFbUmQGnxkNZfrtCXvfSD2xFOLjzVXQUpCrWVwQFeHwzO5UiBvjpGespBBnEMH26CyoKtaqsCyiMsmf7GGpxUPP+UdYB1roeQo6ivTf622+bs8LSlIOzqJr0bDEk08JUtdSKi4ooNWYtVJTHkvwekNfKFI71Rl7Aonl3gp3No2CPLXJxRcB1J7Mib5eXJAXmGOHDTPlnT2SZc2ollDSawiv4BT2+kRJN9FAVQENB25EstT6msxPj9Belwe5z4gLVVLog1F6PPBaLUGCJBmtVlygQq7+mF1IkPrtdyfEs1C6zNhdNo2Wuf+rP9CYUDLHqQjxzt6ZMe5oaayMDhO2Ik/qaSNEKVjYURMKOiPwgVkeIREXFJS0Kfh/RKGULVhtGgoetfOxx4GssMRQ/Z4LIqwf14IS3qZwCc2QsTX3fYOgrKiBPXYp5e1dkoV1Q1tCUa8lPBNrGMfVkOGwiy3szSdfQIbUGEr2f4JGVJjzpcSFqihJ8EYrI3X2CWq+JKB99Z4LRYGYzMy0aToLMRWmAsqSi3PjjKho1sceh2QaR5KPhUW4tWqk7MwFKgaPzOkJvm5jvApLlkk23lutgibd84oLb6ntq/u1YhyZWJuSya5wSCnfef/T673QU+ZhudR3XRhxgfxFu0mbyoJ6TRSHvoAxJY+NpMSUq6vIRpQEOPC4fDZS1OuzbFE0ZN0NKnKkbK8CpxZ2oyJbFdbvmAKOGZp30UpTCeqtVyCydLyyUCJYw3mE6WHo38QIJl2mI5eSKIZg2+2sYDlo8ZnyKbUsxdg9rQUUya5Pvgis0ffZn/sRfPJ1W+54yNi6MO4yGmnw0eVna8mTmCqgcXVjWm0qPHWw8nG0zLgqiX+NbnoCKBgMxdsa3o5QHGKN+ioCtP/5npR4VYSzk82p0O8Fe8l3WXFBVQkKavVx3i2hwsyWrxcXeHw9LLr6QWYZhP3xRRAoKWPM/pfiIlqYiPEtdaFp1gXuEcx0d8mBRLTdFhir8tBt5iFkyWzUV4jT37UDn3zv3ffMWm7JxzWICwKjjngQnCXlp/Mxr4cpFX2t8TaCmWYr/rS6PRfSAs6jnpYAQ369RUlwuY2L0uzQ20AFOoP3I5kZ6xJxgUdF9KxzHuLp/2UIWXFBVYmPtnPOIUGy3wdDgvNF6KnwYTJsC9IlO6Iz4oIyn4faQ9Yghgr/8qYRwu3Y91BVMcCqZ4EyM3biPlijtq4Khi4/W2bD1e25kPZiFYxU1TD00AeZYi3H9yHM1JTRfv4pKoyk2/1LKBcX1j+LZZ/EZqUnU9F7D13r6UDdvD0cg6iIIsdeKi7w1U1x2F4szpRSlBKEQU1NYNFjDhU34pkaYkQ48n0XKCsb4dF7ZoND+qjaPRdESLg7Gwaq6ph3UfpJPvl919MwUVdD7w3PxAW0RFxQN2qORz4x5bZfFITZTTQpng+Fa3IOa985npdgoaECoyHbEVsqOBDZce7o09gI/Drl4kJGhAvaWmqh8+QtyJTMFmGh+PljDzpWdwQ8Eui85Rddia/dc2Hj5I7QMm0CxwDJTECJuKCuVx93mRkYkh8r8L+L+lqqUNTvAiufpLKcNDXiJVqaaqAjxfzULPE1l4oLXSlfKP2MoTDkN7TRVwGvwQ/wT80lyyyB075p0FQ3wUb7CJllXxEu12Gio4ax668gm7FxibjAV2uK257lT83jva1hqa8BrUbD4BJbPmZLgk6giY4qGs+4hHRJgV0djLigIlDGsPU3ZN8wIMzH4Tl9oGHcAi+CYmV8nOed1TDQUMbK847Izc/D5SVDoGHSkvLwcnso9D6LutqaGLTXvWxZaUVxQVSYifkDW8C0xSB8iBTPzqvE1+65UOiFsXV0oNxuOUJSxU/5xeKCOhTVG+GaK7Oko6of+jxFYa/QUE8TDSfsRjL5TYYzP/VnRZRbrpFfd15WXNCFik47PP1QPssi4vUF6GupQbvlJLjFlIvp+R/2opGuKnovvoE0GkuM//hScUFIud/4jmao32UePiUwy2Ukh0pRSVygenJBDzMoqzXDU594uj7JgZ9DmInd4zpRHdoRnnGUf9JH709PJXvRxuZ7/p8Vu/6X/CfFBVHaG3QRyEGxxQIkVOM0hbHnUUepFuqMPo6sCkaek+iLNiZ81O4xF1ls4SQRFxQtcTVQNqkXJlmjGU8OvDarkMj8Vo3iggh5yeFwtnuJhw/uYXH/ppDXaozXkuMK0oLQo646BNp18OOB+5RUfJlhifKDMd2SBwXdPnDJFD+lTXQ6DzV5RfRde1ecoFKCNK6JAMo6XXH6tjUePHhQ9u/qnglQl5fH9CNeNJBEEnGBhzF7npUVbQwFmRHoZMZD0wFrkMFG3yJcGKsDOQULnAugYCh1s1Vt6FhRXBAV5WJWj9pQs+iEoETZvRxq2tCR+R6zpu7Fk0e4cXoPjNR56Dx7Lx1H957rh4l1+VBQ0ceMDZeQ9gVBk0VUjA1j21BR2wBvQ8XFeyml4sKkrdYy15JwYx4VXgJMuSX7hND2zELIKyjgnLW4PX+PuKBoMhg+BbIiwMkF/aGgZYm3/vHs9eXcnQpVKvDHHfaRTdhFGZX3XKhRXBAiPtQHNs+e4KHVWfQ1VIRi4+8QITmu+pkLKph+xlWmTcLs10FXUQFzjrpIfU4OfOcIKl71sNEznW2rKLddMCT76DZtE+5ZSdujFb7raUI2ZY7noflkf2JxQVG7KWyTZadIvrm6mK5BDntvepX9VrXiAhUmIxqrUvDvjTO37kv93gOc3zoG6tRfP5x6V96O1Df7J3SgcdwAD2OqDjDVI4ITjSmegiYWP42S6ZsaN3QUFSEu6B1snj+F9fXjaEbB0bj3QiokvkZcECI5whe2L55SX17EMBMlKNabhGAKgNXeQlEAxhvQcRaj4Zsre1zac9kNHUUFmZjS1QIaZi1w7todmXY8u28pNAU0TjbdEc8cqJJinJhSD4r8TrBLLC9cfZ9tgLYSDysuMoWy+ApcWHFBCZvu+svatzTCAkT5e+Al2a71pZ2sOFtn9I6yNouwPQVlHhWSSy6UCQm3N40BT0kF5+1DZGyXITMxjPzzCzx6+AA/kz9Q5Kngjjvz5EeE+Js/0PXw0GsvFV6f8yvkT5JC3sOO+uHB7fPoUkcXBu0nIqeASUhFeLGuB/gKPGx+IF4zL439+R/Z5QULT7+UKURlEeHkvA5QlOdh1cFrsLIu74cHVifRVF8JDQZsQVI1r8kS5X7CKCZ5txgC/0prOfNxZIwxjVddnHqbSdcn+bgCxeGP0IgK1zY/3pISCHNwYJgBlDT6wCFDWlzgw3zsfmRUup6vFxf4Rr3wNpN8A3ugmAyXM9DgK6Hh9FPIo98Qxl1CYw0l1Bl5CMkVCtmcpAB0rqOBOl1nIlmqoBGl2KAHU9AP2IcE6fFVg7hg1H0+MvJkdwvfPKk11HRrw/FTud+oWlwQwf/oCCrQlTB29QVZP2h9EQNqU/+YTsVHutcSibigWacr/OLSK/gjibggMMAGp3SZvZdEWZ7op6UMpbrj4U/3yvyJFRdU1LHhjqvsDAIaS/umk11qmWPHqcsyNnXr7D5YkD9qPXEDciT3W7W4UIQHSzpAWckAP5y+iXtS57C+vg/NqJDU77OSnfb9dUjEBZ4CtI1ro07durA0N4GmsiLFOQtsuOVVVuSXigvmrcchmHlwI9VWSQGv0MhIDc36zcatO/fKro35t3paN/D5Krj0KlDcR9WJC6J8XJloDBUlMyoubuC+9D1e3oyGagIYjT5ERT+NdYm4YNpiDBUq0q/MLMDuofrgK3fGs7hsMM3nfXkF1FU0MPX0G+RKC+5VbOgY5rQLZhp89Ji2DrfvSsczip9U8POUzPHYL7XascvweXFBiPTYYLxh/OGjB5jVvxk0jBrC3rd040yxuGDUYAg+ULFeem+iTBf011eHRs/VSGCXWYjJSQhAlwa6aDXsl7Jis3RZxI/nPGXvWZiEhZ10oSRojRfBaSguzsK2MZ2golsP+85fkbXNk9thpKWCDrN2s6JTqbig3HihRJgQkx/mhIYmOmg+fiPSs6WEpYJX6G6qgXpD9yJNyh9UBSMuaOiY4p6LZGaKBGFuCqb0aADd2m1x6uJ1WEtd3+ldP0FXnY8pW24gOzcH15cOg7pxC9gGlosL2U6HYa6lgaEHPKsVFxhh/9ov5C9UVdGk33d45s3MvKrQwV8kLggRG+IjzhGsT6Ef2big2QL4MxtH0l/F4gL5xylnqP++cpwKCxH96R1eMXHv8m7U11RB7ZGbkZQhzu+dLq2ElroKLNqNxBW7gAoiaQ1IxAXtNivwKaX87Q45Hx/CRFsT7eYclRGnijIeooOZJrrNOIY08p+M//jiZREUu7dO60HtrIWe09ay9UDFGF1RXBAm3EdXY02odNmCkJTPzXQV14GuDjZ4/PAOFvVtChXDNngdS79Df43zvoqmJprQr98J++68ZWcg1Xy+/w3/SXGhJOwh6ijWgnq/zdXu7lzoSkWQghxaLnlSabp8YVoEetTTgFG7cZQ4MAO9VFyojWtBFZL0Qhf00pCHguX3CGc2rKtKXCBj9Xl+FqO6NKZiSBFaeoYwMTGBlooS5DTLxQXmd/xfnsPIzo3Ak68FbYsWWLD5NMLJQdaMEJ6HhkAgz8ePVwLY4u3OlolUzGrjglOYOLgW+6GPCY+KXhUY0m8zvy/9z9SsHtbdYTYMLJ25wMPYiuJCVjS6WCihSf9VSGecgigd27rxIcdrgyeSqcylfIm4IKRCZUxbQ+g27oPoNNkEsCpxIT8tHAeXT0Y9A3XwlDVhZGwCY0M9dpp5qbjAEON1D5P6tIQqFZ4C3fqYvfIQfOI/8yofYTHWjG4FBd2GcA+TfYVodeJCyp0fxOLCbVlxwe7sIrG4YPXHigtnfxwIBU1GXIijPhUh/GAfshNF/Hgvja5LchBDVW+LqEJcEBWm4MHhFWhfVx9KlFQZGDG2YAhlhVpQaPj7xIXwN5ugV4W44LxnFCsubHAXiwvB1j9Ci/pHWVNPxg7Zf6amMG80EG6xhXSf1YsLzr8thUBRHntveJb9VrXiQrEPelKhLa+oCkOym4q/aWpWH1utgsqvmfrm4OROUFCvB6voisn85yiG1apBUFA0wj7/RBnbqEpcKKHE5Nben9CW+kGBil59Q2OYGFOBRv7JqOcXigtF6XhxZi26NaaCTEkgPoeJEVTID8rXnVijuCBKd0cPVR54bX5AagXBo+LbIphp3MNa0nXy+DA0Yn6jQjuammP5KVvZtq+A9y1KMJSVMH7FcXj5fsI7p4eY2cUUPO3WePSpPEktFRe2WwdXCu5FGdG4sOk7NDPTJl+gJrZdIz0o1qoFSylxQZTpj7HmAvDrjMD7TLInYSLmdtSHsvlo+KaUFgwi+Dw7i+GdGkKFkm1tfQP2XrSoEJKTV8adt2Jx4f3BMRDwlDH9Tjq1BfvFSjA+7eGx1ejUyJjaSBl6BkbUl4asneq1KxUXinFxVgPwFNRx0iWLzi3+bile97awa3WnHnggW/zJUELJdn12XauOQVX9YIb+P5xHunTCLoUw0QNtNAVQbj0Laew1SSOE1ZJWZH887HlVQ4FSkoDtg2pDYNAW+2/bIuBTAJ5eWA9LFQGazThK55XYt0RcqDP5uMzTeTG/R1zojbeSQrmUYr87MFbhw3jkbvbJeuHbzTBV5qHFQivkVGiDwvQo9GuqD5O2o5GQXrqvRAneHp3NPrVf/TJC9qnaV4oL26a0hbquJRw+lfuNqsUFIWxXtocy2Ya6rjGMK/ShiYkpGvRdjzAqUpmCmREXtOr3QFC89MwrhlJxwRAbnWXFBapQMMNMDTzDQXBNE1+7WFzQoHHlLmtfxXlYPbItu4+FviHZbcXrIb88cukJ5NU0c0GUjeMTmrEzarSNK9slc45Ocw8ip3Q/iy9GIi7QtTXrORJjx43H1BlzsXLLATj6xUjFGmoNibhg2XYSQpMp0Zdqq2jv31BbV5n6QhPGla7PFGa1m8L6baRY4KxOXCA73NpNhxUHdarwgSbkA3su+038RLNMXBiLTwnlM1kYuz8wyggC5Y54SoU503z2h+dDVVkXKx57ye4HUoW4EHD/JxioKkFFQ4/uo+LvU/xsOABvwmpeFlW9uCCC6/2jGNKhAZQFzLI0Q9Y2NShfZfKpz4oL2W4YWJW4kPgJXRvqoeXQyuJC5bdFFGL9EDPwlSxg5ZOCQoo7Pw1sya6BN6jGNsetuSgzc6GiuFAQ4YxGVYkLhbboYaaBekP2fJm4oGuGh28j2HhYSlFWPEa0s2D3MjBkY6/s9TFx8ZdTL1jfFGO7F/V1tNFlznbYuL2Hr5cjlo9uD3X9Rrjyrtz3VLXnQkl6EA4um4w6uqpQFGih47A5uG7vW758rQZxQVSYjHuHVqBDfQMa/6oUM5nrNGSXFSs0/qGSuNBgzhUks0/9P09RZgyubF+E1rUZwUwN+sy5jfTBk5ODxYhycUGYG48rWxeglSXFaiVlNO0xBkfuMmJaxbhQgWrEhTy/xzDR0US7uRXEhcxH6Giuie7Tf4e4QGSEuWLVzMEw1BBAoG6EgVOX4fm78DJ/WVFcKPp4Ek311KE3/hLiMqppM2EhPjw7hwm9W5Af40NLV5/GlTFdE+Wluq3KxAXm4enzs5vRq4UFu5+QZcve2HDSCgl0H7J+/3/Lf1NciHyKhkxh2X01cqWCjjTFXlugT8l7o7m3UVihx/JTQtDZUhUW3WYii7XCGsSF7FfoIJCHYrNliGMcdBXiQk6iN9qaCKBm1g53PySKBwYdd3pudyhIzVwoQ1SMMMcrGNTSlN3YqQ0liaXTgKojO/ENmukqoMXw9cgqysP8rgbQMB6MgPRSpxOMARY8aJhMRMhnZkR8ubiQg/19BJBTbII7cbLt8kUzFwqzMKGDMSVM3RFOib40lcUFIR5t7EvFvDz6LziCTMkgzwhxRj1dPrpIiQulRFChOaaVASXg/4d6vZcimRWKqoHafBuzTEWrDmyDkmQG8R8iLnTVhIKgK7z+QHEh4dRg+n1FzLnC7E4uOYjhC8UFz/NL2WUFFv1+wvsEidpaEoLpdfjgNfpzxYWwZ8uhTUn1xB3M09ny71fijxIXSoLQl2xXv8EMhOd+gRIszMY2SrQVtZrAlpJ5Wcv6HCV4um6YeKbG27jPigvut1ZBjcZFs6E/IzRDvM5emOqL7qaaMOn1ZeKC791t1BaKMO06B2+jJU/rKNFY0EAZvM/MXBDleKGfGg+8JjMQVeG4qsSFkW0Mode4LyK/YMO/qnC7uAAaygJ2QyZmwyNmQzGBliX2vJSdSeBSg7jw+MAcCryK6DhtKyIzxddcEuuAxtT3taXEBcb2PuzoTm2jjKV3Y5HjuQ9mykrott27bPaBMPkZOumRzWs0ww23sLJruLyiPxVaqmXigu/R8XQeJYy5lEwJIHtIJQJtdsBARRH1e85BYJq4IBFlRWIM+XKDDpMk4oIQ175vQtfPx0G7ysW7629rWHFh3slnUoVoRYTYNbExFOX5uPdOPKa+BmHKO3TUpD5oOgkJVOjJfr0Y1+Y0gJKiFo45Vz9zAUUxWNFFj92AkEmC5KgvmY0hDZoOhVdUeWH9eXHBgBLN9t8kLuR5XYW2Mv3GpGPszIVi7x0wp6St4axryKowWyI/NQw9G+rAsstUKnLECamoIB2L+jSBVsPeFItk/cyfJy6QX9zQFSpk46us4mqcJly6LOKrxYX8jxilpwolZnmk5NqrFRdK8rBhTAfw9ZvAMYQKSNkfqUTV4kIuzk1rQUVhbZwIz/7q1x5XT/UbOlakJnEh1ucu6uqpoOfc/ciRntZeFdXOXEjH3j46dI9NcC0yq+Z7/Apxwen4Iqgqa2PRzbfkv6RusApxIfDxrzBSVcKU7Y/Ip1QcU19GdeJCSeJ9tDNShbZFDzzyLp95t3tOD2gZNfqLxIU8rOhLY53fGE8D0lBM43PF4NZQNmkLr2jZ5XiV+B+IC8XZCRjVkdqixSCExpW/5akyIoQ/2AhTKkz5ShT/5Cn+yVH9wNfAtB0PZDaPrkpcKEWYG4XDS8dCm2xATqU5rn2kmMTcaLXighCux3+g45VRe+ByeERKYkbxJ3YfJ+WmlWcufI248OzwD9Cgc7efvAGfEsV2XhL7Bu0MNFFHSlwoRVSQiFu7F8KSfJM83xz7KcbWlJ7/IeLCwsasuHDMOxHle9JXLS6UkhfjiTXT+rCb+Cs3God3CRlsLKokLgScQws9svmhJxCTXrUNpYe9QYd6+tCp0wV3PKPEy86ohjoxszvVam3LxIVSREVZcLi6Fe3r6lIuqY5FFx2pHv19Y/3P4L+55wIF1NH6CpDX6QOXjKotVpT9Eq005GHY8jtE55YPQYYk/2uwUJVHl+kHkM96MYm4IK+HA47JMo4j6cUmaCjIwWLOPfEsiSrEhVi7ldCmY8ZsfVE+S6ImcUFCQaofpjckB6Q/BN754uUO1SEszMDC3vWhYt4ZH92OoC4l2T3Wv5GauVGAeV31IaAizS2y5qf4XywuULu8/KkRFORUsOph+dsFGDJ9zqE27zN7LpTkY+ngpuDpNoJDpGRDTAmBLw9AWyD1tghhDOY1E0BerRecU8oLoJrEBQZGrV3UrxEFpZb4GCO910RFhDi/aAAV+sY49yFK5l6+XVwowi8UKOV59fEmqjxJEeZEYF4TJcj/LnGBYuLb1dCj9uy06LbMqzNFWQGYXJ/O+5k9F/bO6gaepgUe+kjtd/EXiQuJ/tdhqa6I7rMPyT6lqcjXigteYnGh/9KzFZ6e52NWZwOokxP3is6pIfiLYV4Dtah3Q/DNOpatRfxyRPh06QfwFZTQe5eHTNFQkPwBvYw1pPZcEOL07GZUJGrg8lvx2n6G6sSF9V1MyTZ6wqeCuHDhl8FQVNbCBQep2RdfKC5QFoCfmypDQbU1rGMKpGxfCJ/zP0JA91G2LKI4F0sGNmV3mH4bRWO22pNWQ0kEvmumAfPxJ+Dv5wW7l8/wwtYRn6KY/S5kT1a9uFCCDaOo+FU2wjM/qSK2SnGBxkmiDVob8NFy1Hp2p32+Xmu8SiwtTkUIPT+DCjxljDwdJrPOvKK4kGW3DnqUEJpOuYGMKqcuCHF3SRsqytVxyK58b4HK4gLgdmwc3ZsivjtkW2EJiQhXVg6kYl0Bh5/4VbhvWW6sHcIed/AR85rW6o+rkqJo/NhIHYqqzXAzIlfGf4nyAzGzgSqNuT54kyxbxEsT83I/NNX0se2BI965OeL5s6d47fIOiTL7UTBdXpO4UIQtwy2gyKuNp4Hlu8iL8mKxrJMe2XRlcUFJsxXuUeEqfc2eV1dDma+MYTufsnu9iHJs0NFAQMn+bISkyYpgKYE30UCHj06TdyGTxgVDVowd+9aNLjP2I4PGlgx/hLhwaD4EKto49Py9jGAU9XAR9ARKGLvlhey08Ap8mbigibm/BcusR8+iYtpMTQCD/muRIr3nQlXigqgIV5cOpes0xl4nKjilG7gKHI5MoqSbj10PQ6SKUyG89gyDGl8d066Hy1zLt/HHiAtZEW/RykILDQb+KLtXQVUUemKwpTpU269DBBUu5acpgePK1nSPmlhuHUnxq4Z7/ApxIeLhdmipqKDjsjtlO8czFGdHYVrHulCuW/62iNgPV1FPTwW95h74HUtMxNyTiAtnX0n3nwiBh4dAS1kNcy4Fyaz5/vPEBQGmS23yyCBKtUc/cw0oWUzH+2Sm3fJxbn4fqKpb4qhXdLUzkln+B+KCiPJv5k0A6mbt4MpsoFhdYCTbXD2mA+p1ngRPdzc42r3C85e2eB8UK+MXGGoSF1hEhXh/cyHM1AWYuNuebIbaj2L+Ty31oFJ3NN4xr0mUHMoIh1smd4eaUTO89JNaqvmHiAsl2DKpNdQ1TGHlUb7HRU3iAouoGDGvd6Cxtioa/WBFv1WD2PcHiAv2K9tBW8UAW17FIrfU1ERC/LZ2ItTVDKsUFxiY10c+XtaFxqYe1j+PpWMqiwuiHCcMqasDgfFYuEdVLfYHPl4Ncy0VTNv2oGyDy5rEhVJSPt5k29F4+C7Epn9uFvtfx39TXKAuur+kFbvZ3pQdT5DNFsJCZMT6Y9vsSbgRwCTaxVjc3xIKKro4+MADuRL5OSsxEFuGmENeSQfbnkRKApNEXKj1fzBpPRpuQUlsMCjMjMKvQ5tCjm+A7c6SdfpViAtxb9ZDV1EOg1felmycJURqiBuGNzeCvNSyiLyY9/AJjqPCm/6DKMoKwveNeeBZjkeAjKpbFUI47Z9GBZwm+vYwg6J6c1jFyyZ5NzeOhbyiAD8cfoQMqehcUpCF8LAY5EsO/nJxgQzfaQv7ZoemQ1cjmnnrhagEyWHvMKVzbcjJfe5tESV4tGkcFVYCDNxkjTRGuqTvR767j/6WyuwrdcrFhXj82FqFCvH2eBEjLvaEBel4emwhNJTky5ZFZET4wzMgsuyppKgwHT8Pago18w7wj6/wREoGEZwOz4GCvDqWPCzdiFHMt4sLIpz4oTOYV3TuYDZfo3MUZSfi8vpJ4DOvzRH8PnEBRR/R3UwF2pY94BjMFHoiFKTHYv+8ftSmcp99W8TB73qSnZjgmkuY5DpL4PNwN8wECn/6sojCtEgMa2EIVYtOsPWnwFpm3lTEpcQjJE7y9P0rxYV0vxcwUCMbHbOBff2gsCi/7Cnz5V9HQFFJHYtPPpPZSbs4PxPh4WT/UvdRkhWPoS0NYdh6JJIkb3Nhgvmzw79i5Pj58KQAJ30tFSmJuIeWmjwomAyBQ5i4b3JSInBoYR+6Zjmpt0UIcWFeaygqKOO4bbT4PoT58LDaD0NVJRhLL4sQZeLwMEsoqjTE5VDG5oQokEwvvrxqOBQFGjj8tHTjwhIEvDyB2iqKUKj7GXGBrsF5W08oU78NXXVHvMavOB9hXg/RlQKmfC3pt0WU4NXeGVCmYnzw5nvsmszS85YU5iAqNBSZUht8VoKSnx/b60KJCvz1hy/C6hEVpA5v4PrWg911W3oNZk3iwpZxjaEk0ME9zwRxUkvJk/35VXS8gsyyCAbmvfyLBjSCho4hzDVU0XDIUuSXFbkiRF39Dmr0O313elHiQCcjH5QS7oTxbQygQP1SKi4g3xvD62pAgV8XN1wpuWT7qhBRH2yx9OezSCoogvUvnWhcCLDtoeSVnMIC+NqcQX0qBPTK9lwAEvzuob6uMsw6TsTHyFR2TIhKCsn33URnIwElKYPgGU+FPX1eHQEvj5LvU0TrSRsQzibgkj/QNSVERSA5tyZBWgjfI8OgqaSANjOOskvvmGOZ2WSvDi+EipIAnX66TnGxcrJVSpz9MRgySyCGzsPZ67fx5LkNHJ2c4e71gX3/d6kPrVlcEOG3X/tSmylg1XkHVmgsyknG7d1zoaHCRy1+80rigqJcLRi1nwHnQCaJpzGQEYUlQ5pCSdUQ55wCJbZSjGVDG4Kvqos9d5zLdpzPTgrGjtH1wCfb2XA/SGLTVBAfGw0NgRY2PgovS47L+APEBcez5KsEalhw1obusRgFueLz5CR7oGsdTZi0HAH34CS6H8kXKPFOS4hGLLOUhz76InGB4iBfqxmu2PlSUS9kl+icXzWGnao96/Dzsg12qxUXiATbfWyxYjJwA3xjmOsX/5CQbDMxKoyd6VH62+6XfoCWgIcfj9ux5y6QLJcoibqD9kZqUG80Gc6hyWX3JCopQmoc2WUmU/CLP/N9eQ5jR47BqefvK12LLH+MuCDKT8CK/s2onerjsJ0/sqQEnfysFISExFGOJrmOkhBMaKoJgcEIeMRloZj6rUjyt8Kgc2hmoIp6vRbDR2rZHONrkmKjkE42wX70FeJCSRwVuSbqUNTvCasP4vX4zJsErm0YAx1lnszbIgpSQjGijTk063TBS58IKVFUiOzUeIRS/JTO3ari6f7p7NsTNl51ZjcNZvqP6ZfQU6Ogo6KMSYeY9f90v2SLScF2GNLSCGr6f8ayCCWomrTGtdc+5B8oZpMPerBxHNSVVdFtoy2NL7HPiH++HZbaKjAdug0fo5nNx8U/KCxmbDOEiktqc+aj/4G4wPibV3tmQEdVE4M23kZUWl6Z3TFxMTo0jPVBoqIcbJ7cDZoGdfDztqO4bfUItvaOcHZ5C59PocguKM/ZK4oLwuIC+Hz0o0KdfAdzkKgIn6yXwlxTDbOOuCKLeRwvSsbmXoZQ0WyDm/6JZMslKCykcUnxcee0nlAzaIg77iGscCiiOOF9fzvqU5vymnybuLB9ajuoaxjg+hvJLBj6PcfL66GvrgzLMnFBiKCP3ohNZTYapWOYWsHtAJroqKPdipdIYar26vhmcUGEpPvzYaqpjO4LziEmPQ/F1C9+Lw+jjYUWxXntMnFBVJyEj76B7CwS9jKLc2G7ugd0NMywyyGOFSYqbeiIIuxmXhHM52PN2RdIY79bgsQQVywfMRwOAUnwe7oBFtqqGLv6OvumDKY9kj45YkRrS/D1W0vEBRFifN0RFpcqqZGYDdrvo6OBFupNPMgevmsAAJEGSURBVIx46vu/C/9RcYGSiJi36FqbSQTVUL9VF/Tr1QWWRtpUTLXGoyhxoh3x+iSMmc0YVXXQtG03DOrfEw1MdSEvp4Rh624iu8x5lM5c0EbDJqZQ0zNDx2490Lq+CXhUxDUbuhJppdGuCnGhIC0IfRtoga9ujFHfLcWSueNQ10QfvTs1hKKUuBByehS0dY3QtsdgzJ47Cz3a1KXz8zBh99PyGQ81UJLwFO3U5NmivO7g5eVBUkJ+vAdG11WGAhVYDVt3x7TZ32HquGFo2bAO9MyHwFUyO+JrxAVhQSoW9G0AOUUlmDdqj949OsFcXwMWPadhWEPFGpdFMBQlu9M1qUBOQQUNWndG/26tYaipgqZdxtL/F0gtixDB8eQMqCjIo3ab/vh19a8Y3q05zMwboA45jNKZC2+Pfw9VTQM07zII02dOx4D2DdhNoDrNPoUsqcKlKrJdjkJLQQGtfn5Ydn0M3y4uAMFUCPDp2gVaRmjXrTdaNDCHjmVHHP6hGRWL7X6fuEB/vbZyJBTkFaBj0gA9evdCI0tDqJt2wsJxTaHwmWURoY92QoOnCE2LNpi7ZDnmjOoCQ9NmGNjB4E+fucAEluCHG2GirAhlHRN0GzQac+fOxsj+XVDX3BiWM2+JZzR8pbggzArCaAsa92TjLbr0RceWLXD0dRr7m3lxrhhZl1mrqIFGbXti+hyy/7FDqS9qk/2PgJvUcoksGiutjPhoM3pTeQJanIEVA5rRuU1xJqya3ZrLKMLt9cPZPtc1bYS+/fugsaU+dCxaY3YnbZllEQEvDrKvndSr2x6LfvkVU4d0hqllXfSwVJWduUBXF3ZhCtSofbXNm6NPz04YNmsvMun6ouxPQpsKTQ2T5pi5eDm+H9cLJmaNaYwYg1f/c+IC46N80beRLnjkLxu174nunVpCX0MZvaaNRUMlHoaUiQtkDzkRlKBbQpEnQO3mnTF55lzMmDQaHZrVg76uBW5+kE6iKxP0+hSM1SXvkGf+Me/kVuBBXVsfE1ZfYF+9yeBSw7II50u/kv0pwrhpDyxavhwT+raGWYNm6GWigDpjZMUFpt1s982EEvUF8y7x75nZAlJPiURZ3hjegJJ6FQOMnLkIS74bj/rG2mjeqg35NZVycYHOY3OS2URUHmo6pmjfox96tG8OA/JX/OYrEEVJcKT7RVho8ql/WuCHX1Zh5sieMDU1ZUUa/fblMxdExdm4/hMV1cz4M7REl9790JPanHlPuZJOE1x6n/hZny8sTMX5Gc3Y18kZ1W2OUZNmYNb0iejepgmMDcywwaaGJQ0MReS7+1MMUuTDuG4L9OnfH+2b1oW6QBG6DYfAPfIzG5nSPdxc2oV9Owzbj/SvVi05KPKVoWfWAgefUaFPNlOzuABEOl2GnhoffA19tOnSG60aW0LbtCV2f98KAtWWsKogLvA0TNG2thp0qN06UBxuVseQ/LA8mo7bjzhKwksvOdLxLGqrKkFJVRuNW3fBwH490dBcH8zrp4esuoq0UoExPwizGqpDpfEMBGRKTX8v5Q8QF1Ldr8BQRQnK2uboRn66adPJ8EjJp/hahBdUlKjzlaBlXAf9RkzE3NnTMbBbW1iamGDKuU9U+DGbH3+BuMDXQMv2daGhbYgW7buhY/O6UOMrQK2ObF/WJC6gJBfXVw2m7ynBoHYzjJg0HbNmTEKfjs1haqCLjde9xK/7I6I9b8FSRwWqepZkO/3QauQq5LBP0Utwf+dM9j3tuhSXBoyZgjkzp1FsbwNzYyOs/K38tZiXfh1C9quIXr9cobFRQ3HxB4kLzBjODryP7pYarPDUuvtgzJg9BxNH9EXTeubQr/8d/KnwEN9hMfbOaEtjVAkN2nRFr85dsed1AP02/VVUiNM/DWX3aDGwaIqh46fRPU5Br44tabzXx/43fpLjvlxcYH7P4dhM6KnwyCfURe8B/dC8vik09OtiYhdLqNQrXxYhjp+bUJdyH1WKn10HjMTs2TPZ+FnPgomfN5AqNcW+Kj69PA4dKv7UDeuhV59eaDF2GzKzySYz3dCvgQ5UyFYnfLcYP0wfCUt9TbRqwrxe9As2dPxacUHTDN36UGGmZYBm7Tqja+uG0CAfpNd0CHxiy8cQBR6cXzaQbJMPwzotxLY5fRJ6d2gGU31d7LnrJRbQ/ifiAjN0IrBySEMI+Cqo3awjJk2fjRmTR6NjiwYwoLh4wz2JLeozP91FVxN19mFlqd+Uk1eEirouWo3egkDyd8w1VxQX8jOjMKhtbdRu1AqjJ0/HhGG9YaZF/V9vBByj0iU2JITXgeHQI39rWK8l+nRrhzmbLiMrNx+BdzfAREMFWpbtMHvRT5gxoguMKR/p1tIAys2prb5hWYTL1bXQJlsyatQVP/z0Myb2bwfLRs3R3VQJ9UeVigv5WDKgPizqNMSgUZMwbfwwNDDWhMCoHR6GpNS8vOibxQXqn/xwjOlgQWNODQ1pPHemOKmtporp4wZATcUQGyXiQkmmFbrWN0eD5h0wftoMGlOd2dmwlv1/RniqOAetLC6QP3S9jjq6jF+heEPn7921LcwNNKGg1R12gcnIiHmPfs3NoKptilFzfsLC2ZRb1TZH3051oWzURiIuFOH4lIawMLdE90FjMHv6eLSpZ8QK53ufvKtR7P+r+c+KC0wQSfB5iVXzJlGi3AGdqaCb9P2veOIdLZU8iBDtYY3l301Er64d0a59JwwePR27LzJPNqU7sXzPhdNOH7F72UwynI7o3L0/Fqw7hsBUaSdeAu8Hp7Biw16EM7sFswgR5fEAi6ePQteOHdBn6ETsvmpHRasVVtFxkZLpQIXpn3Bo7SIM7dcDHdp3RN8h47D+6F0kl83h+RyFsDm/FcuWLsN1W18KqpVHa0FKAA6t+5H9jfbt2qFLjz4YN2M+Dlx/XbY/RXa4O9YsX4HfnIJlAjMzw+H4jtXYd9FGZlpabow3di6dSW3YCV17DcQP644iODEVj4+uxearbhQcxMeK0n2xd9UKHH4SWPY0gyE56DV+mTMO3Tt3RPe+Q7H60B3EJcVg/+Y1uPT8fdl9FOem4NqeFRjGtE+n7pi6eAtcAiNxZfcGnLjjxP5OUUoQTm1diuEDeqFjx47o2X8EVu37DbEVlr5USX4AJtURgNdgNoLzygv7jJh32EzXfdMhsOxeGPI/PcaaX9fAKlD8dKmUCK9HWE7t5x4gfqsDizAHrtd3YMLQ3nRdXTFq5lI8I1tMcjiJVeuPI6xI8pRRlAvbY2uwcudlpEgVQAzvHl/AinXbES1VZIvy4nFr3y8Y2qcbOnXpgbFzf4W9XxyCX57Cyo0XEVN23gxYH1iN1QeskF56XircXW/tw6ThfdG5UxcMnbgA1m9D8MFqP9Ycskam5DhRRiAOrFmB/ffelYlNmUEOWLNiNe69i5Zpk/So19j460pYucdIfS5CvMsNrFy5GQ7x0tNLRQhwuInFM8eyttOObL73gGGYt3QjHvuWvhayGO+sTuDXjQcQmSu7Njza5xlW/rICjpTslF+CCMleN6m4HoxONNb6DpsF27DyJ8C5iR9xkBljfUvtvy/Gz/gBh244IlcqWYiyXQM9Pg+zj7iWF9W5yZjeyZIS/L749AVLJYqyEnBp51L6LUr0O/fE5AVrYUt98+7mLqw7eL182QYVaXaXdmDSsH7o2KkzRs74CQ/efsLrc9uw4+xDmUKYKbDObvwBvbt1QqdufbDy2HP2KSWTxHpbH8X00QPRuXNnDB7/PW689kPwk0NYu+8W0musMhlEiH33BEtnjSEf1RG9Bo7C2iN3kJj8CcfXrcZVN/G7t0vJSwvHme3LMXpQb/JV7ehaemHU5LnYdsIKCbmyopg0oqxPWNDNFNqNRuCRZwjiYmIQHhoEd7t7mNzeFIrqTXAnVrw0I9rrLlbT+HIMkkowJYgK0vD4xHqMpd/v1Kkba/c2H4Lx/PAa7L3uINtmRGGcF3au+RXLV26BV7TkyY8UER4PsXDqCHTr3Al9hkzEvhtOCPB8hhUr18M3VmoZTVEGbC7uxLjuTaAgz0OdNt3x/a+78S5B8kS3JA/Otw9h2sj+rP8ZPmUhbjn6w+m3g9h6rMKrL4VZeH5xNyaPHIDOZKudmBg1bwUeuVV+i0W1iLLx4Mx2yTnak511pxg2Gat3XUBIZrlYVh15CQE4uflnjOjfEx06tKckfxAWrTuE9/GUlH/my6E2R2GpqY7+i48iMDoOsVGRCA7wweOLO9BQXw11esxFOvOqw8xgHF63EvvvulfqFxZhHjzuHMC0EUybdcHIaYth7RaKJOeLWLvhMIJKhTGJuMDsueAQ5I6tP81AT4oZXSjmLN1+ATGV9lIRIcbrIVb+MAV9undCe4rvg0ZNxc7zj9mnZKXHRtN96CirYOSOh5BZ616KKB9OF7dj9fYziGee7rIfJePSjvXYfsaafeorjcOtI1i9cS8imA1DS3+E/LrDhU0YNaAnjfFuGD3vKKKYp1vs3/LgZnUS308azsbA9h06o//QsVi8dh88S4s2YSGeXjyAjXtOI0V6/T9L+Z4L6+1DcX7XLxjcqys6kc+ZtngzXKNkl5BEej7BqlVr4RAQW6WdMfuqPDy3C9PHDkZnsokOdL2DqRj4detx+DJPxCVfYV6N9/DYWoxg4jHFtKkbrpRt9shME3/92yHMnUBjivKv9tSvA0eMw8/r98M7ghFmxScJffsQq1euprgTXGEZW0VEiHh5DGtWb4VjhWU8FWGeyP52bBt2Hr3DFthVHRrra48Ni2dhQK9uZBcd0K33QEybvwznnvoiV8pXJn5ywOJpI8kvkE8cNBmP/Mt3+Gds4Ol5aqcxQ9CFxm/7Tl3F7bTjFIKTJf0mKsGtEzuw7dBNGZtj+sztt50U+08hhHkqLfm0pCAD949vxBjGr3buhnGzl+OhRwQ+PD6NDXvPIFdGyKL46XgbP8+ZQPGgM90HXSPFz+9/3oBHH5IqFb8VERUk49aepRjWtzv5jR6Yuf1+2StCAxxvYsEUsT8cMHIajtz3hJfdbazfegChiaU2IMT9M7uwZe9VJGRJxeaiOFzethZbztmwT+JLYWYkndy9EYcuvygTklI/PcHmjfvwNigMV/etJD/UAx27dMeE71fipU8cK05KU0znsDq9HdPGkG2y/q4rhoyegpXbTyAgrnSspOH2oY1Yd+QpUqSWD5ZkROHg1nU49Jst8pmn+aWUROH0jnXYe82F3a+lJtwfXcDajTvxqZo3SOWlhuLcrl8xdkhfdGzfHp279qS4OAfbjt1DTGYBSgqzsHVadxjUbo9L9j6Ijo1FZHgo3rvZYO2M7lDlK2H1RSfkFpRAmO6Hw5vW4vAjP3bJFDPzx+n+acybMgo9unSi+oOJFyth4yP71ojivGgcWvU9+nbvgs49+mMP5TbsfZGfcbyxH1NHDECXLl0xYuqPlGcEweXOIWw8/oTqDHEfCtP9cXQTtdMDnxqXaknDLCN9fnYLJlIO07lLN4whu33m6YfnxzdRbWFbZlf+ZK8/zSV7pWvrRP08etoi3LL/WCY2Vgv5/usHNmHzKRukSI3p4pRg7NqwBies3GT6TlgYhmPb1+PUPQ+pz0UIf/sAP80YQ3bdmex6Kg5RTIrxs8fWjdtgz84aF5HPzsfjS3toXA8m39UR3XoNwOxlO+EZyryiVvzLcfSddWtW0z0yS4pK274Y0W538Mt3E9j+6dqjH2b9tBmvg0pnIZQgyp3qTbp/xs/3GToBe668QvCbW9iy8xgiM8VCWJKfLTb9NBsDe3cj39sZQ8bNwtHbb5BeYSns/5r/sLjwR1LDho4c/yJEeL6hN3gKGjjt+pmndhz/Ygpxaao5eCqt8TCGEj+JHSS9PwlzNQFmHHD87HpkjqpJfrYVKjw1TL3kVyH5FeLt9oHgKxliq3eO5CnM3xdh4it01lLDsD2vPzOd+9/L8YX9oaJXD/Z+zNKU8g4T5cRjWqc60G8xHElSTy6/GSlxoeKGjt/ChV+GQ1nDGHffhn+5qPO3ooYNHTk4OP425KZ4oUs9bXSdvp98o+wsiQC7QzDRVsHcvdZlT8M5OP6ucOLCHwInLvxXSPhoDQstPkavvv4PTTQ5vpXCiJdorcFHm/lnkVNaOBbFYUNvEzQftxUxNTyZ56iZLNejMOArwXLAMrgESYpSURGCXW5jQENdaDYcjIAc2Rkqf09ycXCUKVSazkdoNU9H/+1cXTkafGUtzNt1AzEZ4qfpxTlJeHzyV5hpCdB15l783p3sq+TPEBeE8ZjURh+GzaYh6He+/eR/DycucHD8E8hP+4Q+TQ1g2nwQrF1DJEs/hYjzd8CPw5pDWdkEZ+xCyvYM4+D4u8KJC38IJbg/vz4rLlwP5sSFfzOiQkpgR7VDg77fobjky6aEcfy7cLm4CkYWTXHTM6LsiawwxR97t+7C+9/zhgSOckQZuLBsGMx01SAvpwhNXX3oaChDgSeASb22OPjw/d9b1CuOxM9t68LEQAs8BR7qj92H5D+ygP4HkRVsizEdG0NDWZH6Txl6+gZQESiBr6aDlgPmwy3m80srvgpGXOhqCL5xb3j8YeJCHC7u34ErDpXXUP9zEMJbIi5scuXEBQ6Ovy3CQjzYuwhNzPWgoCAHFQ1t6OlogMfjQ9+iGZacfYPM/2g84fhnwYkLfwgiJPvb4+bdV0gq5CqLfzsFGYmIik2U/BfHf43cjGRExST8Z6e7/9kIi/MRHxUGd4cX+O3aFdy4+wgeH4MRn1rzRpB/C0RFiAv+gCf3b8H6pSviMv6pT7v/GAqz0xAe9BGvHt/D1StX8eCFIwJDo5D1p0zrLUak62Pcfeok3meEo4y8aE/cu/sYETLr+jk4OP52CAuREh+JD272uHfzOq7dvAsnLx9EJ6RV2mOCg+PvCicucHBwcHBwcHBwcHBwcHBwfBOcuMDBwcHBwcHBwcHBwcHBwfFNcOICBwcHBwcHBwcHBwcHBwfHN8GJCxwcHBwcHBwcHBwcHBwcHN8EJy5wcHBwcHBwcHBwcHBwcHB8E5y4wMHBwcHBwcHBwcHBwcHB8U1w4gIHBwcHBwcHBwcHBwcHB8c3wYkLHBwcHBwcHBwcHBwcHBwc3wQnLnBwcHBwcHBwcHBwcHBwcHwTnLjAwcHBwcHBwcHBwcHBwcHxTXDiAgcHBwcHBwcHBwcHBwcHxzfBiQscHBwcHBwcHBwcHBwcHBzfBCcucHBwcHBwcHBwcHBwcHBwfBOcuMDBwcHBwcHBwcHBwcHBwfFNcOICBwcHBwcHBwcHBwcHBwfHN8GJCxwcHBwcHBwcHBwcHBwcHN8EJy5wcHBwcHBwcHBwcHBwcHB8E5y4wMHBwcHBwcHBwcHBwcHB8U1w4gIHBwcHBwcHBwcHBwcHB8c3wYkL/zVK8uHn5oiPYYkQST76s0gI8YGj2yfkl/zZv/T3R5gTDxeHN4jLLpB88g9GVIKoj2/h9j4EQtG/v29Tw9/B6V0oiv7G9ypMdMeq76Zi6Tl3FP6rxpsIqRG+cHrrg/wioeQzDmnyEoPg7OqNfCHXPv9ohIV4eXYrps/7FSGp2fij3E1uaiQcHNyQnFP8p8f8/wpJIe/g8iGCfO3fb8wVJPnj+JblmDZlGtYc+A3Z+YWSv3BwcHD8NXDiwn+Mggg31NYRoOnYjSj5U5NRITaObgi+hiWcIwrFSY0oFzcPrccvG48gOqOIPervgKggGhe2/oqV268jofDPSb9C76yGkoIq5l7/QO3+lb8hKoDDpW1YunIbvOMKfleCWJIdB5v7l7F1zS/46edfsH3/CTxy+IDs4q8/myg3HlPbmkO75ShkFvx9+vFPQZSFbb1UoKDaEw5ZRX/L5FxUnIsDs7pB07Q17n1MwdeYl6g4H3dObMOKLUeQkP37bOtPRVSIXZM6g2/YDL4RKX9YwfXXI4LX4/NY/ssGOIUzffRH3UgR7v/UFTxBPVxNyUOJ5NN/CjkBD7D+1xU48zL4XyaKfT3pn6zRykwbfeYdRGrOH1cQvj42DepKfOx/FIQiTuivGlEJnlzYh5Wb9iM0OatmHyrKxLreOuCr94Vjcs7/ZswVpcP64Aas2ngMgZkFlG1JKI7GrB71oaymi9btO6J5p2F4n5qFdy+u4Ndf18MuMA7FX5t/cHAQMQHuePz0JeLScqscH+nRH/H08VMEx2d9fY7L8a+DExf+YxREuLLiQpO/QFzYMKoBBWALOJWKCyW+GGCmBJ6KPl74ZfxtCoWS8HtoKFCAHK8NXsX/OQVkiERcmHPtd4gLwkjMa6IMeTkedj6N+6rikaEoIxLTOpjT9+WgoMgDj8eDgoI8atVSwIb7EV99PYy4MIUVF0b+J8SFrT1VoKDSA6//puJCysdzqKOhiu9Penx1gVack4whLfShqNMI9lS8/+1yAlEhdv4bxAWREJsndYKiogYW3//wBxZ5Rbi3pAt4grq48o8TF0R4v7MnVHnyaDTxFNIKiiWffw4hrPctwIjJmxCc8fcck1UiysWTbd9h/PwtSCyQxMRSShKwrrse9NvPR1CWWOQTpvtjxaTRWHbiFQqKfn/P2h+dCjUlPvY9DOTEhWoQFudhSlcLKGlZ4q53eM0FuCgDa3vpgK/WFw5/srggjLfDoknjsfVJDPKlHgQIU7zR3UCD4nkdnPJLR6EklSuwWwpjNQEGbrBBZn75eNr3XR8o8zUw76oLcr/Bljg+hxA+11djwuTlcI3Pwe94dvO35eTi/tDQ0MVVu0AUFleuHZxOTIeuqgBrLrsjt4Czsf86nLjwH+N/Ki5QGP7g+BQPnjtTUfo38rrCTHi8fIhHdu+R8ydVV98kLlBbRni+gvVDW8TnfG2fieBybBJUFRUwdMlxBMYkIysjFaF+7rh2aDOevE/96oKNExf+ThTB5eyvWHfEGmmlGebXICzGB5dXePTSCbmFX1rc/YX8W8QFItbfHQ8ePkdkRt4faEf/ZHEBKE4JwLOHD/E2JO0rZnMUYfMwMyjy28A+Ou/vJ4hVhzAZ67qYgW/WG++z6LolHzNkh7zBz4uWw8Y3piw+FIc/QwM1ZdSffBjZ+b/fz3LiwhdAthfg/hqPXjggPeczM7j+QnGh0PMgamuooN06N2TmS/2SqAD+Ds/oel2QWlS63EWEoP39oamii7UvkiClLSA+yAuPHj9DWEr2V4wzjq+nGPcXNIO6SgOc90lBwZ+ZYv/FcOICx9fw3xYXhAWICfaFk90LODh7Ijw+E0JhPuIiI5CaVz54irJTEBERVWkKeUlhLiLDw5GalS/5pJyMpCi893DFq5c2cPF4jygKQl/q0guzUxHwwROvbW3wxtUDn8Ljy5RphsLcNAT7f4Dbm9d4/sIW7u98kZCeJ/mrFKISpMWGwMPZAS/tnOEbEousMJcqxYWSvHSEfvoIN5c3ePHSFm/ffURcRuX7qo68jAT4eLrBxvY1vD4GIZsKlcriApCeGI2I6GQZRbc4LwOBH73gYGOD1y7uCAiLk7lfhuKcFAT6eMHR5gXbJoER8SiqkFUWZCez7Wb/6iVevXbGB/9QCsiVnWBlSpAaG4HI+IzyhK8kD7ERjB0Uo6Qgm4rxd7C3tYWr10ckZVc9ZTU3PR4f37nDztYOLu7vEBqbSqFGTFXiQm56IsIjY1BQwVEXF2SSXUUgI7c8ocxNi6Nj4/H1PrsIB0boQl7eEJd88j+biIuKchAR5AtXBxu8eGUPD29fxFewLVlxoQAJkYFwc7KH/RtXBEYmVvqNzKRYRMRloJjOHfrRA3av3yAwSqpQJDtNjg3Du7fOeP7cRmx76XStkj9/juK8NAT5vqdx/JLGsTv8Q6Jl2lRYlIuYsEB4vXXBqxcv4fzWi+2bqnKswqwk+L5zg52NHTzef6I+SK1SXBCVFCAuIgjv3J3x4tlzsklPBEclfdGU0wKyk8iYZLJfITLiw+Du9Bp2Tu4ISyifzZNK49btjR17P+GMXcqctgjJMZGISqo4fZfGe3w0ouKYti3/g5Dahx1fti/xhsYX40/Kr1OE9KQ4up7ESqJXAfk9fxpPDvZ21GaeCKK+ld53ooj8VLC/D1zp+p8ztvLeD4nZ3ybAFDK/+d4dNq/Ir3n7IzU3DzuqEReExfmICvEj26Pft3XEO99gZJQl4CJkJUYhgsZMfhV9kp1KNkk+RPpvxfmZCPEnO3ptB1tHF/gGR3/hfjHUj0nR8H3vCUd7G9g4uMDnUzhyimS/m59JcSQyGnlSTw4zU+IRFZtC/SFEWlwo3J3tYO9I4ygisUpbEpJvCPZ9B7sXLyiu+CA+Ixt3qhIXSiiOkX16ubvBlvzhGzcPBEfT71Rl9BUoyUlFZFQsJcYipMQEw9nBFm7vQpBb1hYiZCdH44PXW/J1r9jxFJmYWXk80bhOjQmBp5sj7Ozf4ENAMEJDQ+lfGKLY4+kLxdmIjoxEaoX9ANLjw2m8OrHxxJ38QUImFXx0QElhFqLCg7C0rxEUeM3wm4sfgul8TPwr/f2y8e7uCtuXdH1unpLxLnuBaQnRiEnKZP1t4Pu31G/OkjEoe5wsQmRTbPfxolj34hleO7mK/c1nhHoR2VZE6DssbmsMJaPOeOLjhxC67lj6fabYExbkIIriTQqzNIl+PjclBiGOF1FbRQm1h2/AR/9AhIaFUeErHl9FlANEki1lFZbItFtJYR61J52HEbAkf6hWXBAVIS48kGzuNcV8G7h6eCMyQXw9X4KomH6LyZ/sbeFA/i8sMQvFlBNF032kMQW65DT5OWk01iJZgUT6zKIS6qeoSKRkUX4g85M0dqmNP1Ab21HMdXH3pvyJ8XWfvy5hYQ71/Sd4uruQD7FhbTM8Pv2LvsuOxWjKtSrE43zKbT4yMcHOHp4+gcjMTa5WXBCSfYZTHuXiaENxzon1A3lU/EuTl0b+Py6V+qIEmeT/vVwcYPvaBf5hiVIzz0TIJP8V9Gg9zNQEaP6jFeUzwQiLIJ/EisBkh5RLRcYmifMgEcXhqDA8Xt4OagI9LLvpiYAgGhfs3h0iFGTRmCZ7ySmQ7QNhUR4b710ol7QnW/b5FEa5m5RNUR+zY8mNYifZiNNbymuYWF6Fb6oKZtldTGgA3OkebWwd4EXtl55bsb+rR3x9fnClWMjEGMYXxKbloqTiCZgcIpp8jesbynUd4fneH0mV7KoyRXk0Lun8Hq6OeEn24ubpjZiUCmNAVIgEirexKdTXMp8XkX+MREwixWe2DyhnjAzFqWkNoSqojT1P3yEgOJT+TvYn1V5MPRFEPtyB8hUbyoW82bhVYWwUFyKWGRuZeSjKSYKP+xvKjd8hKbdc+GL8XGSIP5t72ZJ/9fYLQVZehfgrEiKFcisvtzd4ZedA+RzFaGYZjcxBX8bvERdyydajWFsvRhrFAibXcXTxQDjj99g2EyIpKoi9ByaHYuKIdFsxFFP+HRkSAE+KBy+ZeopsMDJBtk2rIyM5FlGUPxWVFCIp8hPltbZwcnuHmDSxKC0qKUJsqD/FOHs4U84el1a1+FZItcWnj9Rn5OscKSdj8lwmf5NGSPltZBCNffoNe8ofPgSEy/i8PIr/kUw+QvGf8W/vyOZev3FDYDS1j6Qt0uPCqF5zhL3zWxpnqZVysqLcjDJ7fUU5khvVlrGMYPgFbfFX898VFyj5urtxCox11CBX6/8gJ8+Dfp02OP/wOLobG2P2jXiJYxLB4/hsGBo0wv4P6TIDN9zlN1ga62H+kSesAxcjQpz9PnSsZwi+ohz+7//+D/KKfOhbtMRFh9DPO9Vsf3zXryk0lHmoRd+tJa8IDV0TLD31ijX6wtBnGN62PrTVmGnytej8taDIV0G9zuMQUKEIDHl9Bs0t9MCTp+uoJQdVbRNM+n4FjDT4MuJCZqQHhndsDF0NFcjXYs75f1BQUoFxwz54GURJIHtU9YjSPDGlSz2oKMmz18NT0UKrUesxY0A9KMmIC0VYM7opzBoNh1+qJICJMrB1WldoURLF3q+cAtR1zHDKPqasrbLj3mNC18bQUOGx18a0iaZ+bSy68r7MEaT7P8KwNnWgrqzInuf/6D4EajpoP2IJojM+s4liSTgWtjeBcZdfECXZNK4k3BrtTMww/7o79v8wADpqdH1kJ/I8FdTu+j18UmWT4ZygBxjWylLSBmRPCkrQMa6LXfc/stdYWVwQ4caaiTCs0xrPAxNk7CLYfhvqGhpg3ZV3EqdRgltLOsLQpBOeMm0p/cOfpQinJ5pCQU4Ja274VXJW0hRnx2PtpJ4w0FRhx4TYtlRh2rAnbnjEs86YoUxcaDEIz/ZMQz1DLSjQ8UzfaRk3w077WArC4mPprNg3vRWM2i7H0W1zoMe2oxx6f3cUBexmWEJ4XV+BpuZ6UJKMF8b2LFsNhH1w8mfvtSAzDPOHtIO2Kl/Kfkww67ANitmLyMOWWb1hpKcBRWYcsPbDg65pK+x/nSB1nRQIIxwxuk1tqCopiu9dWQNdJi3Hsi58WXGhKB77p3aFmb4meAric8op8KBt3AgHn/vX2MZMX75Y3RWmzabgwcuzaF3HkM5Ri71uXcuuuPUxFSGPt6GtpS71mfhaDZtQEhvLJDySUxS9w8RGJjAduBNJlAiWURiDhR0awrz7HBRKEtqitFAsGNAKWqpKkntXhJZ5R7yMYp4U0wHFOVg7oSvqdBiOiNTcMpvOi3yNyZ3qQ0NQ7oe09C3w0xlXNgFO9LZGj+Z1oUV+SE7iM3gCNdRpOwbe0b9vM7qS/BgsGNIGmhLfpyhQR8MuUzClVwsoGVQQF4RpOPPTYJjqqlM7if0gX00LHcf8gpiMfLqPAtya2xTGRg1xxDWT+kTyPQZhAlb3qw3D2mPgni7uU2H6R/w8pDV01QVi22f8paYhRi07h3TpJ4aVEMHhzCo0sTSCKl983cx3lTX0MGjBCaTklX5XhCe75sDYsiVuf4wWJ6n0b/d3/dGs+yQ8u7AerS312XthbEHTpBmOvw6RsSVmfK6mvtKhYoP5HcYX1Ws/DKtHNYaCoE6ZuCDMS8GWmQPIPrXJ50jsk+xIy7Autt7xloyL6hDh0+WFsKjXDc/8rNG3iSFdkxwU1fviDflRphk/vTiGdvVMoMxTkNi+EgzqdsRxxxgZwdfr1nY0MqP4w1xDLXkoq2tCR0eH/WcxehcyCopR9H4fmpuZYPrJDxJBUIR09+Po0sAIfMm1Mz7IvO9WRFOiFumwFY1MDKDCIz9bi8a6ljadTxf9VluzSRsz3rfN7Q8TdmyKfTEzhnRMW2KvLV1f2b0XYdnIlmg9ZB12LBoKXYlfmrz9do1LEIJsTqF9QzPy8+J7Z/pKTdsY/ZZcQnxe9Rsmxj/ZjNrGBlBWpGuSo/ilzVy3DrpP2oY0KrbiHC+gjqk55p6wRQEVqJdnt4cx2TYTj+XJH2pri9tt5zUaf8Ul8L6wBBamjbD1TaTMUqgY7wdoXtcUs3bclhShVYsLooI0nF86CpYG5LvZ8cPYkwB6po2x975XlcWDLCLc2TUX5np0jfR9xr70zFtj3/5dqG1qgdX/395ZgMWRbG//BpgZBneCuyYhCSHuSpy4u7u7+0Y37u7u7q7EiRODENxdZub9qnsGmMHChr33f7+75/c8rPS0VFedqjrn7ZJDd1h5yvPx5o6JsLG1x8bLr9nzc++b/G07KjtYo9sf15Ca047J8Ob0Mvi4WMvzirMv5j+Vdq6Jrfd+KJVffqRZ8ZjSvT6sWFuf2y6LWLoqYd3tH0VPGZNmYcnApnD2boRXStPDkj9fQdsqziz/NFidY76NlgFq956GgVV0IcojLmQk/MCkTnVgYagjbxM5m9c3R8MRWxDKBdT8WRIcm1AXDhX74dCxlfBytuTraCl2rq6pHWbtfSS3Y1kU5jZzgYWR3CfTEOvzNmBi54X7r75DkhWFpU3dYFe+I57FsTTEXUJTVxsYaTP/h29/jGDE7KX16E1ISs3A1TUjYe/khV2PPrF8UJRBehjWDGwIa+YD874kd52eCep0X4IfLADNig3EiBbVYG2a28+pCzi/xg1brr4pho1IsGVKF2ZjBtBQ+KAiln+VO0zGVxY0F1EaPLKkr1jYoy6sTBTpY88XsLpg41kbx599U7IFGQIvLmJtUumc9o7riyp3W4ufiilGBZL+DkNbVGF5rCtPH/d+rA5YlWuBi18SWFumOC/jLlp5OcKn1yaEKd1PlvIK3cs6wbnlLMRyI5GC9qK2iw30Nbkpp+qs/5DX8UqdZiKO/c4R8/k22tUqx/pj5q8o+hlNHSN4NBiKJ0Gsn1LcPOHzfdT0csbgucsxooE7DDS5abuWWP7sCy94SzISsGRIK9gwW+frL3cf5u/W6v0HvufkrQw/bq5AdeYrZMciQk1dlG2z/LdGz/11cSEL+8fVh1Olgdi9cyGzdQu+fDhfydSpHk69DMHLIzNQ2cmc+Was32NtiLV3GzwMj8/1y9I/YUL7mswG9HL8Ny6esnBvgFMfY/J9hFSF1em+teFacwK2LBsDDzvWv7LncNdbl2mJOx9DcWXDKHjaGPPH1TQ04Vh7AJ5FJObUaY749xfRsaYnH6NwvgHfP5s7Yujaa4hNVXwAlDFbn9oNdtxUJVYepdS4um+KuQfuIFkx3e/cyoFwZP3kti0rUKuMPcSsD+NjGeaj7LrxDh9ubmE+lR0rK66P0ICxQ03s9g9n5c1fDqS9waAWVZXslXsXMazL++FiYGyuvf6X8I8VF0IfbYKtngBWFVpg74U7uH/9JCZ3rwdDY32ISwnQZnuIooOR4f6SdlBXN8WcpzEqFTLw1nYWiJRC1z+Os3Plv0S9uwBPQ0041+6G80+/Ijk1ES+v7kQ1Ky2YVuyCr0WMk5Km/MSUBnYskCmNHrM24fYjf9y5dBTT+rVA12nb+GdE31qDZm37YcPBC3jzOQjBnwOwcWwraKkJUWfhfbnTypBEPkRLJ9Yx6Thh2rojePL4LtbP7Ad7fbkD7NF+FnNc5Wn5+focWrTvjVW7T8vv+eUNts/pDR2hGpoy57ooVUyWFo4Zvk7MATJGu0lrcfPBA5zYthBV7QxYh6AGoa6quDCyfmlomdTAyyjOEZMh+PAg6AsM0GnZOYSzBjju5wccWb8QN94qvixnRWJRe3cINAzQY+o63PV/zvLkGKb0b416k87wzrckNQhdq9hA09AWIxZtwy2Wb49vncWEzjUgUheh6sh9SCjKscgKRHdHIQSuA/FV4eRkBR6Eo0gIO1d7uHg3x8ajV/DgzkVM6VIZIvZePRadzXH806M/oV05c4hNXDB5zWE8eOKPa6d2Y0i7Whi+/Dx/XkHiwvaRvtDQt8PpNz9VgrH3l6bAkDnGozc9UpybhZ29naAhdMaJz39VXGAO8fl5MNfWgL6tN5bsuYCfcQWMSJEmYt+YuhCzBrZ+z6k4d+shnj66hU1zB8NKTwTLSp0QohhnmS0uCAQCCHWsMWz+Ftx78gQn1k+Cq7EQ6gaVcftroiKdmZjTip1r4MECKw+MX3MU9+9cxc1HH3h7/nJ1Nay1xPBmQeHtNyHISI3HncOLWR0SwrbJdBZQqH6ZU0ESg429WeAp0Eeb0ctx8/Ez3Lt6CnOHd0T9kbtYEMXsWxqGMT06YPbq3Xj46hN+BH3G9QML4WmmCbNyvZiTk60sZzFHpgoLZHTRcdyfuHH/Ic7sXIxa7hZ8x1NKq3aOuCBLeImBDZti6rJtuPfiA0J+fsf1/QvhqseCHe+hCGKdSeFFJMGpYe4s3yzh7GSPntPW4ca9u9izeCBfRnZlaqC0MQsyZm3AvUcPsWFCW+hpCODcex/is3uPjMdowvJZ5DMNYUpDWWTp39HdyRTiMu1YgCLv9J4cGMcv5jZwyUnEpKQjOvgtDm7fjLex8pFUsswkjGzsCQMWTH6NlB+TsMBjRBMPiPUtMWTBNkU7dATjevqiw9g9SGbO79sLG9Ck0xBsOnwJ774GI+jTSywb1pLVUxH6rr+qEkQUC2kCDg3xZgGFFur3nYOr9x/h7L5V8C3LiaPMuTYtkysusI781IJu0NExRrcZW/H+ZyxSYoOwZ04PGLJAtNXiy0hjzk/M3Vmw1BKg9tA9/BfebBKebYGtpiY8B+xDInsXmTQDi3rWgI6RA6ZtOoufMUmIDQ7A/F51meNnjoUXPhb+pU4mxa5ZQ9FrzDycuv4E34KD8d7/MrrWcobIwBGnmE3L+wYZjs3oAJGeNXYxx1guLkgxq6MPdJhTaGzmhH7T1+LeY38c+nMUqxMCaJcZgPcJuUHJzdXdmOMqgI/fKFy4+xhXT2xD17puEHOOo9AhR1zIjP2O/l26YOrSrSwQ4Wz+K24cWgF3c11Y1eiJxCJXj2fB3Ybu0NI2gpejNgs0puDKvQc4c+oWolieSqLvo6GbMawqtcfxe++RlJSA93ePwLecJYydG+H5D8Uom4yPaOFpAosK7XH5VRAS40JxdmVvlNYWM2d7Cvaw4IQbrZHxmCsjTbRc6s+XmSzpM7q7GcK0THOcf/4daWmJePvwAuYtP40YVoYp0W9xYNdWtKlgxBwrO0xcuh5btm7HJeao8m0lq+/je3fCrFW78ODlR/buX9i7/4GypbVgXq4HPsVywhNHBgbWtYYOa7ON7Spi1pYTeHD7Ah69DSq0v4t/cxjVrXWgZVUFs9cfwsOnz3Dj9G70bODJgi8Bhq29XKgwkRn2Gvt2rEErZyMIjDwwZ90Glu6tOH0zgA/2gq+uhZ6WNtovvcCCy0wEPTiJ7UvHojQrb/OqXbFuwyZs3boNL7/GsPyV4sm6PtDWNMWka19Vgubgx4dgaShG22m7WcBemLggxY1NQ2GkJUIF3/7Yf/Ym/P0f4sDa6fBkNqJrVwdXg5NyHfx8yBB6fQGcDTRhWs4PW09cxd2rJzGhay2Ycx8omC8yfOd1hdgDXFo7hNmTHpafVhUtkgJXw0lPjGbTzrNgRJ7WtJBrqOVsAqea3XDm0UckJsUh4MY+1PcoDcvybfA+VElkzUNW2jeM6N0D89buweOAQH6Ey+Xdc+Bmpg2XusMRnFP2BSDNwsxOVWFgVwlPP0fydVYmTcO0Dj784ojdpqzGtbt3cXLbAl744gVhLSVxQZaEveMaQp/V76FLDyI4JgUxP95g9Vg/GGrpYPi66woBJQt7BpVjgact7B2d0GPyKly5fQ/HN82CM8t7M+8OCE3g2uEsvL56EFtnd4GJWAj7VtOxdsNmbN9zGOFc2y2JwKwqJtCyboyHrL2SsP+/eHAX5rRzgVjE+kN23w2bt+Ly40C+HzzzB/PnDKyw4c67HHHh+Pye0NXRY3V8Ik5euwf/+9ewasZgNGjSBx/Ck5D87RGat+iM2at249HrTwj+/hlnN02Hha4Yrm1mIDapiJGtsnQ8Wt2V2aIZ2oxfi9es7U6I+o7jywfB1lAH9UYdQIRiFE7BSLF5XCvoMLtp1Gsyjl2+g2dP7mLj3IGw0dOEkVd3PAqR26g09hnaOBnCqmpvXHnJ2gzmQ7y4eRwrt15FXJ4RAcpIw09hQPd+WLHtGJ6//4KgL29xZHk/2OiL4dFpA0KzhYSMq6hlpQ/7livwMyHXhmRJ/mjOgkm9GmMRHZ/CzgvC6QM7MaKBNQsczdF3zips3LIVJ268QAarC9KEdxhW3xma2lboN20Vrt9/goc3zmJ6X19exK87cBlik+V5GvvhJjysjWBRujSM3Zsw//MSbly5gkBOSJKm4NKC1jA3tECPmVvxITQOcWGfsHtuD1jqM/9l9knEprD3jn+Njq7GzHfrjAvPviKV5cvru6exdMMlROeIXcXnd8SFrQMqQM/IHrZObhgweyOu3bmFDTN6woyVoUcFH5gaOWL4vE24decGVo1sCmPmC3oNPYbwJHn6ZFGXMaRbHyzZdBBP3gQi6OsHnFwzHE5GYlg1XY5v3Ig1/ukFkYlZ7T2ha+IES+cKGLN4B+7cu4lFQ5ldsedUrV4R1vYVMHX1Pty6eRkLe7L6z/yC1nMuMl9J7j/JMiMwrKkXzB2qYOXhWwiPS0DIu7sY0rwiDC08cMT/M1+fMr/sgTcrr1p9VuDtj1hm60G4eng9rvhzeSVvB48t6AR91tebWjqj3chFuHSL+X1LRvB55lK5KjytbNBr0gpcvnkLexf3gR17R4+m0/FVMepdGnYcg/sMwp/bj+HF+6/4HhiAQ0t6svqkBZ9em/GT/6jy38M/VFzIwNaOFlBT18OyG0rDo7OSsKRzJaiVQFw4NYsFjKxz3Xo7e+QDBwuit7Znga4uxlws/Kte8JNDMBJroFLPxX9tmEvaPdTVU4ewxnzE8R6BDE/W9GRBkRBN/3yRIzhwvDg6HbpCNXgqiQsFIQl7iXKldWHfZGy+4T/KRL65BCt9AdxaTlI5TxJyHlXMBBAVKS5IcH5UBWhoeeJkYsEBWdK9VTBggbZlx81IKiRPwo/0gg47p9HEk6pDoLO+oLerJkpp2ON4YO4wzXwUKi6oQ710Q9wNzW2IYz7fhbOxCOXaTZMHr4yP1+bBkOVp60l7C83T/0txAZJkHBzvKw9C/vUv6FhXwp9n3yBNkX6O9IB9sBSqQ6/6ZIQpBWKQpWBzz8rMlvQx8loc35lniwvqmhaYdzdKxQk9PKMZr0JP2XNfkXa5uMB9eei++GROnmUzp7M3dMzd8OhLnEp9uTGzFoQCI6x/yA1TUxzOQ8rzPTARMee72ULEKxrw4jKjA3PwzFzw8KuiPqZchreRABZeAxGkNLQ/7vVRuGgLoKYkLhRMBja1NYFAWB6nwjP4L7wFIxcXBBoa6DT/Qs70DWlKNDpyi24KDTHqmFIwKwlEVxctqOu2wPPsdP0FceHcjAYQCYxx4EVygflYkLiQ8HkL7HVYENt5ORKU7v8rMj+cgRkLhsr03viXF6DL/HIJdmIBdCoNRqjS0N3MpPdoxIJZoVmuuJCVFo2mnkZwrNafOYBKTpIsGuOr6UFg0gpPWVllpcegeVkjmHk2YR10thMixfHp7SDUtsRaf3mQnxl3HuWMNFG5z2YkKNm+LPoaauiLYMKcysS/uB7F0y0jmINpiAkXuSCae3Lh4oJA0xjTTrxWGlGQjjXtbSAQWGDXS0WQlx6ADtZiCPTr4mZ47vSmjLivaOtlBXVR7siFApHGY45vOQitqiGQBQXZT8qPQlwQsLbP3A8vopS//ElwfUwZFrzYYvVr1cXK7mwYAU2xMeZfec2PXsh4yIIQsSZ67eS268s+MQUdKxrBvspY/OCcX3Ykr7iQFXQfDiz48O65NCc4zs9fX3NhdueK0CvtgnufuCHy3BG5uKAh0MG4/dxogMJrLA9z6Ff3rAWRlgUWP/zJv2M2ce+uwM5EB8bV+yMutYhRckWsuaAqLshLsfA1F1j/XhJxIe0Z/Ox0IDCog1uKAE2OFK9X+UFPU4hKk28gqbC6L4nCzHouEGm7YPvnROTO/pHgz0F1IBJq/qa4kIWzwz2gI3bCplfxSl/ipLi6tCe0dS2x4iH35T33fX+JJB0jmpeDqUt1vA7KO71MiQLEhay4s/AurQ3XumMRrOS4xzzbDQ/m0Ktr54oLGe8PwtVAG5799yA++2smIz38A+p4lIZ7k+FITOa+XsvFBW3Wb/VbfhGpClGFq5+L21aE2NATpyMS2FlyCl1zQZpHXJAfxLP5NaGvVRrzb0flfvFk5BcXYtHO2wymzvXx4nsR+ZKXrGAMdjOD2NkPn2JZ36k4nBdJ+FNULm0Eu8Ys8FZ8tZcjxfjWrDzsq+LJl1gV30GF5Kuoaa0Hy3K98C5C2QdgNjKhCm+jgzY85oPYzIAjsDXQR70pJ1Ty/vdIRe/qljB3ao9X4Ypph8UVF3gKW3NBhqebBsFQRwd15lxj7URu2yaN/4i2njYQGVfB5bA4vuyzxQUNHTdsD1BduyHz2xV4mejDqd0fiFLKW0lqLLrXcYWdTzt8Do1HxoezsDcyQI2RO8FNUyopvysu6DKfYNjqyzltWFbkezQoy9pvcWlMOf8ld/qg5D3alzOFnmVHPAtLKLwvQxpGNbSFnnEjPAguwoYU4oK2lhb+OPYIKYq+PePzdbiYGkBNbI/lN74hVdGRZaU+QX1XE7jXGcOvTcIdTbw2Hg5Guui68hGzrdwUxd5eDxsjQ/jOv4w41pclnhgAa0NjjD8ehKRCdpzjxQVtTXSedwDxKYryyPiKgaw+aaprov3iqzmiBpd3Axu78yMCH3+KZL604nA+UtC1ui3syvfAmzBWjxVH/xv4Z4oLmW/R3kwDGtbt8DbPwoLRpyZAqCb8PXFBloTxtfRRSlgWWy7exf3793P+7uwfAVMWMNad80h+bgHc3zOcGZkaCypvF3pOLlJEBH+C/+OHeHBnP+qaakBYYRLCuEovS2OOUHWo6zjg2NdYlTSnfStiQUdZFqJ/yOfp3rt0ABXMdGBZdygyihAX3lyeD30WtPb840weQaSgBR3zj1wIPz8eJkIhnOr2xclHnxV5no0M15d05QPb0efz/qaABb9bWhtBTcMWm9/mXVNAhvPT67Hy1MC8o/Iv5QVSqLigAZcBB1WcmayId/C2M4BDw2EsGODOleHC1FosoBbij/M/Ck4j4/9UXOCQpePN7eMY06kODMXqLL/EqNB0EB4Gp/D3e7R5BAt4tdFze/Yzc4m9OA0GLNhwGHKRd06zxQVDr9aIz7Og4+uzy/hhXX6zDyqEBIW4ILDHpU95hDVZHPzK6MLY3hfHr91WqS9HlnaCroYAY3cG5EtPNo+2jYVQoIW+2+8XYw4oN088BK+f++PBg/sY2rwsxCaOuMuCDS5NaZdHwVCggQZz7iNdubeSJWB+ncIXdOTmFL5+/gQP7t/FIj8WrAhdcfBLUXMaFeKCyB673ioFRlmJmNrcC5rWlfEpMlHpOemY0ciYBY8+uBWmEC3+grjw4vhM6GtqoEKzgTj/NFglKOLILy7I8HZVMxZcCjFsN/fVq9AXkSPLRMT3D3w7dPfUWtiyZzl3WpETWBSXz5fWMLsRounMo8hUdlxkGfnWXEgJ2QMXXSG82s3B9TvK7exdzPRzZEG5HY6+T2HtURbWDmoAoa4NdjwP5gN6btvOvnUcYOrhi48R7H3ZsfD9XaDH2qA2s47h9t17ufe7ewptnFhAb9sN7xTBcFFw862/cGvhMPs6PK8Xex99DDn8UvG1uHBxQde6PJ5+Y+200gNuz2sITVZHV92MZbbNalHAHliJhbDrtFFlFAZXv46NLGxBRxnS40MR8OIpHty7jrEN3SA088bTxKLWM1GIC0ID9D4arBrIZXxDH3s9CK1q48iNW7iXk+/3cWblCHaNFtqvvs07nun3pqC0WIz++5SHoyegfXkj2FYaieBkeZ+Qb+RCahCGVjRhQZYdBs7fhW/cVB2lJMgpjrggQ3J0bn0f3rI8tE0dcetdlOJ8ubhgaFMTT4Pzrl2SH0lyBNpXtoORW0N8UzieOaQHY2DZ0hAaVcH1uKIEnv8OcSHh1nKYMyfXbdBRxCuv+seQxZxCZVMtGFcYh2+FDCmXRr1FXWczmPh0RRQfMOfy4sgC5szr/Ja4IEv7iO52ehDZNsKhqzdU7Ovkkv4sSNFDt23PkPrL8b9Sfk4z3y7fu42e9T1g6FAFL75xoz4Up+SlAHEh4cxglk8itPnjLpKVhRZuQce6qmsuPN02hpWfATou2IEbSm3Sveun0ZIFUkblWF+ZmMzOVIgLWs7Y/zpOSUCR4MKUBtDRssf64ARkxyf/LnFBGr6HBajaKNNhVTG2IGZ1iV9jxR8P751H3zLGENs2wXP23MJKIuj+AZgb6KBGj2m4xtqK7Pzg/sa2rwpdUydcY21yYf121JH+MNfVZMHbPaV1dOSEPl8DZyMt1B+wjg+aZYkB6MHSpG3mjrF/HkLYX91SmbXD3LoEL54+xsP7d9CushVM7JvheYhimsLfIS5IU7GsRx1oG7viyBvWrqq8dwZOj6rK7McYYy+EgYsvs8WFCp3kUy6UeX9mGYz19NBk9FJcvankN925jj71ysLAsTrefI2AJPED+nmZQcfEGSOW7EUwa5t+1c4VxW+LC9ouOPQyKmcKgyw9BIOrukHPvRmCYuKVyiodoxrZQt+4Lu6xuEV1iTsZ4sKC8PLpE76Mete2g65hDdz+HJPnPGXk4oKeYUVc+8CtayQ/Kkt6jVaWxtCr1A/BMbm+ljQzHu2rWMPRpyc+cOvvMd/jWH83GGhZY+Ke87h5N9eG757+E+WMdWHbfhUi41ORGXIC1ewNYVXOF+tPPeKn/OVNFi8u6Ohi86W3rG3MSQw2tbGGnn5FHA6Kzqn3HDOY38NNg7rH4gOVeiKTIDrkC174P2Z+5220rGQNG+bzvfpRlNDyn+cfKS7IYu6gqkgNgqrjkZintkWfnvj74oLkCzo7cXPeNKDDKr9evj8jtFhcuLhwcXEbCEqpY9HxtwU4VAqykvDg2J+o7WrKAishdHS5++rwc94FXhPl4oIkCVOblYO6eXm8jUxSXCinoN0iuIVhXpxbh8blbaCuIYS2ri70dHX4uX4WdYoWFx7vGwJt9VKYsCPvexVHXJAf2zq5PaxYZ6FWSohyvv1x9vEHhZoowd4xTVlgZYF1rIIV2DBKQjDGXQR1rWq4lpx/CP2Tnf2gxdI3fsuDwkeDFCEuuA5UFRekUR9R1cEQdvUHK8SFLGzp4cALIDueFt54/5+LC0p8e3gYLSva8HPDqvdczAdzJ+d0grrAEPNvvc9nn5JP2+AkUoeo2Sb+XNUFHVXFhaA7e/mt5eqO3qoqLgjL4s6PPGnPeo2aliJ+vq5uQfWFdWTTDhS+TsS5xb1YnhhgzhWWp0Vkynf/M+jTmAUXLIDU0tbh7y0SsPcxclCICzIEb2rNgjkh+h6IyumEeArcLUKCsLc3MKRVZVb/BeyerL6we2pxI0M0XHDw82+IC6zOzmhZoQBxIQOzm5qxOlARN35myM//C+KCNCUcS/o1YfVLh8/nKn7DcM7/C+9gcuQXF5iTO9IDQg1dLLzJ7VfNn5YPSVo87h1YhOqu5qwMRPJ2SIfV4X/9C44d/7q48OzQbNaeaWLA1mssAFJ6aAG7RSQ8nI7SmhrQEGmp2oviT9+kLE59kOdtyIUFMBSJUHXSOdamsKA37AzKGotQa9AuRZAuxZOZVVjZl4JIS16Oef9MuOkJRYgLKdGfsXlad9gYiCHSlKdJRyzEv0ppY3AxxYVnecSFh0s4gUcTK67JnaKY639Cl9lvjalXkK4SXBWwWwRzPsLeXsVwv2rQFAgg5m1el1/DQM24YvHEBZExJt5SDn5YTsW+RG2unVYXFFpfe224L3c8056gvj1zyOuMgv+nYERG/IT/gRGw1NJCIxZMclNrOPKKC/yxb+fRtrobtFl9Ehk5Y8j8HQiMVBYZihYXvj89i35NvVkwKlKt74YO+cQFEwdfBIT/2ulOj/2O+h4msKnaCeF5h5/KErCimR2EIlfsDk8p3Nn9rxAXpPi4byz0NFlQ/+eL/IF61nu0cGF1yKIj3nLBiOKwMqnBT1HOxghOvqORlP0FTsHLo78vLkgjH6I6t8YAa6fkfk2ePwMzDNj1MtcxzwurT58fHEfPRl7QZnVeizny3HVCVvY6Nj5/WVwIXN0U+syGRhwKYc9UujDfbhEynFvUk5UHa5NZGeZLN/uzrtYFCUlcAJorLhxQERekuD67CXS17LDqy79fXODqnZ2+GNXHnka80ld0FaQZCH7G+k7fiiw/s/tOXYjU1aBu3QTPihAXAi7+CSNWtgJmZwW1FSZ25XHr9Y9CxAUp/OfXY0GdNoYcCWXBtuo5Md8vobyVHnyYD5s9KiLi6T74+jjza7GIzcpg4spD/Gi1out1Jl5c3IZWVZ1Y2YmgrWgruPUl9G188fzH3ycuyDISMKZFRejYVsKLr+G8feUiw/u17WGsLUbnrd+RmC7LERdq9F2C+CRVceHezsksSBVDyPqagvK2dJmGeP9dbsNxb46iVTV33ifTNHHH6KV78Tmi4FGMv+KX4sL6wsQFV1VxITMUI6u7Qz+fuJCBMU0coG9cC3e+ZIsLmXhz8wA61HKDrlgzp4y4tRuEutVw63fEhdR3aG9lDH2fPOJCViI6VrWFQ6UeeB/KLdIZgz8aWkKb+eJiRVui+mcAj14bEM1sguuczqwai7L2ZvzaEI6VW2HbuSeI4UR0xQOyxYUtKuJCGnZ2smH5WhFH8ogLs7rVhKltOdwNCFHUk0z4n9uMllWYvYrF0NbJtVdz97YkLvw3IEu4hxqcuOA9AtF5SqMocWG2/y/EBel3dHURoJSwOk4HfMLnz59V/758Q3SKUoufh0tL20FQSg3zjwSoOJq5SPF820gYiQWwrDkQ5+6/RCB3348X0dhcA8Ly2eJCMma08IK6aVk8DVMOVAoWF95dXgpzLQEcqnfGxcev8SnwMwKfXUbl0rq/FBeeHBrBiwujN9/N02AWV1xgOZyVhp9f3mDD9F6w1FZjgZwp5h15we7HLQjTDGpCc6x8lV0eeZCGYpyniAVflXAhIb+48HBTN4hZZZ+661me9ClRQnFhWy9naKhrY+uTlILTyChQXBjlCw09W5z6D4sLHAnfHsDbVh+aTg2RxgLRU/M6Q11ggBnXWDCf5wFZAetgy/LCsOP+X4oLX2/t5Dv4xhN2/lpckLxHbWsRzN06497bT4qV5JX+vn5XdajycH5Jb2gI9DH94stCBQhp7A3UsdWDtqkXNpy8jQ+f5CvWT25XAVrG2SMXZAjf1pYFXwJ0257na0oB4kLKpwuoVFoHQtMKWHboBt7z9/yE9Z3tIeBGLvwnxAUT5shWmoqw7GG1jILEBR4Jq1+f/LF6YheY6wqhaeiCjf6hfDkXJC5cHlOGdVhamHs1vlBx4fqm0SxgEaBsy5G45h+AQJangff3wZG1TU6/MXLh+eF5vLjQa92lX4oLif5zYKGpgaoDNuLdx+wdCHL/vgaF544+SQ9ELw9tCM1a4klsGh7Oq8ECZxus9JdP8eHq4Yt57P6s7Puuf4KPgar34v6CwrLPLQBpJmZ2rQqR2BDdZ23Hszcf+GuurxkKsVCv2CMXfiUuxN9axYsLlcaeyRNc5RcXEn74o66rCfSsymPN6Xty+/wcgJktyrJ8YMHTb4oL3Bzeeiz4Ezo1x6N38vdU+fv6jV+ckH+NzM9o4cEtlMXaDVML2Fhb8GJB2Vbj8DU+98tiQeICR2piFF7eOoxuNV2gwcqGWx/lVZR8QUnunQsTF6RxN1Hf0RA6puWw9thNvFfYxxSWzzoFjFwotrgQF8SLC1Y+7eQ7UyiO80hjsbCBDUTa5XC8yKkpf7e4YIKJV7+qjLQqzsiFwAPjoaepiYaL/dk5eSwh8yWaOOjC0LEvPioFUsqk/3gGL1sj2DcYhoQU1Xn3L4sQF5adflr0yIXox6jN7Evk1h4PAt4xfymvfX3Pt6q+Mmmh51HD3gjGdtWw7exdedkHfsDQpl6/NXIhaEML6LOAZvDuL0j9hbhwcUkv5vAbYfCO83in6GOU/4JDObvj7vFfIi74z4W9vhiVRxwrdCpB6LMTcC+tDyOXuth05p68rQ18guEVTKFlW7S48PbSahizsm0yagUCCmgrvgX9LGLqHPNzF9WHgZYY/fYGI1k54mJEfz2Fsha6qNFtMaJz1n2QITk2HA/ObUOrClYQCjXh0Wg8Aln5FFzmLPC+swiepfVg4tkSBy4/YL7BZ5a2D+jB6qipfdMCxIXlvz9yISMB41p4Q9vaG/5fwuTtfw5SvFjWEkbauuh3IIQfVl+UuPBg91To6+qh08KdCHj/MV/eBv0IV/heHDJ+V7Inl3ejfRV7iIQiONQchjdhhU83LYwtzBfX0zfCrqtv8u1wxnFnRWcYa2th9sHniikIJRcXEh6tRgVrA+g6NMC207dYnebK6COGNXKCnmH1f7O4EIdljS2ho+mMZTee4v1n1Xzmdj0KjeV8fsUdmC8QHfIJR9ZMZr61AfPXdTB41WkkpsrXOCqZuCBF3M3ZKGOpB8sKbXH4Sq69dqxuD5uyNHLhv4Osz+hlK4C6YV3cjVNu4KR4v30gC/BVxYVna7pCQ00fIy5GqDiAL04uZA6g8poLaZjRxBSlNGxx9tNfX4318cFxEGuUQp9lZ3MNVpmsJExpVhYC07K4pywaZAXAz0qQKy7I0rG5fx2oa1pi3esolTTHvb8Ca32R0poLUuwaXB7qalrYfDf3/aQxXOCnD4tfTIt4f30FDIRq8Ju6T3VkAAvKRjVkDlcxxAVlvt3eBgs9ISr3WMjSJ8G9lb2Yg6qFLjteFZwnrHLu6WwOdXUjzL+Rx3lggcn2Pu7s3fSx+X7uCtD5KJG4IMPVuY34qRdT9gcUOjqiIHFh/8SWLGi1xM7nQUppk+LBduYI/JvFBWl8EJqXKQ2hfT1eXHi+YywLKEXwXXiFOTzKD5Diw5beLPhiTuCGQD7wzhYX9F2b4Iei4czm3u7xvKo8cO1FRdqLEBeQjI4VDWHkUB/vIgp2ZIvi+Z5JfEDacsll1YA0Bxm+bWjJL1LZdcsnlfda0rsas8PcaRHcMG5TVt7ew04gWanjlKX9wMgKYhVx4d5WbjqGNgZsv6MkREhwdIDLf0ZcYAGAn5UmBM6D8EVphfrMmLdoamsIsWcecSEHKT6dmwcL9p6O/Y/wX/ILmhbxaUs7Zn8a6PbnQ9UpIjlIMN3PlTnXVrj8JrfOSX5cg5v274kLwdc3QUsoQNUR23NWmeeQSVIxuVUFiJTEhbTIU/yCnxXa/YFYJXGlYGS4vKQ1C2zFmLfnNNpaa8Ks5kiVdR1izg6CoUgAv4W3+Tz5K0jSP6CWrRYcqg1CiNL6Dx8PTWXv8/eJC1kfj8BRSwijhnMRqfzOkmRs6u0DgdJuER8uTIaJpgDdFpzNDeZkSVjdqRJEJRAXkBWCUR76EBpXw9Woou8RuL4l9E0qYe9Tf+zfsQHLV6zEXm5RyDxbThYmLuSQFYfVA2uyNkWI9Zc+szaXuzoTc1tx4gKrEz+UBV1W3ze2YYG0GJ03vmP3y33Ssn61oGPq9NvigjQ5El2qO0CHBa4B4apz1CVx79DM3hg6rn74UtR6FtIozOTEBev6eJFQDHHh+yW4ceJCl1X5xIVXW4cwp9cAA458ZPUl94nvL6+BmZ4IbYoQF5IfroGVjiZKt1qFyDwjctICVsNFTxOOHbchKmf+ryrS2I9o4moBPfdW+M4CH+Xr72yfCC2xqrhwffNI/qv3rMP3leq2DD+uT4KVtih3zYXM7xjipg+RaR1cD2dBe6EZWRAyvPuzCfTFWhi8823uiAxpBqa292F9zF8XF5JujIOljggNJ55UmT4iS2Pp9DFU2S3i7YEp0GfBYavlN1SnUOTjL4oLz1bCUV8b3tMe/q3igizmGLzNdODSaJrKehLKXFnfn6VHhKk7bzMfQXEzaSRmVC0NbbuixYVQ/2MobaSDKn2XIf435vvHnxvOLxxZdcRRROexw8/nJzIfVowOs04hoSBhJCsak9tVgq6JLc75BynajDzIkrG9izt0tB2w6nmU0poGGRja0BFmDsriwn00cNCHTZ3pKgsIpgZfQ3VTPejkERdODuPEBWdse6UkLkjTsLpvA2jr2WLVw2+sbJTSJInH6vZloKPngs1v5dcUJS58vbSGnxZRf+IecNt6FpusGMzpVp09xwwH73wqcPRBUZxe3g96uroYveVKzg4IOTB/f2WXsqxNssD2+z8VfkMJxQWWZweHMnvWtcGiR+HIXfIgE9Nbs+uN/s3igiwTl8dUgKG2Kaafy7+1dFFEBpxGeTMDmNcbhZ+x8tHjJRIXJInY3NYeejpOWPs0TCUv+tV3gS2JC/8tsEBgoAvU1NQxbCv3hZw7xjqTsKeoaa+PUv9SXtCRBeQXp/Nfv217HUKq4mBmxH00tZdvCaa8oOPVVV1ZoKmGASsv5Ak0ZZByjbri/woi4sUZmDHn3Kx6P8Rld8LsvpmR97Fg5T4WK8djTCMWmJT2xlvWqSlOQMS9VbARqUOQLS6wY+93DuXT4dBrP5IVgZeUNS6L2rtAvZTybhESbOrlxgJwbezxZxWNT6AMoS+PwYYF+b8auRD36RbsDEUwqtQNMQpngltl+fbC5vx0hF/tFpGUyDpnpXxK/voIzqbaqNhlHp++jNfbYClUg4Zzb3xIUoxMYImM+XIHvedf4vM49toYGPJfxeYgJqdHlSHh9S5+UUah6yB8zfuFRpkSiQussX+wBqaa6ijffgZrsLPLTYroJ1uxcIPcDvKLC8wRW90fGixob7f6vqIDlCH6+R646ci3vSpaXJDC/9B8DBg6A88jCv+ag5QP2Lh8L3PqlQJ79h9hASfgxAI0h/oD+ZWMJV9PwkWsDnWzJrinFOhnxn9Hp4rWEBhXwB3FF8dscUGtlAbK9D/Ir+LOIZPGYVIja35B1J13stefKEpcAFb2rw0NsQlWXM2zhSM7UcLyN8/pKmR+OgF7sQYEdu3wIk5hY+y6pPDXGLHgGF8+75Zxc9c1MehQRE7nIs0MRudK5hDnjFxgBzP8UctCBAObungZKt+SUSaT4OziPvwwN+XdIm6uHw6BUAdjjjzOSbMk9jW6uelATfAfmBYhi8fY6rpQ17DGsQD56ukyaSaOz2kNLQ01iJTEhfSkRCUBhFnSj2MoJxbCpud+pLAMyS8uAEk/j8PNQAj7ar0QmqD4yswyKTbgKCbNYu1JZgYmNnOAWN8GNz9mfwFhbc65ZdAVaqhOi5DG48T8YRgyczu/bWZuSlSRhN5GOR0hNEo3wn1F4Mrl/+eTo2HO7FJ5twhpRgLa+1hCx6YinnyPkZefAhlrMyR5etiw12dgZySCZ7mKEKgJ0Hv1BRUxKiv5GapYiWFVvj2+sABd+WqplNUNpfzLiyT1JapaiuFceyxCswM1FqjsGNcCQoHu3zYtAllf0d9dm7UXNtj5XOFEsOu/3d0MOwNNlFLaLeLdiZEw4haMW3k9Z/2K9Ngv6MDVY9NirrlQkLjAfnu7pD60hQI0nXuL2YHSjyzxfH2VZwAez6rK7mGE7kuOIiAwCDEJycjIyGDpyWL2kvuiecUFKbOtxEzWN+ScIsOl1T2hJRRi9fmPinZSgqWdXCEQmOHka/m2ZfLzmQ2uaAIdkRgD9ofktNtcfe9W1Qpaxr8/LYIT7HcM5RZH1YbfOv+caR1cGTw/tRBGLEiuM3g1UvOM5FJBFoelvnbMBirgVIQ8eM7ewrogcUH68wYqsiDKsN5kFuhzQQTXY8pJuLaI3+3BuvMWRCsE3szIx2jvYQBuC9uixAVkfUQPd31mS6WxU2lxSml6JBY0c4VIaI5Zd2NZ/vGH88Pq9IrWHtAUGGPUuR+KQIn5KRF34etiyHwJ1d0iAk4ugY5YjHrjditEEtY3f7oMHxNtqLF+rmm2uMDs5sncOvxifR2X3lZdUJLlU9H9ARdY14auphbGHWNpUkQcGcmf0LqCJfTtKv9lcSEr+T6q2ejCskxrvAuVr8shY+cdmdmFX5BRebcI6c8LqGqsA6FdRzwJV/0qLFNpQ/6auCB5vxXuBlow73pAIfYofijxgo6p6FHDGrrmLrj4Mne0XlZCIJaNHo8vzD7PrugJXdZXzD+o2B6Tkfz9PmpYGkJoU7S4IIt/g+Z2JhCZ1cCloDiVAFDeRhd2pYKMp2joaAgDyyq49yEit59l5TnE2wSaIgdse8oCVpYsSXoakpnflXtHGTaPaQE9Uzuceay8ZaUSsgSs9XOGtrY7drBAVp7fzIZDLqAOe66RrZK4II1BVx8zGFpUxr1PUSwt3DtkYPnA+qyN04C4urK4IMXlSdWgLzbGois/eTuU13EZPu4fy08bKN1CeZcDGSJfn4cby9PSNfsiPF4eiBYlLkijHqC+hSFElk1wIzhv3jJby/b3M9Ll+ZLzuwx7Z7SHvqE59t/6IBcXJGHYMHsMJiw9iQjFOjiFEXp3FywMdaHt1gGPfyg9l7WBwZeXwt5Qh18QPDBG7kdwtl4ycSEF2/tWha6uE9Z/YPbMX8/KKPQ6mroz29f/N0+LYD+kvV4KD1MdlGGxxbfo7Pfi4OK53LzNTIjnhdOce8W/QlP2DPOaw/CTPYOjROJCVhz+9GX1VacMdn2MVIhWLC9+nEVtZ2NYedC0iP8aYj6cQVlzMbRNHNFtyDiMGtQN5VljWKmCI+vwVMUFWeon9KloBDV1XTTqNADjR/RDRXtTeNdpwRwZDRVxISnkKfzcWOOra4lmXYdg3uJlWDx/Fgb1aAufym1xl9WQQss/IxbbB1WFSF0IxyrNMHzsRAzt3RZOxmI0HLmRObpZuLeqL8QaIpRtNgArN2zEwkn94ObkhXJO+kriAksza4SH1uR2xNBG7bZ9MHH8CDSu5AALZy+U1dNUmRbx8vgs6AnV4Vm3C9Zs3opFkwfC28MB5UuLfzlygUWf2D6wKoRqIjjV8MPocePQpTmnjtqiamXPokcuSMIxupITvGq3wPiZC7Bk4Sx0alCOH5I9bf9TeZ7KkrB7bCMWmKvDtXJTjJowCUN6tYWruR68Rp3gOx1pRhTGNi/Dgm8teDdsh9HjJ2LUwC7wtDJgz3LHzvvBSs5qAZRQXMhK+onxTVz4YVDeTTphzITx6NfJF6V1NXO2rCxIXEj7fhk1zVlApWONNr2GYcyQrqyTsUCNdt1gqKlRtLgg+Yq+Lty+u+qYsu9Nzj3zIo28ger6mqzcK6Bt9wGYNGUqhvTpAE9LHWiwRnvVJcVCl6yRu7y8BwxF6qyhqoFBYyZhwqhBaOTjxMpDjG7zjuUEZNnigrmdK6yYI1i+bmuMHjsG7euVgVhdhHK9tyBC3hMwihYXogJOoSYLzsTGTmjfbzQWL1uOhXOmok/HFvCq3Acv01S/dKogS8HZua2Z7WrArnwDDB83CcP7dkJZK3149JavD5H14zS8mR0bOtbErOXrsXrRFNT3tICbox00jZTEBfaUbeOas4BFCPeaLTFq3Fh0b1kd5hbu6NiI5b3SyIW4gGPw0BPCgN1z6uK1WL98DnwrlYFXtTIs+PgPjFxgv97ePBg6/HvXxwhW5zo18YG1Y3n4eRooTYtIx+xmtqjcwA/jZszHkkUz0aaaC7/A4ap7wbzNFCQucIseLuldk+WFGGVqt2b3H48hPf3gYKKLekN38YHVueX9IRSKUKX1QKzeuBFzR3dHubIe8DLVUBm5IIv3R10dIb8mypUEln7+aAEw+7uzrC0MmP1ZezXEyPET0LtNfRa0GaCOtzOE5rkjF5hV49mB6SwoFcHMrToGjpuOZcuXYdaU0WjXrA58Bu1GiuL5HNKkIHSvYM2CHjWoCQ1x9Gmo3OazkWXh0MyOzFHUhFu1Zhg7fR6WL1+MKaMHoVndahi481XBDipDJk3H+JZloalrhm5j52HD+j8xtH0deFXwgCGr73/XyAXu+pdHpsCc5aW5SxUMY7Y+oGsL2JqYwK8RazM1c0cuxH29CW9rPZg4VcGsFRuxeskMNKvmiaplrUooLrBfU7+gT20naOqYoEmngZi7aAlrt+dgSO8OqF6jHu5/kM8nlsW/Q4dKVizP5fvTy/fkFsHIwgGNu03EO27kHXvfvOJC8P1DsLAvg1Y9hmLBH0swc2xfeFroQMe1K14oiQAXVnTjHftKjbtg/NhhmLxDvtZD1o8zqGKtA0OHGpixdC1WsfregL03X9+Nf39aBEdq8C208zKDhsgIddv0wMRJE9G/S3N+yzAt+8a4+Cas0HZYjgSvVrbit4Z1YX3tmNFDMXH+XhZEZxUoLiDrJ6ZWN2Fla4JmvYYzH6U7Dlx9x/od5kOwchhRy4oXsOq17Y1xIwegsosFvGq24PfQL3K3CFbGL47PhyXrF4ztyqHroNG8f+BXrwK0WJtSf9ByxOYZkZaXxIA9qGylA00DB3TqPwIjB3Zj7a4BnJycmc+hultERvhTtHTQg0DbDI07D8Doob1RyZm1S8w/sjHQRLPp2eIC5068RedqDtDWt2D+02DMZTaweMFs5j+1Q436LfDqW/b0gvykBh5CBStdlHavh7kr1uHP+RNQ19MSHnYW0PsNcYE1jlg7tDHEYi3WDvph5JhR6NqsGsyty6F5LXtWlxvniAucPd3YMJhfhNCB9UWjpszF0iWLMX38MLRqUBV95+xHCi+s/DVxAekf0KUcswEtG3QZNBJDhw7H2y+sjmWVVFwA7m6fCFNtMUycK6Pn4FHMr+2Lah5WsPLqgLdhSfh2fy+sDbXZ/zfAnOUsPxdMQn0fL9StaA5NO98ixQXO1r9dXADP0jqsjvmg76ipWLxkCeZOG4eOLeqhTpv5CC5k2o0cGU4s7sveRQyrMjXQZygLgMcORcNKrC/Q1EXPxccRqxjN8+boAti5VUKHfqNYm7EI04Z3g5OZDuzrjMQHlZ0mlJHh54UpcDTShl3VDli0ch0WTxuOCnb2cLIzh6Fds1xxgZ27e2p7VjZa8KzRAsNGDkebup5wqdwAvo5i6NdSFheA4CvTYWeoBQfvphgzdiTGLmZ9Zmo66+JCMK9rFWiLxChbqyXr4yZixIBuqOhoyuqGHZadfJpTZ4oSFzif6tXhyXA2YWXjzny18TOxZOlizJo8Cu18a6Ht0LWIZG38h3OrYOvqjTa9h2P+oj8wfWRPuJXWg0XlgXj1U/5RIvP1KngYa0NsWA43lQLwAsmMw+kFnWGhJ4KpQ0V06jMUEyaMQ99OLWBvqsvyrCqOPFbeHaik0yJkCLu+kAX3urCo0IrZ4BosnT0WVV2c4eJsDbFBjX+7uCCTJGNxv4bQ09WHT+MOmDR7IZYtWYixQ3qjfs262PjgLVKzMnBykDu8q9bFwLHTsPiP+ejfpja/jkfvJceQoBhdUrJpERKEnBkLFxMdONfoiD9WrcPCKUPgZWMHeysTWHrSyIX/IiR4e/ZP1K3gDmsrK9i7lEGnCZvw8eBYCFWmRcj5+eI0fCuXha21NeycPNFtxh78/PoMbRvVxaLDD5mjlHuyLO4NJnX3hbuzPawsLWFtaw/3ct7oPnEDYgvt3RRwq4dO7g5PFwdYWVnDkaWrxYCF+Bit6OxlCdgzQ/67tbUtylRujL13A3F8fjc0HrYL8UrWFfvtAbo3rAwHW2vY2DmiVpuRePD1O/7o3gJ95+7NHVmREYf9M7vDy9WRPdMGHpUaYd05fxye3BEdx61hhv2LNEtjsHJkG7g62MKaGbtXjebY+zgEN3bNRIOmPfE+MjtAlGDjhA5o1GYSvidxjagEny+vRYua5fk0WlnbwM2rOiZtvY0UpWdKksOxZnR7lOXSZ2kFB9cy8BuyCCGJucPtpPGBWDykNcrw78DynL2vT4NOOPCw8B0ccpBGYFnvxmg0cAO/l7v80H30aVwXA9Y/UHl/WVIIxjKHssv4dcyRzG2JZclfMLdfc96J5d7D2cMbvWfuRrgiyI54sBuN6zbB2rvfWHpy7/ft1hbWYXvwduXgUg5j1p5D2Je7aO9bH5sucztkcOdKcWNlX9Rt1B+PcvIyDSfndkO9xh1x6YPcUS8YGb7d24vOTWrAlaXNktmjnYMLqjboiGNPubxReresZJxbPQ41vNxhy/LQitmXR8WamL7jds6IHQ5ZRiyWDO6A/jO3Icx/D1rXLAcba0vYOrqhzbCliFMK7Li0H5jdDXWaDMe72IKFgrgvN9GvZW24KNLH2WpZ7+oYwhyIhCJ7O3b3jATsnNkHFdzltmHv7AHfnlPxnjkV2c96dOgPVC3nyuexk6cPRq69jpuHl6Jxqx5485MF1IoTZcnBWDWkJTyc7Hg79vRuiJ3X3+H9gfFo1GoC3jJvTX6qDIGXV6JBJU95ubmWxYjlx/Hj0Xq08O2Le5FFfQGQ4unmQWjQqJd894fsE6Vp2D9rIBp3HI6wBOWv5xIcnNUJdX1H4U1c7ggVKasTK4e2hqczZ292qFC3M069DMaZWV3RrP88ZCpG0Ly5sAYNq3rBwY6rX7Zw96qBWTtu5HZukjRsntwbzXuMZc/NnQsvS/2B1aPboYwLa8O4doi9Y6exqxGkWDRVlvIT60a0Qln2uzV7ftmqLXDg3jNsHtQEfRadQPaczIyQm6igLYRx9REILUooYshYWrZO78XqMGv7WB3yrNQQS8+8w+MD89G4bV98j1C2cxYEX1iLJjUqsHezYXbDyt7RFT61m+PPC+/ztFksqNs7GY3q1GZB2p/4mVrAF1BZMi6tm4CaFTxgZ2MFS77t9UStZj1w7m3eBbhUSfxyCwOaVmNOqQ1s7F1Qq+04vHx5BX18m2P9va+KgFOGR3vnoYFvB9z8oghe2LF984fAt8MgfpEt5Ud8ODkbDes3x6kAFjhkH2f18/TSYfD2cOLLxLVMNUzedA2ht9ejWdMeuJ2ULd5k4c2pZbx92lhbwdGtPAb9cQRvTi5C03ZD8DV7XYQCYU735eVo0tAPez7Iv67nJeXnc0zt6ctsg5UT17+xuuJRthI6j1qC4FguYMjC58MjWPBqyILc/XgX+Bnv377GkzsXMalrXYg0NNFmyVXeRiTfDqNj48aYd/ob75RmJf7A8uHtUcHDGTasX7a1d0bt1gPxKFR17nRy6Gv0blyF9Rs2rK13wcANd+Rf4hiPjyxBjfKsDbNh9d3DByNWX8GNQ8vg69cTr4PlTjVnE6vGdkLr7rMQFF9UfqgS++0hBvnVgTtrIzibs2M216DjKDwr7hxmSQimd28IJ3uWblsWmE/chQQWWMe+PocWDRth4XH/nPfgiH9zFC1qlFP4HR7YcvF9jsgb8e4y2tWtBHsbG/abG7vXZnz7+hI9/HwxZ9d1dh95GxBwjrV1DX1xwj8st17IMvDy2FI04+oPyyeu33dmbWM/FgSH5pm6Uhgvz65B7YoevI05OJdF12m7cWHnbGjlWXOBI+HdSbSv5w071s/bs/foPWsHYmM/YGjHppi574XKIqUpwY8wsYfcvqwV/pNHOR/0nLQKYfGqI4tUkElxe9cc1GA+nQ3LL+cyVTF+0y1c3DobrbuNwOc8IwpUkEmwf8EwNO88FIH8SvGKw0lfsWxIK5Rh7awNs/MyPk2w//Z7PNw+Dr7tpuENC5BzUp6ViqtbZ6Jh5XKsTKz5NsTB2Q3VGnbA7usfFKOIpLi1dggaN+2PO8HK9UuG94dmwte3Cy5Eqm7z+vTEUlQu68raWWu4sOc/+xQGiSQBh8b5wbfrFHzOWb9DhuDjE9HctxOOvk9QEQafHl2GJs3a4+IbpTWFZOm4u3M66nrL+zFbeyfU9huEK++5r8bsHPb70z1TUa8S55/YsLpUCZM3nsfbPWPQquc0fGPPVUpmgby8sBmtaleCI7N3S1af7RydUalWUyzY/xhJhQ6NUSBNwtVNk1DPpwxrk+X9l0eF2pi04RJilKYDZkS9xZz+reHlztoMZot2Ds5o1G0inv9yao0MJ/4cg0osb21YHXL3ro8V59/g8MrxaNNjNj5H5065yor9iDm9fHnfgPNPfJr0w823gdg1tg3ajd+KBKWpH5K0WCwc7Me3EVbMZlqPXYdExdokGXFBWDayEyp6OvNxh42dA3zqtcO+hywoVyr01J8B6NO2GcasOIbkgoQ+aRYeHlnB6m9FOLK+nbM1e0cXdq/WWHPqBb/mQWbMJywa0hYVubaU5Ysty5cGHUfDP1SpT0l5hQndW6HdwBX4yq0foDhcGNwIyRt7/oBvTW++TLl+yN7JHQ07jsSVt5F5RHgprq4eCt/mA3H3e0KuTUvisGVMT7TsMx1RCdkjsDmysGVqdzRrNwVvc+qqDFe2TEM15pNyZeRavhYWHH6Mc1tnoEW7iQgISyyijCXYO7cfmvqN5sWUnPMyf2Jxt5bwG7FKZStPzv+YP6wTug5fgR8sL7JP53ydbTP7oSrnF7N85P1797Jo0oXl5TduRKwMyR/Oor9fXd7/t2Z54uRRAd1YexgUmytc3z+4EE2atMDF58o7KGXi9tLuaO43jPn2uVvQcuxfPAqtOg/iP6rIm3wpDi8dhcrMl7VmeeHh0xirLn/A7sVj0WXQInzl1hfhr/zv4B8sLshJT4lHeFgYouPkKmz+BR1zyUpLRGR4OKJilQy1ELhKmBAbhTB27/DIKNa4FN+B4Tq6RP7acMRw6cpzITf0ibt3eHgkEgpb6VeBNDMV0RHhiIiKyVGsC0aKpPho/pmJv7FXsEySibjoCIRHRCIpz/ZWvyIrPQVRkeza8AjEJxemZrP0xXHpY2UVr9Q4KsHlSyI7hyvP8MgYpCmcq/8U2XkQxt4jNqGgLdQKQob0pHhEMLuKjit8QciSIpNkIC4mEmGhYYiMjmOOfeEPSk9OQATLwzBmX8Wx24zURD7PI2OU9yb/a8gk6SzvuPSF8raarDQn/tdIkRwfI7eNuII6Gy6P4/g85stFcbQgZLIsxLN08HZc5NxZds/k7HL7vdWXS4wirVw5pRbhqGWlJbH6Fc7bZbaKXhyy25kw9o4xrM7le0fWTiXEyNuhZMVX0rzc3DgSmmJ9rDj7+hdfdRWwd+LbPpZWzvZ+RVZ6Mv9uoazso5j9FbTQVPGRl2lkOLN9ru1l71zc20kz0xATxbWz3NfIf6cxMEcmIZZPX3xy0c59dj2OYTZfklwpCG54eIKiPQ6P4Pq3XOdalhKILrZ6MK7SF+F5htpmfDwGJ21NuPbayhzgwvoJ+TuGs3KIjI7NFcLyIM1IRjQre66tV16nI7ccufr+b6ib0gzEM7vn3j0qJkHJUSwekgzWJ3P9XWR0MbZVlCGNb2fYs5jfoSqaKeo2698jWTp+uW1sAWSmsfrDrufqW1ziX+1/FG0gu55vd9nFLwtY0DGbjNQkRLJzo2JVp2oVBG9fsdl9udy+itufpinaeu59lD/6/C6cL8f1TZydc33Cr+6Y/Z5y/40F+UX6XcVAJkUK8834/iueK6OSv1MuXH7Jy5CrawW1n9m/c1si/s6zOXuPYfYury9cfS6qX80LZ2MJ8vzk/ZGC7YCbQpcYF8PXk8iYOBWBrkjYdZzvEBGh8D2LeD/Oh4qNYnbAtzdF31+Wlc7OZe/MbIZfrFRxXI7cXwkP53wd1gawvvt3SzST7/+4vGV1kPV/OdNys2G2k8S/n7wtLXa+/IKsjBTW3zHfg3sua5dKbONFwdl/gryM4rhRd3+r/RcTLg2J8nYlu61UXZST2TnzAWK5doLvd/6eticfvL3G8nmR8At7/b/mHy8u5KUocYEgCIIoJpk/0LuaLSr12Yjw3BWIiP9xZCmf0cVOD9r29XDycWBOAJ2VFI7D83tDLNbDgC33/jZHl/jvoShxgSAIgvhnQOJCHmKyxYUdP0lcIAiC+E0kHw5j2LjFCMso3jBr4n8FGUJOj4aVjpBfsE+sZwIrq9L8ujml1NThXH80vsfmTsEh/ncgcYEgCIIgcSEPGd9uY97MOTj9XnllUIIgCIIgiocM3988wKFdGzF/9gxMmTYDS1Zvwdkb/ogrxtBy4v9Poj7ex9xZc3Dl9ffiTYMiCIIg/ucgcYEgCIIgCIIgCIIgiBJB4gJBEARBEARBEARBECWCxAWCIAiCIAiCIAiCIEoEiQsEQRAEQRAEQRAEQZQIEhcIgiAIgiAIgiAIgigRJC4QBEEQBEEQBEEQBFEiSFwgCIIgCIIgCIIgCKJEkLhAEARBEARBEARBEESJIHGBIAiCIAiCIAiCIIgSQeICQRAEQRAEQRAEQRAlgsQFgiAIgiAIgiAIgiBKBIkLBEEQBEEQBEEQBEGUCBIXCIIgCIIgCIIgCIIoESQuEARBEARBEARBEARRIkhcIAiCIAiCIAiCIAiiRJC4QBAEQRAEQRAEQRBEiSBxgSAIgiAIgiAIgiCIEkHiAkEQBEEQBEEQBEEQJYLEBYIgCIIgCIIgCIIgSgSJC38j0th32Lx0ITZe/gypTHGQ4JFmpOBDwCuExqYojvw9hH54iA0rFmPR0lW48PgbJJTv/3GSIoPx+k0g0jKliiP/a8gQH/oFbz8GQUIVmyAIgiAIgiAKhMSFvwmZJBU7htSF2MgV21/GsXDkLyCT4Mvji9i28yh+JmcqDv5vEfz0GMx01OE3dR+kf0uAJkNCwC6UNxFCU88U1lalUaHBaEQlRuLiwR04eOUN0igQ/I+wbkhDCA3tcf9tOGR8lmfg9ul92HvqNpIy/gcEB0kCpjYtB03b6giPTeYPySTpeHTxMHYdu4rkTAl/rCTIpBl4fInd78hllmdZiqMEQRAEQRAE8f8PJC78TUS/OwRXIy10W3IZGX81qM2Ix6gGbiilboK5TyIVAdr/FsFPj8rFhSl7/x5xQRaP5S3coK7nhh3PvyI0LARBweHIeLcOdiI1iIx88SY+66+JPMRvsXZwAwgM7XHvbZjcdrNeo6alCDoWZfEsKOn/f3uWJGCKr6q4kBEXjIbuxtAw9cLjiMRi29mXB8cxdvw0PPseo5IvmQmhaOJpCg3jMnjwM/638uzL/QMYN3Yq/INS/ifbEIIgCIIgCOK/GxIX/hYycXlBZ3QcvQERmb/h1cuy8PzcLsz7Yx0CkzIUB/+3+LvFBVlqELq6mUOnXDskSZS+HGf+wO4VC7F89x0k08iF/wj5xAVk4MSWZVi+6Rji0kr+Vf//nALEBVlWKs7tXoMl6w8gKa34Iw3OLesLodgQG268V5liIctKw/k9a7F43T4kpP7eyIXLi/2gqSHEumshNH2DIAiCIAiC+I/zDxYXZCwQUjjg7N+SjFTEJaVDqvzJjzvOnP6k1Izcc5XgjhVwWHG8oPOlyEhNQEpGZv7fC7mGg7suLSUJqZnSAs/hjkky0xEdHY9MCXeO4ociUX1/qTQLiUlJRQf+ivPiYmMKTUs23G/pLM3csHjuv4sUF/j7ShAfl4CMYqWfnR//Ba2cTWBUqStSsiQqaeH+O/892DGpFEmJSchi/5afkyfP8/5/DgUcVzpXxtKeEJ8CifI53O/sORmpSYiKT+XfOf+dle7L/p2ZElusdQu4a6SSDMTHxiKrkPzizsm5NUtfUnwisw3VEzm7Sk5MLCRthcG9VxYrq0SWj/Lr8osL2c/Pe1fuWgmS4+OQmlW4/XDpykxLRFpGViHncPeRIjUxFjGF5q0c7vrMtCTEJWeq1u0iYfeTZCImRvGOWfnFBY6C31Ge/vTEGKSkq6af+++zS/soxIV3irJT/T3v/eTHsv+b2RN75/RMzt7lx7Lhzrv0R2u5uHD1R757y2H34vMtDrHJ8rYu7xlyuPNYOSXEF3IfgiAIgiAIgsjPP1ZcCL6xEFW9G2PfHX+MaFsTJjpClFITwNarIXbdC0bazwcY2roq9EVqKKUugqNPc5x4l5DrjGcFYFCdiqjcdzsSWACSQ0YIC0Sqo2qnqblBNAtOziwZjPIO5lAr9S92PyEsXKph2wvF2gyyTJxd0B8VavrhcUxy7jPSw7BlSne4WRtBo1QplNIQwdq1EiZvuMRPvZDEfMT8wR1Q3tkaYoE6/vWvf0FT1xQ+vr3x8FtsIYGDnCeHF8G7WkNcvXYBozvUgZmuJkqVUoOuuTP6LTqCJJVAVIpv9w+gS6NKLJ9EKMWeo6ahCTvPapiy/hwfKOYiQ8C51ahTzo6liUuzJlyrtsKCFctgop1XXJAhNuAU+jSrBlNd+X0FWoYoX68jTj79kS+AkiOD/47JKFfGFboiDaiLDeDu6QnPslWx5XkapJmBGNy4Emr324647HfIDMWKEW1gZ6LD8r8URLomcPVg17Drynh54+yznyyYSsDGAS3g3bgfQvLMob+1ewq8KlTGxachOWk6u2ooKlRtg5OHN6KmW2loqKmhbNspfDAW8fIs+vrVg31pQ3a8FP7Fnqlv7oB2I5YjUmlNjZ/X18PHpz6OPbyKkS28IVJnaTOugxvJhU/n+HhzN1rULAtDbSEr71KsvM1Qs80w+Edm5l6T9RUjfX3QasljnFw7ERXsTfh0aBvbos34vYhKjsHxJUNQxsoQ6qzMxUY26L3gINJZ4FkksgSsHtcR9mY67Lp/QcvQEo17zcbI9jWhYaAsLmRhWo96qNdmIkISFV/hZUlYO6ETHM31+WvVhdqwL1cXl99E5+RpVlIo1o/vijK2plBXY/WE2bulSyUMW38XKYqylCV+xvKRHeFiZQQBy69/sfTrm9mhRb9Z+JKUoZRvzE6OL0V1T1toClgdVlOHkaUrJm2+jUzl+pqHjMRgzBnQHNZGWnxd1TW1R7vhc9GrmhtEyiMXMhKwoH9L1GozFFFJ6fwxaWYSds0dCE9bEz79XB2x9qiFEy+CkRz0FI2recOO2QSXFgs7J7n9+QzEm6RM/to/BrZGTb9BiEiU3y8zKQIDW9dCn5k7cW7dRFRxtWD3VWN1xAg124/B57hU/n1TYl6jXd0KzN70ePsubefK37ti5wXIUNhyasRb9l6t4WJpxKeNyzfD0k4s32biYwRrcxRZkhH9DjN6NIaNMasrrD6qi3RRpsFABHJCifwUgiAIgiAIgiiQf6y4EHhkAHQ09OFWzhWOVTtg8+FT2DynD0y1BLArXxv1bPTg1bgX9p0+hxVj/GAgVIO29ySEpGd74fdRT18dwqqzEa0UiMvSPqO9hS40y3VhQbQ8WAt5cghGWhqo3HEqPkYmI/bHW2yeNxGrH8fKnXpZOrYPrA0NfTdcClPM35Zm4MikFtBgAYpHo/7YfeI8zh3ejO5NfODTfATi0yWIfbIfTi5e6DdlBa4/fo3At0+xZGgLiFjwUnPCwSKHRl9bOwQaQk1YGRvDtmITrNl3Gsd3LkE1WxagqOlh0vHAnJ0XUsOfopajPrSMHNB/5mqcu3QJB9bNQmUHFqiILbDs1rec3TGSA4+hooE6RIbOGLNkB84f34nO9ctCrKGBUixYUxYXUkKfo769AYwcqmPdueeIS4zF/SNL4W6qBYuqPRFZyGKAIY+OY/KYwXA2FEOztCfGTpiAiZMX4lE4C4AyX6ChhQD6VWYjkhM9ZBm4PrMxRJpGaD/7MEJi4/Hy4kaULa0NA3tvjJk0Ha9/JEEmjcbUmg7QsKyFjyxvlXPu+B+doS4QYe+NwJyv37snNIZAaA5bG2tUaz8eJ08fxe6jV9jvUlxfPRSelRth9rqDePrmAwIeXUSPOm4soDbGopu59/h8dCo0NfVQxdMUNhWbY8+ZS9iycR++caNC+DNUSQu+gNpWYhg6N2BpeYOkhChc2DgWToYi6PpMRFCSIgDMfI3mViKYeNeFnbUbBs/firOHN6GZV2kW2GqgbbP6MLD0xIQVu3FszwpUsWSBpMge614l5ZRjPlg+PlnsC20NARyrd8SO42ewdfFYuFvoQMACXjV9W5VpEd0qm8HMzY8FwJzoIUPkmYEwEumg2YTdCIlLRsi7e5g/qA3Ov4hQPFOKM0u7Q8TspFyj3th98iLOHNyCPs2qwKzCOHxPk0CSEY/FXXwgYPep2Hwwdhw9h4snd6NPkwrMvtRh2249wtPkNiOLu4sGpUUwKt8TN9+HISU2GMfXTsX0tZf40T0FIkvF6Ym12L2EKN+0Pw6fvYC1MwbCyUyLvWMpCKyr5YoLaTEYUMcFhu6NERqfyh+LfLUVdroi1Oy5CN+ikxH59TnWzhyGE8++IjMuGMvnzECH+uWgJtBEky4DMGHCREyafxCRXHmnx2FIfTcYuNVHcGwKX44Z8T/QwM0QZtbu0DO1Q+9Jf+L8uSPo37gcBOoi1Jl7C2nsXTJTo7Bu0XR0rucCDVb3G3cZyt97ztYrkHDvyt5rUc+qEAi0UL39cOw5cQEXTuxEz8Ze7D4aqDlyK5IUIsSZJX1YXdHF0OXHEZmYjK/Pr2Ly2Bl4R+ICQRAEQRAE8Qv+2eICC4rKtZyAkET512RZZhwmNvbgAzD37uvwQ/EFEZJETPe1RCl1M5z5mC53sv+CuPDk+CSI1dWx6PibnC+EKhQgLqTFfkItBx1YVGyH7/G56zBI0xPw82ckH5DJMlMRHp2oEhBKE5+hsb4GNCsNR0xhQRSDExfU2PvbNRmPTywQkiND2MvNsNdRh6fvJMTxwX0Wzo4uB6G6GMO2v1D66itDxIM1sBGqQ6fCePzgzpVlYs8oXxaIG2P86TfIVLxsZlI41gyuBiEL0JTFhfsbe0GLBatzjrzNCbi59SdermwHkdAIE28kFxrsyhK+KqZFdEOK8nvmERdkSd/Rzt0MFjX6ICl7hAULlE+NqgKRQXlcTlIICb8hLqiz93Fvz56TojrSISOJG3auuutH3O2V0GeBc82ZN3LykBMXROpqKKXng1PvFUJTYciSsKlHZQiNyuIcJ4YoDjPjxIGZraCuroldd4Lk6ePFBSErXzNsvvYxZ7rGm7PLIRKoQ2RRA8dehbF0cEdliLk0EsasHBtMv4YsJVtWRhLmD29DEcTOLfEyWv7FnNvlJPb7TdRzNoC6vl0R4kIWTvezhVCnIs7FZ0KptHJJeYgmVmKom7fAkzB5cM0hSU/Ct+BoZLEDkR8O8kKKF6uzUUrrEkhSwzGhsTUrD13suBvC50H6nUUwEorRdnswP7WhOGR9uwgPXQG0vfrgfWya4h2zEOR/GGUttCG0KVpc+LSlHbSE+lh2K6HQLVELXXOhCHFBZOKK3fcDka44PzPqKmqbCCFwGojPLB+y71LYmgtpT5bAVlsA26YLWVuXO7ojI+4tertpQUPLBXvfp/J1bWkvH2gbueDe15RC6x5BEARBEARBFMQ/XFwQYNzBQKWgLhNHRtVDKaEtdv5UDuCAw+NqQa2UALsfKlZ5/wviwpe7W2GoqY7yLYbj1uvvyPdBvgBxITJgDSxFLOAbsRvphUUqOciQEheJb58D8en9TXS2FkDDtTv/BbwweHFBqIMlFwPY++TePyspHE08jWDi2QRhLBBE2ju0NxNA3aI5nqfk+aIujcKoKjoopeGM898y+KHdg+u7QGztg3cRqvkX7H8EZsrTImSpWNjcDGoCd+y69w4fPn7ER8XfuwvTUFqggSrTHxU6+qK44oI0NhANHY3h2GQ0P2VBjgS3ZtSFQOSMPTGK4Ow3xAVuVMmm659yjuWDBaYx4T/wOfAT3l35E5YssC877AQyFOXJiwvsHr5/3PhlACyJ+wpfD3OYeLVEwLt3OXnF/R1fNQLq6mqYsu+ePL8U4oKw7BSEZuQKHwmvz0CH5WulAeuV8oKRchzuOhrw6bVD9bgSPx8cgLZQAzWGbcx3TkELOuYduRC4tT30BFqoN2Qlnn+Nzhe4xl+dBQOBAJ5jbxZq78/W+EFLXYAR21/ls4ubmweywFoNIzZe43+ThJxBZRMRdD3a4fDt4m1LGnhqESsPEZouuKj6jpIETM67oGMB4kLo3UWwZEF8pXaTcO9daIHTL35HXHCtNwSxKUqLPMoSMKaaNjTEjfEkKXc6TMHiQibOj/KGUGCMKbfimZ0pDvPI8HJ5Y17g67/pFXtnGQ7N7gChSAs9Z2zGu5B4EhgIgiAIgiCIYvOPFxfGq4gLEpyZ2JAF3fnFheNTGkC9lJAFwoqtIv+CuABJPHb1Yw4+P9dZAK9mQ/Hgu9L9CxAXgk4NhS4LGLssv6+6UGAeUsOeYkCjMhBw9/5X7p+6c3d8/aW4oIvll7nRFErpT49H9+p20LavgR/RqZD8uA53kRq0aoxHSr45+RJs7OHC58vOxymQpMTCr6I5TMs0xk9OmFAi34KOku/o7S7ip0oopzv3Tw3uIy7lCyKzKa64AGkM5tR3hMCsMu4qtqaUJHxHpzLm0HRsjJDs4Pt3xAWBNo76hyvZTy6fb2xGdScjft5+7juVgufQ43nEBR3025c/WM5Lys/XqGijx69LoZpPuX+jtt+Q3ydbXCg3VUVcSH1/HrosgPfJKy6knUdZPXa825ZCxYW3F/7kRz10XXqSPUP1nF+LCxxpGNvCE2pqpVBKTYxGg5YgLD07YJbhzcaeLDDWRIc9EXkC4GwkODLYDQJ1Hay8k5xvZMDr80uhLVRHhwVHct7h1sZh0OLWIilVCuZerXD2ZWjhQhDj3ubREAh0MOb4E9XyKGi3iALEBVlGIuZ3rqxYZ0MNVTtMwtts8UrB74kLQ1XFBaRjWj19qIvq4mFO/hYiLkhjsaihLTTEnjgWl5Fv1EjkzUkwFamj5YzzyGQZnxX5HG1d9OTrYmgZodOU7QjJHt1DEARBEARBEEVA4kJJxQUWxP5SXOCQZeD13TOYNbQ9LPU1ITZywuyzX+RfBgsUF4bw4kLnZXcLFRdCHu1DGRNN6DvVxKxV23H81BmcPb0DvqUF0PhdcSEtHl2q2kLXsRZCotMg/XEdbiI1iKuOQVK+wDMLa7s48sPR9z1PhSQ1Fn7epWHi0RAhLJBRJp+4IA1CH05cEJTF8iOncebsWZxV/jt3Ca/DFFNQCqDY4gLL20tTGkLI8lJs6oxa9RrA28OWBXhmmLD1ujwtHH+buCDD1TUjYKwpgkejXli74wBOnzmLU5smwowFumV+U1xI/RnAiwumZZvg1KnTqnnF/53HtyjFYqD/BnHh3YVVvLjQ8Y/jLPhXPad44gKzluRI3D2zF8M71uVH8mhZVsSBB99ZnkpzxIX2u8IKFRcOD+LEBS2suJ2YT1x4efYPXlzotuRE7jtI0/H1+Q2smDoAnmZiqGuaoN+i40gr+AG4v2UMBKxMhx96pDqSpJjiAocsMwFPrx3FpL4tYKEnhKaJG9Zf/5BTvv9xcUEmFxcEmh44FJNfXIi4MhbGQg20nXc1Zy2KrOQIXDu6CX2aV+UXw7Twao1b4dzuEvzPBEEQBEEQBFEgJC78trjgjyYmGhCUGYuf3IRwBZKEd2hurpNfXMhBhognW+Guqw4Nj9EI4a4tQFyIeLEU5oJSqD9sZ6HDxHdPaQl1oT5WX3uf+w6S7xjoKCqmuKCDBWdfsmtz75+REIR6LnooXdEPEdwCgSmv0MxAAxoWTeGfnGdahCQMgyuIoaZVBbcjMiHNSEL/ek4QW1XCm3DV/Pt6f1ee3SJSMaexEdQETjj1WTG//S9QXHEhPTQAPtZ6aDhgHg6vmYsh/fti2IS5uPE+SqncGdJYzG3gCA3TKniaqiwuyHBgZutiiwsyFtD2rmkLHRsfvFayoayPB2En0vhtcUES+xUN3cxg6NUWiVmqazzk498gLoTc28cH79WGbMizIKIMy/vWLpa4oMzjfdOhxYLaRuO288+MPjcFOhoCeIy6htQC7V2GR0uaQKSugRFbn6sG/4wr63qz39Qxbc/DAvMyOfQR6jobwcCzac5uDHn5eGI+Py2iybzzKvkgy4zFuIYe0LQtes2FvHy8sAzGrMztO61CqqLM/iPiwlXlaREZODqgDD8tYtL12DzCjRT+C+pALNDE+CPf8+UppKm4+Ucb6Ak0UGvOk2JMzyIIgiAIgiD+yZC48LvigjQS/b1EKCUqg+tB2V/Ypbi0si8LktQgUhIXJFkZeQLZEPTyEEDDqhc+cwJAAeJCSlQAKluLYVK2Re7CkgxZ8mfsWLsNKZkybBhRHxpaxjj6JDjn/slfr8JbT7144oKaGiyq9MbLnKHbMnw7MwbGQjVU7bWWBe3sqCwNB3raQ11NjAGb/JGV8yIyfDo+A0YCddh32ynfulKWgc2D6kNNYIDRp7i1CBRnJgVidH1uhIPybhEy3FzdkV/octDqq7kjCIpJccWF+C/34WwihleLkXj55QfiElMLXlCQlcH+/l7QEJhg2t3sRTJliHm6FRVLa/PbhxZLXJCkokMlM5i41sOXqNzF894fnQE9DfXfnhYBaSL+7OAFgaYF5j9MKPor8r9BXMj8eR/uOkKI7ZvjRWKuvcQ+WYsyZlpQ/8VuEampqiNZEt5cgKGWENWHyNMii7uJWiZCaBjUwoOQXLEpI+YzZkzZhghmy6Evt8JGVwOezcYgMWdKBUtFynv0KG8EdYEjLnyUl500PR3K4TgyYzGqnjt0XOojNCFNcVCV9E8n4aCpAS33nniXvfMG++en83Nhb6D5ywUdJWlpKrYljb6LqloCmDVbgGTFbgxXVg+CQKSHeWdf/O3iwo1VXfhdWRYef6dy74QbU2AmUodNvZkIUdrmNJ2VaX0LMQQWjXE/Rm6rWZmq05kk3zbDWSyA19ir8hEfGfE4tXk5/tx5jtlxwbZCEARBEARB/DMhceF3xQX268m5fhCyAN2n1RDs2rcHc4a1hLWVE2raiVVGLhyf2hQ12w3Dpr1Hce7sSawYz30N1EK92VeRzt2sAHEBLEjdOsoXIjUh3JoMwPod+7B701L4lreCS4OhiE+T4NHuKdBU14BP50k4e/kazh/bhtbVy8HFRqd44gIL7E0NdGBdoRlWbduNTUsnwpXbRtKsAva+iMvJl6QvZ1HZWo/finLkvLXYd2A/NiwaB3dzHejb1cClz+xc+amIfboTZYy4INEDk5dvwd6d69C2iiNK23hAWyRQEheA+KBHaOBiBE1jZ4xcuBHHT5/DmVPHsGXlPHRs2xf30/OMlFCiuOKCLCMW6/pWh7BUqZy1CdTUBdAzsUbddoNx6llYzhD7uHtL+Z0yNC2r448NO7Bp2WR4mJuiXIXyKKVRzGkRMglW9K8DDbERBizYiitXr+DwppmoWMYVFuzevztygSPpzUFUt9VleeuGycu24NSZczh94gjW/TEFzWo2weMQhZjxbxAXWASP85PqQldDHc71+mLLrn1YNWcorLS14O5oW/RuEVnf0cfOAn4DpmLfkZM4e/IIJnRjeaSuien7sxftlOLQTD+WH+oo26AHNu7ei10bl6JVZXsW7I/CN2bvWSmRmORXHgKhDqp3HofNu/djz7bV6FjdGQItY3T58zZS+FFEMtxe2Abl6nXC6p0HcfrsaWxfNh42hpqo1Gk2kpSECRVkCdgxqDK0WBp8Wo9gdXo/lkzsCUt9Q5S1N/mFuJCJLR1s0bj7GGw/cAxnz57AvEHNIRRqo/+Gmyxf5eX75cJy6AoFcKjfF9t378KyBTsQwt5N+jeIC28vLYYhJwQ07Y+9e/dg2bYL8q0opTGY7FeO2asm6ncbi+179mPvtlVoU92F5aU+Rmy+oRiNkooBDcuhx7hFOHDsFE4f3Y0hDZygqeeIVU/i+XoSH3gXTqZaUDeohJuJ+adZEARBEARBEP9c/rHiwvdLk2CiZYD550OUgkMpbv3RHlosMD4doZi/ruACO64pMsWR57mBtCT+K4bW4LbA4xZwKwWRqTd2P/rCggxHmNUYmBNEc7tFOBtwixdyAW4p9m8N1Oq7DIkseJaTiaMTm0PbwhsPIpVEDVkStoxqBE11NT4oLlVKDWZebXDtiyJtskQcGlcP2hrc76VY0KyNkeuv4PrUajDyGYpQ1THQKmSvubDs6FEMrs2CQ8U7CFkgsfP+N9WAmRH14gjqOOhBTRGkc2kx9/LD1ey0KBF4dRWsdIT8Yo3ceS6NR+Ptx+fwtjFE1wUnVEYpSKOfolt1O36hPz74Z/cvpaYOz+ZjEFaEOCJLCUafijawrTcI6coBsSQQbVz1YN1yHeLY+0viv6F9GTPo2NfGlTefEPDiKe7euIT107vCTFONvW8VPAvP/ZrLD1tnwSWXn+oiQwzcdBdPji+EWMsQRx/kjhA5OpfZg05pnA9Q7B6ihCwuAIOqW/IL+3FlrqHnggMP72N4JSPUnnYxZxeBkIuLYaRtjIln3uWIFr8i7NUZVLPWUioHVu4a2vBuOxdB2QvvSb6gs6cBjBuuQLRSHqZ/vQk7HU00HL9LVUTIeIBqljqoP+po4eICjwRL+9WBgLdHlj9iM/Td+Bi3to6BvoU7Hn/MnmqShUH1HWDn0w9B/CiHTDzfNhjWegJ5utkft/5B1+U3kJyt7DBkGVHYMqgGP/In+91Kl2uJh+FK02YkkVjcq4Z8C0+FvaiJS2P81pssQM69V8rHs2jsZiK3a/5e6nBpMhrv4nLLuiCyUqIwviULxLPfUccGEw+8wPl5bWHs3gARcSn8ebKMeExs5gWrSu1yplkEXVkCZ5PssmFlz+pjw5HbEJWaK/Bwa3usau/Kp5+/v0kHBHCjCTITMaVVBVh4t8bPePn7ZiaGoXUFS1RsPQ3xyvdg+bm4rT20LDvgpdJuEbKkHxjJ6nJ22g3qTUF6plyUkCZ8wQy/MhAr8pav64aOmHrwtcpOGscX9eKnv/ALrXJ5KzDC5J23c+wiK/oj/LwsYVG1B0LTcp9NEARBEARBEP9YceFvQ5qKL29fwv/5a0QlqQ79VkaSGoOPAS/x5MkzfAqOYmFaMZFmIfzbBzz190fA+69IzRtwy6QI435/+gyfs0c9FAPlBR2z0pPw/tVT9g4BCE9UHRatTFZ6IgLfvGDv8ASvP3zLn5YcZEiJCsKrZ0/xmkuz0poUBSHLTEXQxzfwf/IYT1+8RlBEfPHz5xe8vzQfhiIBRm6+n2fqhQxrB1WDhkgPp18orb8gy0Lkd0V+hkTnWziwuEgyU/D53Us8exGAiOS/620USFLw7UMAnjx+jOev3iI0OlHxw38AaTp+Br5h+fMC30Jj8wkrRZEcE4Y3L5/D/9lLBIXninSqyBAR/InZO7Ox99+QlG/fVoY0ExHfP+E5O+cpy99wRTCeFwmz68/vX8Pf/yneBgYjvQixTQUJs8cP7LqnL/Ejqvh1iiM9IRLvX7M64v8MX5j9FJQ/Ukkavrx7xd8/OCb1L93/l2QlsTrK2hl277D4PPeWSRDO8u2ZP1fP3iAi7+88MiSxuvv6xTO+LobE/s3pIwiCIAiCIP5nIXHhH4qyuKC8oOP/Gi+OjIauQB2D/7yEpHR5kC9jQVZs6Af0qVEaImPv3OkEBEEQBEEQBEEQxG9B4sI/lH+KuJAY/Bi1bA2gqWMMD6/KaNK0ORrVqQZnayMIde0w5+xnZKiMaCAIgiAIgiAIgiD+KiQu/EN5e3kr2rXviouvldec+N8kJeQlNi+eht5dO8GvdWu069QNo6cuwvWXQf/z704QBEEQBEEQBPGfgMQFgiAIgiAIgiAIgiBKBIkLBEEQBEEQBEEQBEGUCBIXCIIgCIIgCIIgCIIoESQuEARBEARBEARBEARRIkhcIAiCIAiCIAiCIAiiRJC4QBAEQRAEQRAEQRBEiSBxgSAIgiAIgiAIgiCIEkHiAkEQBEEQBEEQBEEQJYLEBYIgCIIgCIIgCIIgSgSJCwRBEARBEARBEARBlAgSFwiCIAiCIAiCIAiCKBEkLhAEQRAEQRAEQRAEUSJIXCAIgiAIgiAIgiAIokSQuEAQBEEQBEEQBEEQRIkgcYEgCIIgCIIgCIIgiBJB4gJBEARBEARBEARBECWCxAWCIAiCIAiCIAiCIEoEiQsEQRAEQRAEQRAEQZQIEhcIgiAIgiAIgiAIgigRJC4QBEEQBEEQBEEQBFEiSFwgCIIgCIIgCIIgCKJEkLhAEARBEARBEARBEESJIHGBIAiCIAiCIAiCIIgSQeICQRAEQRAEQRAEQRAlgsQFgiAIgiAIgiAIgiBKBIkLBEEQBEEQBEEQBEGUCBIXCIIgCIIgCIIgCIIoAcD/Awbd9LGIZ7SfAAAAAElFTkSuQmCC;" vertex="1" parent="1">
          <mxGeometry x="73.77" y="20" width="667.19" height="130" as="geometry" />
        </mxCell>
      </root>
    </mxGraphModel>
  </diagram>
</mxfile>
